  0
SECTION
  2
HEADER
  9
$ANGBASE
  50
0.0
  9
$ANGDIR
  70
1
  9
$MEASUREMENT
  70
1
  9
$INSUNITS
  70
4
  0
ENDSEC
  0
SECTION
  2
TABLES
  0
TABLE
  2
LTYPE
  70
4
  0
LTYPE
  5
40F
  2
CONTINUOUS
  70
0
  3
Solid line
  72
65
  73
0
  40
0.0
  0
LTYPE
  5
410
  2
DASHDOT
 70
0
  3
Dash Dot ____ _ ____ _
 72
65
 73
4
 40
2.0
 49
1.25
 49
-0.25
 49
0.25
 49
-0.25
  0
LTYPE
  5
411
  2
DASHED
 70
0
  3
Dashed __ __ __ __ __
 72
65
 73
2
 40
0.75
 49
0.5
 49
-0.25
  0
LTYPE
  5
43B
  2
DOTTED
 70
0
  3
Dotted .  .  .  .
 72
65
 73
2
 40
0.2
 49
0.0
 49
-0.2
  0
ENDTAB
  0
TABLE
  2
STYLE
  70
4
  0
STYLE
  2
KICAD
  70
0
  40
0
  41
1
  42
1
  50
0
  71
0
  3
isocp.shx
  0
STYLE
  2
KICADB
  70
0
  40
0
  41
1
  42
1
  50
0
  71
0
  3
isocp.shx
  0
STYLE
  2
KICADI
  70
0
  40
0
  41
1
  42
1
  50
15
  71
0
  3
isocp.shx
  0
STYLE
  2
KICADBI
  70
0
  40
0
  41
1
  42
1
  50
15
  71
0
  3
isocp.shx
  0
ENDTAB
  0
TABLE
  2
LAYER
  70
2
  0
LAYER
  2
F.Silkscreen
  70
0
  62
41
  420
15920545
  6
CONTINUOUS
  0
LAYER
  2
B.Silkscreen
  70
0
  62
31
  420
15250087
  6
CONTINUOUS
  0
ENDTAB
  0
ENDSEC
  0
SECTION
  2
ENTITIES
0
LINE
8
F.Silkscreen
6
CONTINUOUS
10
143.8007969999999887
20
-51.5545669999999987
11
143.8332690000000014
21
-51.5870389999999972
0
LINE
8
F.Silkscreen
6
CONTINUOUS
10
143.8332690000000014
20
-51.5870389999999972
11
143.8332690000000014
21
-51.6329609999999946
0
LINE
8
F.Silkscreen
6
CONTINUOUS
10
143.8332690000000014
20
-51.6329609999999946
11
143.8007969999999887
21
-51.6654330000000002
0
LINE
8
F.Silkscreen
6
CONTINUOUS
10
143.8007969999999887
20
-51.6654330000000002
11
143.7778359999999793
21
-51.6699999999999946
0
LINE
8
F.Silkscreen
6
CONTINUOUS
10
143.7778359999999793
20
-51.6699999999999946
11
143.5621639999999957
21
-51.6699999999999946
0
LINE
8
F.Silkscreen
6
CONTINUOUS
10
143.5621639999999957
20
-51.6699999999999946
11
143.5392029999999863
21
-51.6654330000000002
0
LINE
8
F.Silkscreen
6
CONTINUOUS
10
143.5392029999999863
20
-51.6654330000000002
11
143.506731000000002
21
-51.6329609999999946
0
LINE
8
F.Silkscreen
6
CONTINUOUS
10
143.506731000000002
20
-51.6329609999999946
11
143.506731000000002
21
-51.5870389999999972
0
LINE
8
F.Silkscreen
6
CONTINUOUS
10
143.506731000000002
20
-51.5870389999999972
11
143.5392029999999863
21
-51.5545669999999987
0
LINE
8
F.Silkscreen
6
CONTINUOUS
10
143.5392029999999863
20
-51.5545669999999987
11
143.5621639999999957
21
-51.5499999999999972
0
LINE
8
F.Silkscreen
6
CONTINUOUS
10
143.5621639999999957
20
-51.5499999999999972
11
143.7778359999999793
21
-51.5499999999999972
0
LINE
8
F.Silkscreen
6
CONTINUOUS
10
143.7778359999999793
20
-51.5499999999999972
11
143.8007969999999887
21
-51.5545669999999987
0
LINE
8
F.Silkscreen
6
CONTINUOUS
10
143.8007969999999887
20
-50.8345669999999998
11
143.8332690000000014
21
-50.8670389999999983
0
LINE
8
F.Silkscreen
6
CONTINUOUS
10
143.8332690000000014
20
-50.8670389999999983
11
143.8332690000000014
21
-50.9129609999999957
0
LINE
8
F.Silkscreen
6
CONTINUOUS
10
143.8332690000000014
20
-50.9129609999999957
11
143.8007969999999887
21
-50.9454329999999942
0
LINE
8
F.Silkscreen
6
CONTINUOUS
10
143.8007969999999887
20
-50.9454329999999942
11
143.7778359999999793
21
-50.9499999999999957
0
LINE
8
F.Silkscreen
6
CONTINUOUS
10
143.7778359999999793
20
-50.9499999999999957
11
143.5621639999999957
21
-50.9499999999999957
0
LINE
8
F.Silkscreen
6
CONTINUOUS
10
143.5621639999999957
20
-50.9499999999999957
11
143.5392029999999863
21
-50.9454329999999942
0
LINE
8
F.Silkscreen
6
CONTINUOUS
10
143.5392029999999863
20
-50.9454329999999942
11
143.506731000000002
21
-50.9129609999999957
0
LINE
8
F.Silkscreen
6
CONTINUOUS
10
143.506731000000002
20
-50.9129609999999957
11
143.506731000000002
21
-50.8670389999999983
0
LINE
8
F.Silkscreen
6
CONTINUOUS
10
143.506731000000002
20
-50.8670389999999983
11
143.5392029999999863
21
-50.8345669999999998
0
LINE
8
F.Silkscreen
6
CONTINUOUS
10
143.5392029999999863
20
-50.8345669999999998
11
143.5621639999999957
21
-50.8299999999999983
0
LINE
8
F.Silkscreen
6
CONTINUOUS
10
143.5621639999999957
20
-50.8299999999999983
11
143.7778359999999793
21
-50.8299999999999983
0
LINE
8
F.Silkscreen
6
CONTINUOUS
10
143.7778359999999793
20
-50.8299999999999983
11
143.8007969999999887
21
-50.8345669999999998
0
LINE
8
F.Silkscreen
6
CONTINUOUS
10
140.6879610000000014
20
-48.7095669999999998
11
140.7204329999999857
21
-48.7420389999999983
0
LINE
8
F.Silkscreen
6
CONTINUOUS
10
140.7204329999999857
20
-48.7420389999999983
11
140.7204329999999857
21
-48.7879609999999957
0
LINE
8
F.Silkscreen
6
CONTINUOUS
10
140.7204329999999857
20
-48.7879609999999957
11
140.6879610000000014
21
-48.8204330000000013
0
LINE
8
F.Silkscreen
6
CONTINUOUS
10
140.6879610000000014
20
-48.8204330000000013
11
140.6749999999999829
21
-48.8230099999999965
0
LINE
8
F.Silkscreen
6
CONTINUOUS
10
140.6749999999999829
20
-48.8230099999999965
11
140.6749999999999829
21
-50.5249999999999986
0
LINE
8
F.Silkscreen
6
CONTINUOUS
10
140.6749999999999829
20
-50.5249999999999986
11
141.6149999999999807
21
-50.5249999999999986
0
LINE
8
F.Silkscreen
6
CONTINUOUS
10
141.6149999999999807
20
-50.5249999999999986
11
141.63796099999999
21
-50.5295670000000001
0
LINE
8
F.Silkscreen
6
CONTINUOUS
10
141.63796099999999
20
-50.5295670000000001
11
141.6704330000000027
21
-50.5620389999999986
0
LINE
8
F.Silkscreen
6
CONTINUOUS
10
141.6704330000000027
20
-50.5620389999999986
11
141.6704330000000027
21
-50.607960999999996
0
LINE
8
F.Silkscreen
6
CONTINUOUS
10
141.6704330000000027
20
-50.607960999999996
11
141.63796099999999
21
-50.6404329999999945
0
LINE
8
F.Silkscreen
6
CONTINUOUS
10
141.63796099999999
20
-50.6404329999999945
11
141.6149999999999807
21
-50.644999999999996
0
LINE
8
F.Silkscreen
6
CONTINUOUS
10
141.6149999999999807
20
-50.644999999999996
11
140.6149999999999807
21
-50.644999999999996
0
LINE
8
F.Silkscreen
6
CONTINUOUS
10
140.6149999999999807
20
-50.644999999999996
11
140.5920389999999998
21
-50.6404329999999945
0
LINE
8
F.Silkscreen
6
CONTINUOUS
10
140.5920389999999998
20
-50.6404329999999945
11
140.559566999999987
21
-50.607960999999996
0
LINE
8
F.Silkscreen
6
CONTINUOUS
10
140.559566999999987
20
-50.607960999999996
11
140.5550000000000068
21
-50.5850000000000009
0
LINE
8
F.Silkscreen
6
CONTINUOUS
10
140.5550000000000068
20
-50.5850000000000009
11
140.5550000000000068
21
-48.7650000000000006
0
LINE
8
F.Silkscreen
6
CONTINUOUS
10
140.5550000000000068
20
-48.7650000000000006
11
140.559566999999987
21
-48.7420389999999983
0
LINE
8
F.Silkscreen
6
CONTINUOUS
10
140.559566999999987
20
-48.7420389999999983
11
140.5920389999999998
21
-48.7095669999999998
0
LINE
8
F.Silkscreen
6
CONTINUOUS
10
140.5920389999999998
20
-48.7095669999999998
11
140.6149999999999807
21
-48.7049999999999983
0
LINE
8
F.Silkscreen
6
CONTINUOUS
10
140.6149999999999807
20
-48.7049999999999983
11
140.664999999999992
21
-48.7049999999999983
0
LINE
8
F.Silkscreen
6
CONTINUOUS
10
140.664999999999992
20
-48.7049999999999983
11
140.6879610000000014
21
-48.7095669999999998
0
LINE
8
F.Silkscreen
6
CONTINUOUS
10
143.7579609999999946
20
-48.7095669999999998
11
143.7904330000000073
21
-48.7420389999999983
0
LINE
8
F.Silkscreen
6
CONTINUOUS
10
143.7904330000000073
20
-48.7420389999999983
11
143.7949999999999875
21
-48.7650000000000006
0
LINE
8
F.Silkscreen
6
CONTINUOUS
10
143.7949999999999875
20
-48.7650000000000006
11
143.7949999999999875
21
-50.5850000000000009
0
LINE
8
F.Silkscreen
6
CONTINUOUS
10
143.7949999999999875
20
-50.5850000000000009
11
143.7904330000000073
21
-50.607960999999996
0
LINE
8
F.Silkscreen
6
CONTINUOUS
10
143.7904330000000073
20
-50.607960999999996
11
143.7579609999999946
21
-50.6404329999999945
0
LINE
8
F.Silkscreen
6
CONTINUOUS
10
143.7579609999999946
20
-50.6404329999999945
11
143.7349999999999852
21
-50.644999999999996
0
LINE
8
F.Silkscreen
6
CONTINUOUS
10
143.7349999999999852
20
-50.644999999999996
11
142.7349999999999852
21
-50.644999999999996
0
LINE
8
F.Silkscreen
6
CONTINUOUS
10
142.7349999999999852
20
-50.644999999999996
11
142.7120390000000043
21
-50.6404329999999945
0
LINE
8
F.Silkscreen
6
CONTINUOUS
10
142.7120390000000043
20
-50.6404329999999945
11
142.6795669999999916
21
-50.607960999999996
0
LINE
8
F.Silkscreen
6
CONTINUOUS
10
142.6795669999999916
20
-50.607960999999996
11
142.6795669999999916
21
-50.5620389999999986
0
LINE
8
F.Silkscreen
6
CONTINUOUS
10
142.6795669999999916
20
-50.5620389999999986
11
142.7120390000000043
21
-50.5295670000000001
0
LINE
8
F.Silkscreen
6
CONTINUOUS
10
142.7120390000000043
20
-50.5295670000000001
11
142.7349999999999852
21
-50.5249999999999986
0
LINE
8
F.Silkscreen
6
CONTINUOUS
10
142.7349999999999852
20
-50.5249999999999986
11
143.6749999999999829
21
-50.5249999999999986
0
LINE
8
F.Silkscreen
6
CONTINUOUS
10
143.6749999999999829
20
-50.5249999999999986
11
143.6749999999999829
21
-48.8230099999999965
0
LINE
8
F.Silkscreen
6
CONTINUOUS
10
143.6749999999999829
20
-48.8230099999999965
11
143.6620389999999929
21
-48.8204330000000013
0
LINE
8
F.Silkscreen
6
CONTINUOUS
10
143.6620389999999929
20
-48.8204330000000013
11
143.6295669999999802
21
-48.7879609999999957
0
LINE
8
F.Silkscreen
6
CONTINUOUS
10
143.6295669999999802
20
-48.7879609999999957
11
143.6295669999999802
21
-48.7420389999999983
0
LINE
8
F.Silkscreen
6
CONTINUOUS
10
143.6295669999999802
20
-48.7420389999999983
11
143.6620389999999929
21
-48.7095669999999998
0
LINE
8
F.Silkscreen
6
CONTINUOUS
10
143.6620389999999929
20
-48.7095669999999998
11
143.6850000000000023
21
-48.7049999999999983
0
LINE
8
F.Silkscreen
6
CONTINUOUS
10
143.6850000000000023
20
-48.7049999999999983
11
143.7349999999999852
21
-48.7049999999999983
0
LINE
8
F.Silkscreen
6
CONTINUOUS
10
143.7349999999999852
20
-48.7049999999999983
11
143.7579609999999946
21
-48.7095669999999998
0
LINE
8
F.Silkscreen
6
CONTINUOUS
10
142.5879610000000071
20
-48.7095669999999998
11
142.6204329999999914
21
-48.7420389999999983
0
LINE
8
F.Silkscreen
6
CONTINUOUS
10
142.6204329999999914
20
-48.7420389999999983
11
142.6204329999999914
21
-48.7879609999999957
0
LINE
8
F.Silkscreen
6
CONTINUOUS
10
142.6204329999999914
20
-48.7879609999999957
11
142.5879610000000071
21
-48.8204330000000013
0
LINE
8
F.Silkscreen
6
CONTINUOUS
10
142.5879610000000071
20
-48.8204330000000013
11
142.5649999999999977
21
-48.8249999999999957
0
LINE
8
F.Silkscreen
6
CONTINUOUS
10
142.5649999999999977
20
-48.8249999999999957
11
141.7849999999999966
21
-48.8249999999999957
0
LINE
8
F.Silkscreen
6
CONTINUOUS
10
141.7849999999999966
20
-48.8249999999999957
11
141.7620389999999873
21
-48.8204330000000013
0
LINE
8
F.Silkscreen
6
CONTINUOUS
10
141.7620389999999873
20
-48.8204330000000013
11
141.729567000000003
21
-48.7879609999999957
0
LINE
8
F.Silkscreen
6
CONTINUOUS
10
141.729567000000003
20
-48.7879609999999957
11
141.729567000000003
21
-48.7420389999999983
0
LINE
8
F.Silkscreen
6
CONTINUOUS
10
141.729567000000003
20
-48.7420389999999983
11
141.7620389999999873
21
-48.7095669999999998
0
LINE
8
F.Silkscreen
6
CONTINUOUS
10
141.7620389999999873
20
-48.7095669999999998
11
141.7849999999999966
21
-48.7049999999999983
0
LINE
8
F.Silkscreen
6
CONTINUOUS
10
141.7849999999999966
20
-48.7049999999999983
11
142.5649999999999977
21
-48.7049999999999983
0
LINE
8
F.Silkscreen
6
CONTINUOUS
10
142.5649999999999977
20
-48.7049999999999983
11
142.5879610000000071
21
-48.7095669999999998
0
LINE
8
F.Silkscreen
6
CONTINUOUS
10
146.4807969999999955
20
-48.5545669999999987
11
146.5132689999999798
21
-48.5870389999999972
0
LINE
8
F.Silkscreen
6
CONTINUOUS
10
146.5132689999999798
20
-48.5870389999999972
11
146.5132689999999798
21
-48.6329609999999946
0
LINE
8
F.Silkscreen
6
CONTINUOUS
10
146.5132689999999798
20
-48.6329609999999946
11
146.4807969999999955
21
-48.6654330000000002
0
LINE
8
F.Silkscreen
6
CONTINUOUS
10
146.4807969999999955
20
-48.6654330000000002
11
146.4578359999999861
21
-48.6699999999999946
0
LINE
8
F.Silkscreen
6
CONTINUOUS
10
146.4578359999999861
20
-48.6699999999999946
11
146.2421640000000025
21
-48.6699999999999946
0
LINE
8
F.Silkscreen
6
CONTINUOUS
10
146.2421640000000025
20
-48.6699999999999946
11
146.2192029999999932
21
-48.6654330000000002
0
LINE
8
F.Silkscreen
6
CONTINUOUS
10
146.2192029999999932
20
-48.6654330000000002
11
146.1867309999999804
21
-48.6329609999999946
0
LINE
8
F.Silkscreen
6
CONTINUOUS
10
146.1867309999999804
20
-48.6329609999999946
11
146.1867309999999804
21
-48.5870389999999972
0
LINE
8
F.Silkscreen
6
CONTINUOUS
10
146.1867309999999804
20
-48.5870389999999972
11
146.2192029999999932
21
-48.5545669999999987
0
LINE
8
F.Silkscreen
6
CONTINUOUS
10
146.2192029999999932
20
-48.5545669999999987
11
146.2421640000000025
21
-48.5499999999999972
0
LINE
8
F.Silkscreen
6
CONTINUOUS
10
146.2421640000000025
20
-48.5499999999999972
11
146.4578359999999861
21
-48.5499999999999972
0
LINE
8
F.Silkscreen
6
CONTINUOUS
10
146.4578359999999861
20
-48.5499999999999972
11
146.4807969999999955
21
-48.5545669999999987
0
LINE
8
F.Silkscreen
6
CONTINUOUS
10
142.2602899999999977
20
-47.936475999999999
11
142.5902899999999818
21
-48.176476000000001
0
LINE
8
F.Silkscreen
6
CONTINUOUS
10
142.5902899999999818
20
-48.176476000000001
11
142.6142659999999864
21
-48.2156419999999954
0
LINE
8
F.Silkscreen
6
CONTINUOUS
10
142.6142659999999864
20
-48.2156419999999954
11
142.6035239999999931
21
-48.2602899999999977
0
LINE
8
F.Silkscreen
6
CONTINUOUS
10
142.6035239999999931
20
-48.2602899999999977
11
142.5902899999999818
21
-48.2735239999999948
0
LINE
8
F.Silkscreen
6
CONTINUOUS
10
142.5902899999999818
20
-48.2735239999999948
11
142.2602899999999977
21
-48.5135239999999968
0
LINE
8
F.Silkscreen
6
CONTINUOUS
10
142.2602899999999977
20
-48.5135239999999968
11
142.2156420000000026
21
-48.5242659999999972
0
LINE
8
F.Silkscreen
6
CONTINUOUS
10
142.2156420000000026
20
-48.5242659999999972
11
142.1764759999999796
21
-48.5002899999999997
0
LINE
8
F.Silkscreen
6
CONTINUOUS
10
142.1764759999999796
20
-48.5002899999999997
11
142.164999999999992
21
-48.4649999999999963
0
LINE
8
F.Silkscreen
6
CONTINUOUS
10
142.164999999999992
20
-48.4649999999999963
11
142.164999999999992
21
-47.9849999999999994
0
LINE
8
F.Silkscreen
6
CONTINUOUS
10
142.164999999999992
20
-47.9849999999999994
11
142.1825739999999882
21
-47.9425740000000005
0
LINE
8
F.Silkscreen
6
CONTINUOUS
10
142.1825739999999882
20
-47.9425740000000005
11
142.2249999999999943
21
-47.9249999999999972
0
LINE
8
F.Silkscreen
6
CONTINUOUS
10
142.2249999999999943
20
-47.9249999999999972
11
142.2602899999999977
21
-47.936475999999999
0
LINE
8
F.Silkscreen
6
CONTINUOUS
10
148.2959559999999897
20
-47.9179529999999971
11
148.3039069999999811
21
-47.9189559999999943
0
LINE
8
F.Silkscreen
6
CONTINUOUS
10
148.3039069999999811
20
-47.9189559999999943
11
148.3753350000000069
21
-47.9427659999999989
0
LINE
8
F.Silkscreen
6
CONTINUOUS
10
148.3753350000000069
20
-47.9427659999999989
11
148.3775100000000009
21
-47.9440059999999946
0
LINE
8
F.Silkscreen
6
CONTINUOUS
10
148.3775100000000009
20
-47.9440059999999946
11
148.378657000000004
21
-47.9440059999999946
0
LINE
8
F.Silkscreen
6
CONTINUOUS
10
148.378657000000004
20
-47.9440059999999946
11
148.3853210000000047
21
-47.9484589999999997
0
LINE
8
F.Silkscreen
6
CONTINUOUS
10
148.3853210000000047
20
-47.9484589999999997
11
148.3922829999999919
21
-47.9524279999999976
0
LINE
8
F.Silkscreen
6
CONTINUOUS
10
148.3922829999999919
20
-47.9524279999999976
11
148.3927950000000067
21
-47.9534529999999961
0
LINE
8
F.Silkscreen
6
CONTINUOUS
10
148.3927950000000067
20
-47.9534529999999961
11
148.3948780000000056
21
-47.9548449999999988
0
LINE
8
F.Silkscreen
6
CONTINUOUS
10
148.3948780000000056
20
-47.9548449999999988
11
148.442497000000003
21
-48.0024629999999988
0
LINE
8
F.Silkscreen
6
CONTINUOUS
10
148.442497000000003
20
-48.0024629999999988
11
148.4469509999999843
21
-48.0091289999999944
0
LINE
8
F.Silkscreen
6
CONTINUOUS
10
148.4469509999999843
20
-48.0091289999999944
11
148.451863000000003
21
-48.0154579999999953
0
LINE
8
F.Silkscreen
6
CONTINUOUS
10
148.451863000000003
20
-48.0154579999999953
11
148.4756730000000005
21
-48.0630769999999998
0
LINE
8
F.Silkscreen
6
CONTINUOUS
10
148.4756730000000005
20
-48.0630769999999998
11
148.4771189999999876
21
-48.0683579999999964
0
LINE
8
F.Silkscreen
6
CONTINUOUS
10
148.4771189999999876
20
-48.0683579999999964
11
148.4794589999999914
21
-48.0733109999999968
0
LINE
8
F.Silkscreen
6
CONTINUOUS
10
148.4794589999999914
20
-48.0733109999999968
11
148.5032679999999914
21
-48.1685489999999987
0
LINE
8
F.Silkscreen
6
CONTINUOUS
10
148.5032679999999914
20
-48.1685489999999987
11
148.5035649999999805
21
-48.1746659999999949
0
LINE
8
F.Silkscreen
6
CONTINUOUS
10
148.5035649999999805
20
-48.1746659999999949
11
148.504761000000002
21
-48.1806759999999983
0
LINE
8
F.Silkscreen
6
CONTINUOUS
10
148.504761000000002
20
-48.1806759999999983
11
148.504761000000002
21
-48.2521039999999957
0
LINE
8
F.Silkscreen
6
CONTINUOUS
10
148.504761000000002
20
-48.2521039999999957
11
148.5035649999999805
21
-48.2581129999999945
0
LINE
8
F.Silkscreen
6
CONTINUOUS
10
148.5035649999999805
20
-48.2581129999999945
11
148.5032679999999914
21
-48.2642309999999952
0
LINE
8
F.Silkscreen
6
CONTINUOUS
10
148.5032679999999914
20
-48.2642309999999952
11
148.4794589999999914
21
-48.3594689999999972
0
LINE
8
F.Silkscreen
6
CONTINUOUS
10
148.4794589999999914
20
-48.3594689999999972
11
148.4771189999999876
21
-48.3644210000000001
0
LINE
8
F.Silkscreen
6
CONTINUOUS
10
148.4771189999999876
20
-48.3644210000000001
11
148.4756730000000005
21
-48.3697030000000012
0
LINE
8
F.Silkscreen
6
CONTINUOUS
10
148.4756730000000005
20
-48.3697030000000012
11
148.451863000000003
21
-48.4173219999999986
0
LINE
8
F.Silkscreen
6
CONTINUOUS
10
148.451863000000003
20
-48.4173219999999986
11
148.4469509999999843
21
-48.423649999999995
0
LINE
8
F.Silkscreen
6
CONTINUOUS
10
148.4469509999999843
20
-48.423649999999995
11
148.442497000000003
21
-48.4303169999999952
0
LINE
8
F.Silkscreen
6
CONTINUOUS
10
148.442497000000003
20
-48.4303169999999952
11
148.3948780000000056
21
-48.4779349999999951
0
LINE
8
F.Silkscreen
6
CONTINUOUS
10
148.3948780000000056
20
-48.4779349999999951
11
148.3927950000000067
21
-48.4793260000000004
0
LINE
8
F.Silkscreen
6
CONTINUOUS
10
148.3927950000000067
20
-48.4793260000000004
11
148.3922829999999919
21
-48.4803519999999963
0
LINE
8
F.Silkscreen
6
CONTINUOUS
10
148.3922829999999919
20
-48.4803519999999963
11
148.3853210000000047
21
-48.4843199999999968
0
LINE
8
F.Silkscreen
6
CONTINUOUS
10
148.3853210000000047
20
-48.4843199999999968
11
148.378657000000004
21
-48.4887739999999994
0
LINE
8
F.Silkscreen
6
CONTINUOUS
10
148.378657000000004
20
-48.4887739999999994
11
148.3775100000000009
21
-48.4887739999999994
0
LINE
8
F.Silkscreen
6
CONTINUOUS
10
148.3775100000000009
20
-48.4887739999999994
11
148.3753350000000069
21
-48.4900139999999951
0
LINE
8
F.Silkscreen
6
CONTINUOUS
10
148.3753350000000069
20
-48.4900139999999951
11
148.3039069999999811
21
-48.5138239999999996
0
LINE
8
F.Silkscreen
6
CONTINUOUS
10
148.3039069999999811
20
-48.5138239999999996
11
148.2959559999999897
21
-48.5148259999999993
0
LINE
8
F.Silkscreen
6
CONTINUOUS
10
148.2959559999999897
20
-48.5148259999999993
11
148.2880949999999984
21
-48.5163900000000012
0
LINE
8
F.Silkscreen
6
CONTINUOUS
10
148.2880949999999984
20
-48.5163900000000012
11
148.2166660000000036
21
-48.5163900000000012
0
LINE
8
F.Silkscreen
6
CONTINUOUS
10
148.2166660000000036
20
-48.5163900000000012
11
148.2142089999999826
21
-48.5159009999999995
0
LINE
8
F.Silkscreen
6
CONTINUOUS
10
148.2142089999999826
20
-48.5159009999999995
11
148.213121000000001
21
-48.5162639999999996
0
LINE
8
F.Silkscreen
6
CONTINUOUS
10
148.213121000000001
20
-48.5162639999999996
11
148.2053929999999866
21
-48.5141470000000012
0
LINE
8
F.Silkscreen
6
CONTINUOUS
10
148.2053929999999866
20
-48.5141470000000012
11
148.1975319999999954
21
-48.5125839999999968
0
LINE
8
F.Silkscreen
6
CONTINUOUS
10
148.1975319999999954
20
-48.5125839999999968
11
148.1967199999999991
21
-48.5117720000000006
0
LINE
8
F.Silkscreen
6
CONTINUOUS
10
148.1967199999999991
20
-48.5117720000000006
11
148.1943049999999857
21
-48.5111109999999996
0
LINE
8
F.Silkscreen
6
CONTINUOUS
10
148.1943049999999857
20
-48.5111109999999996
11
148.1466859999999883
21
-48.4873009999999951
0
LINE
8
F.Silkscreen
6
CONTINUOUS
10
148.1466859999999883
20
-48.4873009999999951
11
148.1312739999999906
21
-48.4753399999999957
0
LINE
8
F.Silkscreen
6
CONTINUOUS
10
148.1312739999999906
20
-48.4753399999999957
11
148.1191729999999893
21
-48.439034999999997
0
LINE
8
F.Silkscreen
6
CONTINUOUS
10
148.1191729999999893
20
-48.439034999999997
11
148.1362869999999816
21
-48.4048069999999981
0
LINE
8
F.Silkscreen
6
CONTINUOUS
10
148.1362869999999816
20
-48.4048069999999981
11
148.1725919999999803
21
-48.3927059999999969
0
LINE
8
F.Silkscreen
6
CONTINUOUS
10
148.1725919999999803
20
-48.3927059999999969
11
148.1914079999999956
21
-48.3978589999999969
0
LINE
8
F.Silkscreen
6
CONTINUOUS
10
148.1914079999999956
20
-48.3978589999999969
11
148.2284689999999898
21
-48.4163899999999998
0
LINE
8
F.Silkscreen
6
CONTINUOUS
10
148.2284689999999898
20
-48.4163899999999998
11
148.2799809999999923
21
-48.4163899999999998
0
LINE
8
F.Silkscreen
6
CONTINUOUS
10
148.2799809999999923
20
-48.4163899999999998
11
148.3325140000000033
21
-48.3988779999999963
0
LINE
8
F.Silkscreen
6
CONTINUOUS
10
148.3325140000000033
20
-48.3988779999999963
11
148.3660500000000013
21
-48.3653419999999983
0
LINE
8
F.Silkscreen
6
CONTINUOUS
10
148.3660500000000013
20
-48.3653419999999983
11
148.3837749999999858
21
-48.3298899999999989
0
LINE
8
F.Silkscreen
6
CONTINUOUS
10
148.3837749999999858
20
-48.3298899999999989
11
148.4047609999999793
21
-48.245948999999996
0
LINE
8
F.Silkscreen
6
CONTINUOUS
10
148.4047609999999793
20
-48.245948999999996
11
148.4047609999999793
21
-48.1868300000000005
0
LINE
8
F.Silkscreen
6
CONTINUOUS
10
148.4047609999999793
20
-48.1868300000000005
11
148.3837749999999858
21
-48.1028889999999976
0
LINE
8
F.Silkscreen
6
CONTINUOUS
10
148.3837749999999858
20
-48.1028889999999976
11
148.3660500000000013
21
-48.0674369999999982
0
LINE
8
F.Silkscreen
6
CONTINUOUS
10
148.3660500000000013
20
-48.0674369999999982
11
148.3325140000000033
21
-48.0339010000000002
0
LINE
8
F.Silkscreen
6
CONTINUOUS
10
148.3325140000000033
20
-48.0339010000000002
11
148.2799809999999923
21
-48.0163900000000012
0
LINE
8
F.Silkscreen
6
CONTINUOUS
10
148.2799809999999923
20
-48.0163900000000012
11
148.2485900000000072
21
-48.0163900000000012
0
LINE
8
F.Silkscreen
6
CONTINUOUS
10
148.2485900000000072
20
-48.0163900000000012
11
148.1960550000000012
21
-48.0339010000000002
0
LINE
8
F.Silkscreen
6
CONTINUOUS
10
148.1960550000000012
20
-48.0339010000000002
11
148.1952379999999891
21
-48.0347189999999955
0
LINE
8
F.Silkscreen
6
CONTINUOUS
10
148.1952379999999891
20
-48.0347189999999955
11
148.1952379999999891
21
-48.1306760000000011
0
LINE
8
F.Silkscreen
6
CONTINUOUS
10
148.1952379999999891
20
-48.1306760000000011
11
148.240476000000001
21
-48.1306760000000011
0
LINE
8
F.Silkscreen
6
CONTINUOUS
10
148.240476000000001
20
-48.1306760000000011
11
148.2596099999999808
21
-48.1344819999999984
0
LINE
8
F.Silkscreen
6
CONTINUOUS
10
148.2596099999999808
20
-48.1344819999999984
11
148.2866699999999867
21
-48.1615419999999972
0
LINE
8
F.Silkscreen
6
CONTINUOUS
10
148.2866699999999867
20
-48.1615419999999972
11
148.2866699999999867
21
-48.1998099999999994
0
LINE
8
F.Silkscreen
6
CONTINUOUS
10
148.2866699999999867
20
-48.1998099999999994
11
148.2596099999999808
21
-48.2268699999999981
0
LINE
8
F.Silkscreen
6
CONTINUOUS
10
148.2596099999999808
20
-48.2268699999999981
11
148.240476000000001
21
-48.2306759999999954
0
LINE
8
F.Silkscreen
6
CONTINUOUS
10
148.240476000000001
20
-48.2306759999999954
11
148.1452380000000062
21
-48.2306759999999954
0
LINE
8
F.Silkscreen
6
CONTINUOUS
10
148.1452380000000062
20
-48.2306759999999954
11
148.126103999999998
21
-48.2268699999999981
0
LINE
8
F.Silkscreen
6
CONTINUOUS
10
148.126103999999998
20
-48.2268699999999981
11
148.0990439999999921
21
-48.1998099999999994
0
LINE
8
F.Silkscreen
6
CONTINUOUS
10
148.0990439999999921
20
-48.1998099999999994
11
148.0952379999999948
21
-48.1806759999999983
0
LINE
8
F.Silkscreen
6
CONTINUOUS
10
148.0952379999999948
20
-48.1806759999999983
11
148.0952379999999948
21
-48.0140089999999944
0
LINE
8
F.Silkscreen
6
CONTINUOUS
10
148.0952379999999948
20
-48.0140089999999944
11
148.0990439999999921
21
-47.9948750000000004
0
LINE
8
F.Silkscreen
6
CONTINUOUS
10
148.0990439999999921
20
-47.9948750000000004
11
148.1098829999999964
21
-47.9786539999999988
0
LINE
8
F.Silkscreen
6
CONTINUOUS
10
148.1098829999999964
20
-47.9786539999999988
11
148.1336919999999964
21
-47.9548449999999988
0
LINE
8
F.Silkscreen
6
CONTINUOUS
10
148.1336919999999964
20
-47.9548449999999988
11
148.1357730000000004
21
-47.9534540000000007
0
LINE
8
F.Silkscreen
6
CONTINUOUS
10
148.1357730000000004
20
-47.9534540000000007
11
148.1362869999999816
21
-47.9524270000000001
0
LINE
8
F.Silkscreen
6
CONTINUOUS
10
148.1362869999999816
20
-47.9524270000000001
11
148.1432539999999847
21
-47.9484549999999956
0
LINE
8
F.Silkscreen
6
CONTINUOUS
10
148.1432539999999847
20
-47.9484549999999956
11
148.149912999999998
21
-47.9440059999999946
0
LINE
8
F.Silkscreen
6
CONTINUOUS
10
148.149912999999998
20
-47.9440059999999946
11
148.1510600000000011
21
-47.9440059999999946
0
LINE
8
F.Silkscreen
6
CONTINUOUS
10
148.1510600000000011
20
-47.9440059999999946
11
148.1532349999999951
21
-47.9427659999999989
0
LINE
8
F.Silkscreen
6
CONTINUOUS
10
148.1532349999999951
20
-47.9427659999999989
11
148.2246649999999875
21
-47.9189559999999943
0
LINE
8
F.Silkscreen
6
CONTINUOUS
10
148.2246649999999875
20
-47.9189559999999943
11
148.2326129999999864
21
-47.9179529999999971
0
LINE
8
F.Silkscreen
6
CONTINUOUS
10
148.2326129999999864
20
-47.9179529999999971
11
148.240476000000001
21
-47.9163899999999998
0
LINE
8
F.Silkscreen
6
CONTINUOUS
10
148.240476000000001
20
-47.9163899999999998
11
148.2880949999999984
21
-47.9163899999999998
0
LINE
8
F.Silkscreen
6
CONTINUOUS
10
148.2880949999999984
20
-47.9163899999999998
11
148.2959559999999897
21
-47.9179529999999971
0
LINE
8
F.Silkscreen
6
CONTINUOUS
10
146.4807969999999955
20
-47.8345669999999998
11
146.5132689999999798
21
-47.8670389999999983
0
LINE
8
F.Silkscreen
6
CONTINUOUS
10
146.5132689999999798
20
-47.8670389999999983
11
146.5132689999999798
21
-47.9129609999999957
0
LINE
8
F.Silkscreen
6
CONTINUOUS
10
146.5132689999999798
20
-47.9129609999999957
11
146.4807969999999955
21
-47.9454330000000013
0
LINE
8
F.Silkscreen
6
CONTINUOUS
10
146.4807969999999955
20
-47.9454330000000013
11
146.4578359999999861
21
-47.9499999999999957
0
LINE
8
F.Silkscreen
6
CONTINUOUS
10
146.4578359999999861
20
-47.9499999999999957
11
146.2421640000000025
21
-47.9499999999999957
0
LINE
8
F.Silkscreen
6
CONTINUOUS
10
146.2421640000000025
20
-47.9499999999999957
11
146.2192029999999932
21
-47.9454330000000013
0
LINE
8
F.Silkscreen
6
CONTINUOUS
10
146.2192029999999932
20
-47.9454330000000013
11
146.1867309999999804
21
-47.9129609999999957
0
LINE
8
F.Silkscreen
6
CONTINUOUS
10
146.1867309999999804
20
-47.9129609999999957
11
146.1867309999999804
21
-47.8670389999999983
0
LINE
8
F.Silkscreen
6
CONTINUOUS
10
146.1867309999999804
20
-47.8670389999999983
11
146.2192029999999932
21
-47.8345669999999998
0
LINE
8
F.Silkscreen
6
CONTINUOUS
10
146.2192029999999932
20
-47.8345669999999998
11
146.2421640000000025
21
-47.8299999999999983
0
LINE
8
F.Silkscreen
6
CONTINUOUS
10
146.2421640000000025
20
-47.8299999999999983
11
146.4578359999999861
21
-47.8299999999999983
0
LINE
8
F.Silkscreen
6
CONTINUOUS
10
146.4578359999999861
20
-47.8299999999999983
11
146.4807969999999955
21
-47.8345669999999998
0
LINE
8
F.Silkscreen
6
CONTINUOUS
10
141.7607969999999966
20
-47.4545669999999973
11
141.7932689999999809
21
-47.4870389999999958
0
LINE
8
F.Silkscreen
6
CONTINUOUS
10
141.7932689999999809
20
-47.4870389999999958
11
141.7932689999999809
21
-47.5329610000000002
0
LINE
8
F.Silkscreen
6
CONTINUOUS
10
141.7932689999999809
20
-47.5329610000000002
11
141.7607969999999966
21
-47.5654329999999987
0
LINE
8
F.Silkscreen
6
CONTINUOUS
10
141.7607969999999966
20
-47.5654329999999987
11
141.7378359999999873
21
-47.5700000000000003
0
LINE
8
F.Silkscreen
6
CONTINUOUS
10
141.7378359999999873
20
-47.5700000000000003
11
141.5221640000000036
21
-47.5700000000000003
0
LINE
8
F.Silkscreen
6
CONTINUOUS
10
141.5221640000000036
20
-47.5700000000000003
11
141.4992029999999943
21
-47.5654329999999987
0
LINE
8
F.Silkscreen
6
CONTINUOUS
10
141.4992029999999943
20
-47.5654329999999987
11
141.4667309999999816
21
-47.5329610000000002
0
LINE
8
F.Silkscreen
6
CONTINUOUS
10
141.4667309999999816
20
-47.5329610000000002
11
141.4667309999999816
21
-47.4870389999999958
0
LINE
8
F.Silkscreen
6
CONTINUOUS
10
141.4667309999999816
20
-47.4870389999999958
11
141.4992029999999943
21
-47.4545669999999973
0
LINE
8
F.Silkscreen
6
CONTINUOUS
10
141.4992029999999943
20
-47.4545669999999973
11
141.5221640000000036
21
-47.4499999999999957
0
LINE
8
F.Silkscreen
6
CONTINUOUS
10
141.5221640000000036
20
-47.4499999999999957
11
141.7378359999999873
21
-47.4499999999999957
0
LINE
8
F.Silkscreen
6
CONTINUOUS
10
141.7378359999999873
20
-47.4499999999999957
11
141.7607969999999966
21
-47.4545669999999973
0
LINE
8
F.Silkscreen
6
CONTINUOUS
10
143.4354329999999891
20
-46.8020390000000006
11
143.4399999999999977
21
-46.8249999999999957
0
LINE
8
F.Silkscreen
6
CONTINUOUS
10
143.4399999999999977
20
-46.8249999999999957
11
143.4399999999999977
21
-47.2149999999999963
0
LINE
8
F.Silkscreen
6
CONTINUOUS
10
143.4399999999999977
20
-47.2149999999999963
11
143.8299999999999841
21
-47.2149999999999963
0
LINE
8
F.Silkscreen
6
CONTINUOUS
10
143.8299999999999841
20
-47.2149999999999963
11
143.8529609999999934
21
-47.2195669999999978
0
LINE
8
F.Silkscreen
6
CONTINUOUS
10
143.8529609999999934
20
-47.2195669999999978
11
143.8854330000000061
21
-47.2520389999999963
0
LINE
8
F.Silkscreen
6
CONTINUOUS
10
143.8854330000000061
20
-47.2520389999999963
11
143.8854330000000061
21
-47.2979610000000008
0
LINE
8
F.Silkscreen
6
CONTINUOUS
10
143.8854330000000061
20
-47.2979610000000008
11
143.8529609999999934
21
-47.3304329999999993
0
LINE
8
F.Silkscreen
6
CONTINUOUS
10
143.8529609999999934
20
-47.3304329999999993
11
143.8299999999999841
21
-47.3350000000000009
0
LINE
8
F.Silkscreen
6
CONTINUOUS
10
143.8299999999999841
20
-47.3350000000000009
11
143.3799999999999955
21
-47.3350000000000009
0
LINE
8
F.Silkscreen
6
CONTINUOUS
10
143.3799999999999955
20
-47.3350000000000009
11
143.3570389999999861
21
-47.3304329999999993
0
LINE
8
F.Silkscreen
6
CONTINUOUS
10
143.3570389999999861
20
-47.3304329999999993
11
143.3245670000000018
21
-47.2979610000000008
0
LINE
8
F.Silkscreen
6
CONTINUOUS
10
143.3245670000000018
20
-47.2979610000000008
11
143.3199999999999932
21
-47.2749999999999986
0
LINE
8
F.Silkscreen
6
CONTINUOUS
10
143.3199999999999932
20
-47.2749999999999986
11
143.3199999999999932
21
-46.8249999999999957
0
LINE
8
F.Silkscreen
6
CONTINUOUS
10
143.3199999999999932
20
-46.8249999999999957
11
143.3245670000000018
21
-46.8020390000000006
0
LINE
8
F.Silkscreen
6
CONTINUOUS
10
143.3245670000000018
20
-46.8020390000000006
11
143.3570389999999861
21
-46.769566999999995
0
LINE
8
F.Silkscreen
6
CONTINUOUS
10
143.3570389999999861
20
-46.769566999999995
11
143.4029610000000048
21
-46.769566999999995
0
LINE
8
F.Silkscreen
6
CONTINUOUS
10
143.4029610000000048
20
-46.769566999999995
11
143.4354329999999891
21
-46.8020390000000006
0
LINE
8
F.Silkscreen
6
CONTINUOUS
10
146.6554329999999879
20
-46.8020390000000006
11
146.6599999999999966
21
-46.8249999999999957
0
LINE
8
F.Silkscreen
6
CONTINUOUS
10
146.6599999999999966
20
-46.8249999999999957
11
146.6599999999999966
21
-47.2749999999999986
0
LINE
8
F.Silkscreen
6
CONTINUOUS
10
146.6599999999999966
20
-47.2749999999999986
11
146.6554329999999879
21
-47.2979610000000008
0
LINE
8
F.Silkscreen
6
CONTINUOUS
10
146.6554329999999879
20
-47.2979610000000008
11
146.6229610000000037
21
-47.3304329999999993
0
LINE
8
F.Silkscreen
6
CONTINUOUS
10
146.6229610000000037
20
-47.3304329999999993
11
146.5999999999999943
21
-47.3350000000000009
0
LINE
8
F.Silkscreen
6
CONTINUOUS
10
146.5999999999999943
20
-47.3350000000000009
11
146.1500000000000057
21
-47.3350000000000009
0
LINE
8
F.Silkscreen
6
CONTINUOUS
10
146.1500000000000057
20
-47.3350000000000009
11
146.1270389999999963
21
-47.3304329999999993
0
LINE
8
F.Silkscreen
6
CONTINUOUS
10
146.1270389999999963
20
-47.3304329999999993
11
146.0945669999999836
21
-47.2979610000000008
0
LINE
8
F.Silkscreen
6
CONTINUOUS
10
146.0945669999999836
20
-47.2979610000000008
11
146.0945669999999836
21
-47.2520389999999963
0
LINE
8
F.Silkscreen
6
CONTINUOUS
10
146.0945669999999836
20
-47.2520389999999963
11
146.1270389999999963
21
-47.2195669999999978
0
LINE
8
F.Silkscreen
6
CONTINUOUS
10
146.1270389999999963
20
-47.2195669999999978
11
146.1500000000000057
21
-47.2149999999999963
0
LINE
8
F.Silkscreen
6
CONTINUOUS
10
146.1500000000000057
20
-47.2149999999999963
11
146.539999999999992
21
-47.2149999999999963
0
LINE
8
F.Silkscreen
6
CONTINUOUS
10
146.539999999999992
20
-47.2149999999999963
11
146.539999999999992
21
-46.8249999999999957
0
LINE
8
F.Silkscreen
6
CONTINUOUS
10
146.539999999999992
20
-46.8249999999999957
11
146.5445670000000007
21
-46.8020390000000006
0
LINE
8
F.Silkscreen
6
CONTINUOUS
10
146.5445670000000007
20
-46.8020390000000006
11
146.577038999999985
21
-46.769566999999995
0
LINE
8
F.Silkscreen
6
CONTINUOUS
10
146.577038999999985
20
-46.769566999999995
11
146.6229610000000037
21
-46.769566999999995
0
LINE
8
F.Silkscreen
6
CONTINUOUS
10
146.6229610000000037
20
-46.769566999999995
11
146.6554329999999879
21
-46.8020390000000006
0
LINE
8
F.Silkscreen
6
CONTINUOUS
10
148.9556900000000041
20
-46.3361169999999944
11
148.9728039999999964
21
-46.3703459999999978
0
LINE
8
F.Silkscreen
6
CONTINUOUS
10
148.9728039999999964
20
-46.3703459999999978
11
148.9703639999999893
21
-46.3897009999999952
0
LINE
8
F.Silkscreen
6
CONTINUOUS
10
148.9703639999999893
20
-46.3897009999999952
11
148.8036979999999971
21
-46.8897009999999952
0
LINE
8
F.Silkscreen
6
CONTINUOUS
10
148.8036979999999971
20
-46.8897009999999952
11
148.794037000000003
21
-46.9066499999999991
0
LINE
8
F.Silkscreen
6
CONTINUOUS
10
148.794037000000003
20
-46.9066499999999991
11
148.790694000000002
21
-46.9083210000000008
0
LINE
8
F.Silkscreen
6
CONTINUOUS
10
148.790694000000002
20
-46.9083210000000008
11
148.7890239999999835
21
-46.9116619999999998
0
LINE
8
F.Silkscreen
6
CONTINUOUS
10
148.7890239999999835
20
-46.9116619999999998
11
148.7739870000000053
21
-46.9166740000000004
0
LINE
8
F.Silkscreen
6
CONTINUOUS
10
148.7739870000000053
20
-46.9166740000000004
11
148.7598079999999925
21
-46.9237639999999985
0
LINE
8
F.Silkscreen
6
CONTINUOUS
10
148.7598079999999925
20
-46.9237639999999985
11
148.7562629999999899
21
-46.9225819999999985
0
LINE
8
F.Silkscreen
6
CONTINUOUS
10
148.7562629999999899
20
-46.9225819999999985
11
148.7527199999999823
21
-46.9237639999999985
0
LINE
8
F.Silkscreen
6
CONTINUOUS
10
148.7527199999999823
20
-46.9237639999999985
11
148.7385429999999928
21
-46.9166759999999954
0
LINE
8
F.Silkscreen
6
CONTINUOUS
10
148.7385429999999928
20
-46.9166759999999954
11
148.7235039999999913
21
-46.9116629999999972
0
LINE
8
F.Silkscreen
6
CONTINUOUS
10
148.7235039999999913
20
-46.9116629999999972
11
148.7218330000000037
21
-46.9083199999999962
0
LINE
8
F.Silkscreen
6
CONTINUOUS
10
148.7218330000000037
20
-46.9083199999999962
11
148.7184910000000002
21
-46.9066499999999991
0
LINE
8
F.Silkscreen
6
CONTINUOUS
10
148.7184910000000002
20
-46.9066499999999991
11
148.7088300000000061
21
-46.8897009999999952
0
LINE
8
F.Silkscreen
6
CONTINUOUS
10
148.7088300000000061
20
-46.8897009999999952
11
148.542162999999988
21
-46.3897009999999952
0
LINE
8
F.Silkscreen
6
CONTINUOUS
10
148.542162999999988
20
-46.3897009999999952
11
148.5397229999999809
21
-46.3703459999999978
0
LINE
8
F.Silkscreen
6
CONTINUOUS
10
148.5397229999999809
20
-46.3703459999999978
11
148.5568370000000016
21
-46.3361169999999944
0
LINE
8
F.Silkscreen
6
CONTINUOUS
10
148.5568370000000016
20
-46.3361169999999944
11
148.5931410000000028
21
-46.3240160000000003
0
LINE
8
F.Silkscreen
6
CONTINUOUS
10
148.5931410000000028
20
-46.3240160000000003
11
148.6273699999999849
21
-46.3411299999999997
0
LINE
8
F.Silkscreen
6
CONTINUOUS
10
148.6273699999999849
20
-46.3411299999999997
11
148.6370310000000075
21
-46.3580789999999965
0
LINE
8
F.Silkscreen
6
CONTINUOUS
10
148.6370310000000075
20
-46.3580789999999965
11
148.6732539999999858
21
-46.466746999999998
0
LINE
8
F.Silkscreen
6
CONTINUOUS
10
148.6732539999999858
20
-46.466746999999998
11
148.8392729999999915
21
-46.466746999999998
0
LINE
8
F.Silkscreen
6
CONTINUOUS
10
148.8392729999999915
20
-46.466746999999998
11
148.8754959999999983
21
-46.3580789999999965
0
LINE
8
F.Silkscreen
6
CONTINUOUS
10
148.8754959999999983
20
-46.3580789999999965
11
148.8851569999999924
21
-46.3411299999999997
0
LINE
8
F.Silkscreen
6
CONTINUOUS
10
148.8851569999999924
20
-46.3411299999999997
11
148.9193860000000029
21
-46.3240160000000003
0
LINE
8
F.Silkscreen
6
CONTINUOUS
10
148.9193860000000029
20
-46.3240160000000003
11
148.9556900000000041
21
-46.3361169999999944
0
LINE
8
F.Silkscreen
6
CONTINUOUS
10
148.7562629999999899
20
-46.7157759999999982
11
148.8059399999999926
21
-46.5667469999999994
0
LINE
8
F.Silkscreen
6
CONTINUOUS
10
148.8059399999999926
20
-46.5667469999999994
11
148.7065869999999848
21
-46.5667469999999994
0
LINE
8
F.Silkscreen
6
CONTINUOUS
10
148.7065869999999848
20
-46.5667469999999994
11
148.7562629999999899
21
-46.7157759999999982
0
LINE
8
F.Silkscreen
6
CONTINUOUS
10
148.4658739999999852
20
-46.327695999999996
11
148.4929339999999911
21
-46.3547559999999947
0
LINE
8
F.Silkscreen
6
CONTINUOUS
10
148.4929339999999911
20
-46.3547559999999947
11
148.4929339999999911
21
-46.3930239999999969
0
LINE
8
F.Silkscreen
6
CONTINUOUS
10
148.4929339999999911
20
-46.3930239999999969
11
148.4658739999999852
21
-46.4200839999999957
0
LINE
8
F.Silkscreen
6
CONTINUOUS
10
148.4658739999999852
20
-46.4200839999999957
11
148.4467400000000055
21
-46.4238900000000001
0
LINE
8
F.Silkscreen
6
CONTINUOUS
10
148.4467400000000055
20
-46.4238900000000001
11
148.3538829999999962
21
-46.4238900000000001
0
LINE
8
F.Silkscreen
6
CONTINUOUS
10
148.3538829999999962
20
-46.4238900000000001
11
148.3538829999999962
21
-46.7293689999999984
0
LINE
8
F.Silkscreen
6
CONTINUOUS
10
148.3538829999999962
20
-46.7293689999999984
11
148.3637650000000008
21
-46.7194870000000009
0
LINE
8
F.Silkscreen
6
CONTINUOUS
10
148.3637650000000008
20
-46.7194870000000009
11
148.3704290000000015
21
-46.7150329999999983
0
LINE
8
F.Silkscreen
6
CONTINUOUS
10
148.3704290000000015
20
-46.7150329999999983
11
148.3767609999999877
21
-46.7101199999999963
0
LINE
8
F.Silkscreen
6
CONTINUOUS
10
148.3767609999999877
20
-46.7101199999999963
11
148.4243789999999876
21
-46.6863120000000009
0
LINE
8
F.Silkscreen
6
CONTINUOUS
10
148.4243789999999876
20
-46.6863120000000009
11
148.4431950000000029
21
-46.681159000000001
0
LINE
8
F.Silkscreen
6
CONTINUOUS
10
148.4431950000000029
20
-46.681159000000001
11
148.4795000000000016
21
-46.6932609999999997
0
LINE
8
F.Silkscreen
6
CONTINUOUS
10
148.4795000000000016
20
-46.6932609999999997
11
148.4966139999999939
21
-46.7274889999999985
0
LINE
8
F.Silkscreen
6
CONTINUOUS
10
148.4966139999999939
20
-46.7274889999999985
11
148.4845119999999952
21
-46.7637939999999972
0
LINE
8
F.Silkscreen
6
CONTINUOUS
10
148.4845119999999952
20
-46.7637939999999972
11
148.4690999999999974
21
-46.7757549999999966
0
LINE
8
F.Silkscreen
6
CONTINUOUS
10
148.4690999999999974
20
-46.7757549999999966
11
148.4287379999999814
21
-46.7959350000000001
0
LINE
8
F.Silkscreen
6
CONTINUOUS
10
148.4287379999999814
20
-46.7959350000000001
11
148.3903599999999869
21
-46.8343119999999971
0
LINE
8
F.Silkscreen
6
CONTINUOUS
10
148.3903599999999869
20
-46.8343119999999971
11
148.345485999999994
21
-46.9016249999999957
0
LINE
8
F.Silkscreen
6
CONTINUOUS
10
148.345485999999994
20
-46.9016249999999957
11
148.3317049999999995
21
-46.9154339999999976
0
LINE
8
F.Silkscreen
6
CONTINUOUS
10
148.3317049999999995
20
-46.9154339999999976
11
148.3266569999999831
21
-46.916443000000001
0
LINE
8
F.Silkscreen
6
CONTINUOUS
10
148.3266569999999831
20
-46.916443000000001
11
148.323016999999993
21
-46.9200839999999957
0
LINE
8
F.Silkscreen
6
CONTINUOUS
10
148.323016999999993
20
-46.9200839999999957
11
148.3084549999999808
21
-46.9200839999999957
0
LINE
8
F.Silkscreen
6
CONTINUOUS
10
148.3084549999999808
20
-46.9200839999999957
11
148.294179999999983
21
-46.9229389999999995
0
LINE
8
F.Silkscreen
6
CONTINUOUS
10
148.294179999999983
20
-46.9229389999999995
11
148.2898969999999963
21
-46.9200839999999957
0
LINE
8
F.Silkscreen
6
CONTINUOUS
10
148.2898969999999963
20
-46.9200839999999957
11
148.284749000000005
21
-46.9200839999999957
0
LINE
8
F.Silkscreen
6
CONTINUOUS
10
148.284749000000005
20
-46.9200839999999957
11
148.2744519999999966
21
-46.9097869999999944
0
LINE
8
F.Silkscreen
6
CONTINUOUS
10
148.2744519999999966
20
-46.9097869999999944
11
148.2623389999999972
21
-46.9017119999999963
0
LINE
8
F.Silkscreen
6
CONTINUOUS
10
148.2623389999999972
20
-46.9017119999999963
11
148.2613289999999893
21
-46.8966640000000012
0
LINE
8
F.Silkscreen
6
CONTINUOUS
10
148.2613289999999893
20
-46.8966640000000012
11
148.2576889999999992
21
-46.8930239999999969
0
LINE
8
F.Silkscreen
6
CONTINUOUS
10
148.2576889999999992
20
-46.8930239999999969
11
148.2538830000000019
21
-46.8738899999999958
0
LINE
8
F.Silkscreen
6
CONTINUOUS
10
148.2538830000000019
20
-46.8738899999999958
11
148.2538830000000019
21
-46.4238900000000001
0
LINE
8
F.Silkscreen
6
CONTINUOUS
10
148.2538830000000019
20
-46.4238900000000001
11
148.1610259999999926
21
-46.4238900000000001
0
LINE
8
F.Silkscreen
6
CONTINUOUS
10
148.1610259999999926
20
-46.4238900000000001
11
148.1418919999999844
21
-46.4200839999999957
0
LINE
8
F.Silkscreen
6
CONTINUOUS
10
148.1418919999999844
20
-46.4200839999999957
11
148.1148320000000069
21
-46.3930239999999969
0
LINE
8
F.Silkscreen
6
CONTINUOUS
10
148.1148320000000069
20
-46.3930239999999969
11
148.1148320000000069
21
-46.3547559999999947
0
LINE
8
F.Silkscreen
6
CONTINUOUS
10
148.1148320000000069
20
-46.3547559999999947
11
148.1418919999999844
21
-46.327695999999996
0
LINE
8
F.Silkscreen
6
CONTINUOUS
10
148.1418919999999844
20
-46.327695999999996
11
148.1610259999999926
21
-46.3238899999999987
0
LINE
8
F.Silkscreen
6
CONTINUOUS
10
148.1610259999999926
20
-46.3238899999999987
11
148.4467400000000055
21
-46.3238899999999987
0
LINE
8
F.Silkscreen
6
CONTINUOUS
10
148.4467400000000055
20
-46.3238899999999987
11
148.4658739999999852
21
-46.327695999999996
0
LINE
8
F.Silkscreen
6
CONTINUOUS
10
141.7607969999999966
20
-46.7345669999999984
11
141.7932689999999809
21
-46.7670389999999969
0
LINE
8
F.Silkscreen
6
CONTINUOUS
10
141.7932689999999809
20
-46.7670389999999969
11
141.7932689999999809
21
-46.8129610000000014
0
LINE
8
F.Silkscreen
6
CONTINUOUS
10
141.7932689999999809
20
-46.8129610000000014
11
141.7607969999999966
21
-46.8454329999999999
0
LINE
8
F.Silkscreen
6
CONTINUOUS
10
141.7607969999999966
20
-46.8454329999999999
11
141.7378359999999873
21
-46.8500000000000014
0
LINE
8
F.Silkscreen
6
CONTINUOUS
10
141.7378359999999873
20
-46.8500000000000014
11
141.5221640000000036
21
-46.8500000000000014
0
LINE
8
F.Silkscreen
6
CONTINUOUS
10
141.5221640000000036
20
-46.8500000000000014
11
141.4992029999999943
21
-46.8454329999999999
0
LINE
8
F.Silkscreen
6
CONTINUOUS
10
141.4992029999999943
20
-46.8454329999999999
11
141.4667309999999816
21
-46.8129610000000014
0
LINE
8
F.Silkscreen
6
CONTINUOUS
10
141.4667309999999816
20
-46.8129610000000014
11
141.4667309999999816
21
-46.7670389999999969
0
LINE
8
F.Silkscreen
6
CONTINUOUS
10
141.4667309999999816
20
-46.7670389999999969
11
141.4992029999999943
21
-46.7345669999999984
0
LINE
8
F.Silkscreen
6
CONTINUOUS
10
141.4992029999999943
20
-46.7345669999999984
11
141.5221640000000036
21
-46.7299999999999969
0
LINE
8
F.Silkscreen
6
CONTINUOUS
10
141.5221640000000036
20
-46.7299999999999969
11
141.7378359999999873
21
-46.7299999999999969
0
LINE
8
F.Silkscreen
6
CONTINUOUS
10
141.7378359999999873
20
-46.7299999999999969
11
141.7607969999999966
21
-46.7345669999999984
0
LINE
8
F.Silkscreen
6
CONTINUOUS
10
147.5085239999999942
20
-46.189709999999998
11
147.5199999999999818
21
-46.2250000000000014
0
LINE
8
F.Silkscreen
6
CONTINUOUS
10
147.5199999999999818
20
-46.2250000000000014
11
147.5199999999999818
21
-46.7049999999999983
0
LINE
8
F.Silkscreen
6
CONTINUOUS
10
147.5199999999999818
20
-46.7049999999999983
11
147.5024259999999856
21
-46.7474259999999973
0
LINE
8
F.Silkscreen
6
CONTINUOUS
10
147.5024259999999856
20
-46.7474259999999973
11
147.4599999999999795
21
-46.7650000000000006
0
LINE
8
F.Silkscreen
6
CONTINUOUS
10
147.4599999999999795
20
-46.7650000000000006
11
147.4247100000000046
21
-46.7535239999999988
0
LINE
8
F.Silkscreen
6
CONTINUOUS
10
147.4247100000000046
20
-46.7535239999999988
11
147.0947099999999921
21
-46.5135239999999968
0
LINE
8
F.Silkscreen
6
CONTINUOUS
10
147.0947099999999921
20
-46.5135239999999968
11
147.0707339999999874
21
-46.4743579999999952
0
LINE
8
F.Silkscreen
6
CONTINUOUS
10
147.0707339999999874
20
-46.4743579999999952
11
147.0814759999999808
21
-46.42971
0
LINE
8
F.Silkscreen
6
CONTINUOUS
10
147.0814759999999808
20
-46.42971
11
147.0947099999999921
21
-46.4164759999999958
0
LINE
8
F.Silkscreen
6
CONTINUOUS
10
147.0947099999999921
20
-46.4164759999999958
11
147.4247100000000046
21
-46.176476000000001
0
LINE
8
F.Silkscreen
6
CONTINUOUS
10
147.4247100000000046
20
-46.176476000000001
11
147.4693579999999997
21
-46.1657340000000005
0
LINE
8
F.Silkscreen
6
CONTINUOUS
10
147.4693579999999997
20
-46.1657340000000005
11
147.5085239999999942
21
-46.189709999999998
0
LINE
8
F.Silkscreen
6
CONTINUOUS
10
141.3876190000000008
20
-45.7943779999999947
11
141.3887079999999798
21
-45.7940159999999992
0
LINE
8
F.Silkscreen
6
CONTINUOUS
10
141.3887079999999798
20
-45.7940159999999992
11
141.3964349999999968
21
-45.7961320000000001
0
LINE
8
F.Silkscreen
6
CONTINUOUS
10
141.3964349999999968
20
-45.7961320000000001
11
141.4042969999999855
21
-45.7976959999999949
0
LINE
8
F.Silkscreen
6
CONTINUOUS
10
141.4042969999999855
20
-45.7976959999999949
11
141.4051079999999843
21
-45.7985070000000007
0
LINE
8
F.Silkscreen
6
CONTINUOUS
10
141.4051079999999843
20
-45.7985070000000007
11
141.4075239999999951
21
-45.7991689999999991
0
LINE
8
F.Silkscreen
6
CONTINUOUS
10
141.4075239999999951
20
-45.7991689999999991
11
141.4551429999999925
21
-45.8229789999999966
0
LINE
8
F.Silkscreen
6
CONTINUOUS
10
141.4551429999999925
20
-45.8229789999999966
11
141.4614739999999813
21
-45.8278919999999985
0
LINE
8
F.Silkscreen
6
CONTINUOUS
10
141.4614739999999813
20
-45.8278919999999985
11
141.4681369999999845
21
-45.8323439999999991
0
LINE
8
F.Silkscreen
6
CONTINUOUS
10
141.4681369999999845
20
-45.8323439999999991
11
141.4919469999999819
21
-45.8561529999999991
0
LINE
8
F.Silkscreen
6
CONTINUOUS
10
141.4919469999999819
20
-45.8561529999999991
11
141.4963999999999942
21
-45.8628169999999997
0
LINE
8
F.Silkscreen
6
CONTINUOUS
10
141.4963999999999942
20
-45.8628169999999997
11
141.5013139999999794
21
-45.8691490000000002
0
LINE
8
F.Silkscreen
6
CONTINUOUS
10
141.5013139999999794
20
-45.8691490000000002
11
141.5251219999999819
21
-45.9167670000000001
0
LINE
8
F.Silkscreen
6
CONTINUOUS
10
141.5251219999999819
20
-45.9167670000000001
11
141.5257829999999899
21
-45.9191819999999993
0
LINE
8
F.Silkscreen
6
CONTINUOUS
10
141.5257829999999899
20
-45.9191819999999993
11
141.5265949999999862
21
-45.9199939999999955
0
LINE
8
F.Silkscreen
6
CONTINUOUS
10
141.5265949999999862
20
-45.9199939999999955
11
141.5281579999999906
21
-45.927855000000001
0
LINE
8
F.Silkscreen
6
CONTINUOUS
10
141.5281579999999906
20
-45.927855000000001
11
141.5302749999999889
21
-45.9355830000000012
0
LINE
8
F.Silkscreen
6
CONTINUOUS
10
141.5302749999999889
20
-45.9355830000000012
11
141.5299119999999959
21
-45.9366709999999969
0
LINE
8
F.Silkscreen
6
CONTINUOUS
10
141.5299119999999959
20
-45.9366709999999969
11
141.5304009999999835
21
-45.9391279999999966
0
LINE
8
F.Silkscreen
6
CONTINUOUS
10
141.5304009999999835
20
-45.9391279999999966
11
141.5304009999999835
21
-46.0343659999999986
0
LINE
8
F.Silkscreen
6
CONTINUOUS
10
141.5304009999999835
20
-46.0343659999999986
11
141.5299119999999959
21
-46.0368220000000008
0
LINE
8
F.Silkscreen
6
CONTINUOUS
10
141.5299119999999959
20
-46.0368220000000008
11
141.5302749999999889
21
-46.0379110000000011
0
LINE
8
F.Silkscreen
6
CONTINUOUS
10
141.5302749999999889
20
-46.0379110000000011
11
141.5281579999999906
21
-46.0456379999999967
0
LINE
8
F.Silkscreen
6
CONTINUOUS
10
141.5281579999999906
20
-46.0456379999999967
11
141.5265949999999862
21
-46.0534999999999997
0
LINE
8
F.Silkscreen
6
CONTINUOUS
10
141.5265949999999862
20
-46.0534999999999997
11
141.5257829999999899
21
-46.0543109999999984
0
LINE
8
F.Silkscreen
6
CONTINUOUS
10
141.5257829999999899
20
-46.0543109999999984
11
141.5251219999999819
21
-46.0567269999999951
0
LINE
8
F.Silkscreen
6
CONTINUOUS
10
141.5251219999999819
20
-46.0567269999999951
11
141.5013139999999794
21
-46.104344999999995
0
LINE
8
F.Silkscreen
6
CONTINUOUS
10
141.5013139999999794
20
-46.104344999999995
11
141.4963999999999942
21
-46.110675999999998
0
LINE
8
F.Silkscreen
6
CONTINUOUS
10
141.4963999999999942
20
-46.110675999999998
11
141.4919469999999819
21
-46.1173409999999961
0
LINE
8
F.Silkscreen
6
CONTINUOUS
10
141.4919469999999819
20
-46.1173409999999961
11
141.4796829999999943
21
-46.1296040000000005
0
LINE
8
F.Silkscreen
6
CONTINUOUS
10
141.4796829999999943
20
-46.1296040000000005
11
141.4919469999999819
21
-46.1418669999999977
0
LINE
8
F.Silkscreen
6
CONTINUOUS
10
141.4919469999999819
20
-46.1418669999999977
11
141.4963999999999942
21
-46.1485309999999984
0
LINE
8
F.Silkscreen
6
CONTINUOUS
10
141.4963999999999942
20
-46.1485309999999984
11
141.5013139999999794
21
-46.1548629999999989
0
LINE
8
F.Silkscreen
6
CONTINUOUS
10
141.5013139999999794
20
-46.1548629999999989
11
141.5251219999999819
21
-46.2024809999999988
0
LINE
8
F.Silkscreen
6
CONTINUOUS
10
141.5251219999999819
20
-46.2024809999999988
11
141.5257829999999899
21
-46.204895999999998
0
LINE
8
F.Silkscreen
6
CONTINUOUS
10
141.5257829999999899
20
-46.204895999999998
11
141.5265949999999862
21
-46.2057080000000013
0
LINE
8
F.Silkscreen
6
CONTINUOUS
10
141.5265949999999862
20
-46.2057080000000013
11
141.5281579999999906
21
-46.2135689999999997
0
LINE
8
F.Silkscreen
6
CONTINUOUS
10
141.5281579999999906
20
-46.2135689999999997
11
141.5302749999999889
21
-46.2212969999999999
0
LINE
8
F.Silkscreen
6
CONTINUOUS
10
141.5302749999999889
20
-46.2212969999999999
11
141.5299119999999959
21
-46.2223849999999956
0
LINE
8
F.Silkscreen
6
CONTINUOUS
10
141.5299119999999959
20
-46.2223849999999956
11
141.5304009999999835
21
-46.2248419999999953
0
LINE
8
F.Silkscreen
6
CONTINUOUS
10
141.5304009999999835
20
-46.2248419999999953
11
141.5304009999999835
21
-46.2486519999999999
0
LINE
8
F.Silkscreen
6
CONTINUOUS
10
141.5304009999999835
20
-46.2486519999999999
11
141.5299119999999959
21
-46.251107999999995
0
LINE
8
F.Silkscreen
6
CONTINUOUS
10
141.5299119999999959
20
-46.251107999999995
11
141.5302749999999889
21
-46.2521969999999953
0
LINE
8
F.Silkscreen
6
CONTINUOUS
10
141.5302749999999889
20
-46.2521969999999953
11
141.5281579999999906
21
-46.259923999999998
0
LINE
8
F.Silkscreen
6
CONTINUOUS
10
141.5281579999999906
20
-46.259923999999998
11
141.5265949999999862
21
-46.267786000000001
0
LINE
8
F.Silkscreen
6
CONTINUOUS
10
141.5265949999999862
20
-46.267786000000001
11
141.5257829999999899
21
-46.2685969999999998
0
LINE
8
F.Silkscreen
6
CONTINUOUS
10
141.5257829999999899
20
-46.2685969999999998
11
141.5251219999999819
21
-46.2710129999999964
0
LINE
8
F.Silkscreen
6
CONTINUOUS
10
141.5251219999999819
20
-46.2710129999999964
11
141.5013139999999794
21
-46.3186309999999963
0
LINE
8
F.Silkscreen
6
CONTINUOUS
10
141.5013139999999794
20
-46.3186309999999963
11
141.4963999999999942
21
-46.3249619999999993
0
LINE
8
F.Silkscreen
6
CONTINUOUS
10
141.4963999999999942
20
-46.3249619999999993
11
141.4919469999999819
21
-46.3316269999999975
0
LINE
8
F.Silkscreen
6
CONTINUOUS
10
141.4919469999999819
20
-46.3316269999999975
11
141.4681369999999845
21
-46.3554359999999974
0
LINE
8
F.Silkscreen
6
CONTINUOUS
10
141.4681369999999845
20
-46.3554359999999974
11
141.4614739999999813
21
-46.3598870000000005
0
LINE
8
F.Silkscreen
6
CONTINUOUS
10
141.4614739999999813
20
-46.3598870000000005
11
141.4551429999999925
21
-46.3648009999999999
0
LINE
8
F.Silkscreen
6
CONTINUOUS
10
141.4551429999999925
20
-46.3648009999999999
11
141.4075239999999951
21
-46.3886109999999974
0
LINE
8
F.Silkscreen
6
CONTINUOUS
10
141.4075239999999951
20
-46.3886109999999974
11
141.4051079999999843
21
-46.3892719999999983
0
LINE
8
F.Silkscreen
6
CONTINUOUS
10
141.4051079999999843
20
-46.3892719999999983
11
141.4042969999999855
21
-46.3900839999999945
0
LINE
8
F.Silkscreen
6
CONTINUOUS
10
141.4042969999999855
20
-46.3900839999999945
11
141.3964349999999968
21
-46.391646999999999
0
LINE
8
F.Silkscreen
6
CONTINUOUS
10
141.3964349999999968
20
-46.391646999999999
11
141.3887079999999798
21
-46.3937639999999973
0
LINE
8
F.Silkscreen
6
CONTINUOUS
10
141.3887079999999798
20
-46.3937639999999973
11
141.3876190000000008
21
-46.3934009999999972
0
LINE
8
F.Silkscreen
6
CONTINUOUS
10
141.3876190000000008
20
-46.3934009999999972
11
141.3851630000000057
21
-46.393889999999999
0
LINE
8
F.Silkscreen
6
CONTINUOUS
10
141.3851630000000057
20
-46.393889999999999
11
141.2899249999999824
21
-46.393889999999999
0
LINE
8
F.Silkscreen
6
CONTINUOUS
10
141.2899249999999824
20
-46.393889999999999
11
141.2874679999999898
21
-46.3934009999999972
0
LINE
8
F.Silkscreen
6
CONTINUOUS
10
141.2874679999999898
20
-46.3934009999999972
11
141.2863799999999799
21
-46.3937639999999973
0
LINE
8
F.Silkscreen
6
CONTINUOUS
10
141.2863799999999799
20
-46.3937639999999973
11
141.2786519999999939
21
-46.391646999999999
0
LINE
8
F.Silkscreen
6
CONTINUOUS
10
141.2786519999999939
20
-46.391646999999999
11
141.2707910000000027
21
-46.3900839999999945
0
LINE
8
F.Silkscreen
6
CONTINUOUS
10
141.2707910000000027
20
-46.3900839999999945
11
141.2699790000000064
21
-46.3892719999999983
0
LINE
8
F.Silkscreen
6
CONTINUOUS
10
141.2699790000000064
20
-46.3892719999999983
11
141.267563999999993
21
-46.3886109999999974
0
LINE
8
F.Silkscreen
6
CONTINUOUS
10
141.267563999999993
20
-46.3886109999999974
11
141.2199449999999956
21
-46.3648009999999999
0
LINE
8
F.Silkscreen
6
CONTINUOUS
10
141.2199449999999956
20
-46.3648009999999999
11
141.2136099999999885
21
-46.3598849999999985
0
LINE
8
F.Silkscreen
6
CONTINUOUS
10
141.2136099999999885
20
-46.3598849999999985
11
141.2069510000000037
21
-46.3554349999999999
0
LINE
8
F.Silkscreen
6
CONTINUOUS
10
141.2069510000000037
20
-46.3554349999999999
11
141.1831420000000037
21
-46.331626
0
LINE
8
F.Silkscreen
6
CONTINUOUS
10
141.1831420000000037
20
-46.331626
11
141.1786909999999864
21
-46.3249659999999963
0
LINE
8
F.Silkscreen
6
CONTINUOUS
10
141.1786909999999864
20
-46.3249659999999963
11
141.1737760000000037
21
-46.3186320000000009
0
LINE
8
F.Silkscreen
6
CONTINUOUS
10
141.1737760000000037
20
-46.3186320000000009
11
141.1499660000000063
21
-46.2710129999999964
0
LINE
8
F.Silkscreen
6
CONTINUOUS
10
141.1499660000000063
20
-46.2710129999999964
11
141.1493040000000008
21
-46.2685969999999998
0
LINE
8
F.Silkscreen
6
CONTINUOUS
10
141.1493040000000008
20
-46.2685969999999998
11
141.148493000000002
21
-46.267786000000001
0
LINE
8
F.Silkscreen
6
CONTINUOUS
10
141.148493000000002
20
-46.267786000000001
11
141.1469290000000001
21
-46.259923999999998
0
LINE
8
F.Silkscreen
6
CONTINUOUS
10
141.1469290000000001
20
-46.259923999999998
11
141.1448129999999992
21
-46.2521969999999953
0
LINE
8
F.Silkscreen
6
CONTINUOUS
10
141.1448129999999992
20
-46.2521969999999953
11
141.1451749999999947
21
-46.251107999999995
0
LINE
8
F.Silkscreen
6
CONTINUOUS
10
141.1451749999999947
20
-46.251107999999995
11
141.1446870000000047
21
-46.2486519999999999
0
LINE
8
F.Silkscreen
6
CONTINUOUS
10
141.1446870000000047
20
-46.2486519999999999
11
141.1446870000000047
21
-46.2248419999999953
0
LINE
8
F.Silkscreen
6
CONTINUOUS
10
141.1446870000000047
20
-46.2248419999999953
11
141.1451749999999947
21
-46.2223849999999956
0
LINE
8
F.Silkscreen
6
CONTINUOUS
10
141.1451749999999947
20
-46.2223849999999956
11
141.1448129999999992
21
-46.2212969999999999
0
LINE
8
F.Silkscreen
6
CONTINUOUS
10
141.1448129999999992
20
-46.2212969999999999
11
141.1469290000000001
21
-46.2135689999999997
0
LINE
8
F.Silkscreen
6
CONTINUOUS
10
141.1469290000000001
20
-46.2135689999999997
11
141.148493000000002
21
-46.2057080000000013
0
LINE
8
F.Silkscreen
6
CONTINUOUS
10
141.148493000000002
20
-46.2057080000000013
11
141.1493040000000008
21
-46.204895999999998
0
LINE
8
F.Silkscreen
6
CONTINUOUS
10
141.1493040000000008
20
-46.204895999999998
11
141.1499660000000063
21
-46.2024809999999988
0
LINE
8
F.Silkscreen
6
CONTINUOUS
10
141.1499660000000063
20
-46.2024809999999988
11
141.1737760000000037
21
-46.1548620000000014
0
LINE
8
F.Silkscreen
6
CONTINUOUS
10
141.1737760000000037
20
-46.1548620000000014
11
141.1786909999999864
21
-46.1485270000000014
0
LINE
8
F.Silkscreen
6
CONTINUOUS
10
141.1786909999999864
20
-46.1485270000000014
11
141.1831420000000037
21
-46.1418679999999952
0
LINE
8
F.Silkscreen
6
CONTINUOUS
10
141.1831420000000037
20
-46.1418679999999952
11
141.1954049999999938
21
-46.1296040000000005
0
LINE
8
F.Silkscreen
6
CONTINUOUS
10
141.1954049999999938
20
-46.1296040000000005
11
141.1831410000000062
21
-46.1173399999999987
0
LINE
8
F.Silkscreen
6
CONTINUOUS
10
141.1831410000000062
20
-46.1173399999999987
11
141.1786889999999914
21
-46.1106769999999955
0
LINE
8
F.Silkscreen
6
CONTINUOUS
10
141.1786889999999914
20
-46.1106769999999955
11
141.1737760000000037
21
-46.1043459999999996
0
LINE
8
F.Silkscreen
6
CONTINUOUS
10
141.1737760000000037
20
-46.1043459999999996
11
141.1499660000000063
21
-46.0567269999999951
0
LINE
8
F.Silkscreen
6
CONTINUOUS
10
141.1499660000000063
20
-46.0567269999999951
11
141.1493040000000008
21
-46.0543109999999984
0
LINE
8
F.Silkscreen
6
CONTINUOUS
10
141.1493040000000008
20
-46.0543109999999984
11
141.148493000000002
21
-46.0534999999999997
0
LINE
8
F.Silkscreen
6
CONTINUOUS
10
141.148493000000002
20
-46.0534999999999997
11
141.1469290000000001
21
-46.0456379999999967
0
LINE
8
F.Silkscreen
6
CONTINUOUS
10
141.1469290000000001
20
-46.0456379999999967
11
141.1448129999999992
21
-46.0379110000000011
0
LINE
8
F.Silkscreen
6
CONTINUOUS
10
141.1448129999999992
20
-46.0379110000000011
11
141.1451749999999947
21
-46.0368220000000008
0
LINE
8
F.Silkscreen
6
CONTINUOUS
10
141.1451749999999947
20
-46.0368220000000008
11
141.1446870000000047
21
-46.0343659999999986
0
LINE
8
F.Silkscreen
6
CONTINUOUS
10
141.1446870000000047
20
-46.0343659999999986
11
141.1446870000000047
21
-45.9391279999999966
0
LINE
8
F.Silkscreen
6
CONTINUOUS
10
141.1446870000000047
20
-45.9391279999999966
11
141.1451749999999947
21
-45.9366709999999969
0
LINE
8
F.Silkscreen
6
CONTINUOUS
10
141.1451749999999947
20
-45.9366709999999969
11
141.1448129999999992
21
-45.9355830000000012
0
LINE
8
F.Silkscreen
6
CONTINUOUS
10
141.1448129999999992
20
-45.9355830000000012
11
141.1469290000000001
21
-45.927855000000001
0
LINE
8
F.Silkscreen
6
CONTINUOUS
10
141.1469290000000001
20
-45.927855000000001
11
141.148493000000002
21
-45.9199939999999955
0
LINE
8
F.Silkscreen
6
CONTINUOUS
10
141.148493000000002
20
-45.9199939999999955
11
141.1493040000000008
21
-45.9191819999999993
0
LINE
8
F.Silkscreen
6
CONTINUOUS
10
141.1493040000000008
20
-45.9191819999999993
11
141.1499660000000063
21
-45.9167670000000001
0
LINE
8
F.Silkscreen
6
CONTINUOUS
10
141.1499660000000063
20
-45.9167670000000001
11
141.1737760000000037
21
-45.8691479999999956
0
LINE
8
F.Silkscreen
6
CONTINUOUS
10
141.1737760000000037
20
-45.8691479999999956
11
141.1786909999999864
21
-45.8628129999999956
0
LINE
8
F.Silkscreen
6
CONTINUOUS
10
141.1786909999999864
20
-45.8628129999999956
11
141.1831420000000037
21
-45.8561539999999965
0
LINE
8
F.Silkscreen
6
CONTINUOUS
10
141.1831420000000037
20
-45.8561539999999965
11
141.2069510000000037
21
-45.8323449999999966
0
LINE
8
F.Silkscreen
6
CONTINUOUS
10
141.2069510000000037
20
-45.8323449999999966
11
141.2136099999999885
21
-45.8278940000000006
0
LINE
8
F.Silkscreen
6
CONTINUOUS
10
141.2136099999999885
20
-45.8278940000000006
11
141.2199449999999956
21
-45.8229789999999966
0
LINE
8
F.Silkscreen
6
CONTINUOUS
10
141.2199449999999956
20
-45.8229789999999966
11
141.267563999999993
21
-45.7991689999999991
0
LINE
8
F.Silkscreen
6
CONTINUOUS
10
141.267563999999993
20
-45.7991689999999991
11
141.2699790000000064
21
-45.7985070000000007
0
LINE
8
F.Silkscreen
6
CONTINUOUS
10
141.2699790000000064
20
-45.7985070000000007
11
141.2707910000000027
21
-45.7976959999999949
0
LINE
8
F.Silkscreen
6
CONTINUOUS
10
141.2707910000000027
20
-45.7976959999999949
11
141.2786519999999939
21
-45.7961320000000001
0
LINE
8
F.Silkscreen
6
CONTINUOUS
10
141.2786519999999939
20
-45.7961320000000001
11
141.2863799999999799
21
-45.7940159999999992
0
LINE
8
F.Silkscreen
6
CONTINUOUS
10
141.2863799999999799
20
-45.7940159999999992
11
141.2874679999999898
21
-45.7943779999999947
0
LINE
8
F.Silkscreen
6
CONTINUOUS
10
141.2874679999999898
20
-45.7943779999999947
11
141.2899249999999824
21
-45.7938899999999975
0
LINE
8
F.Silkscreen
6
CONTINUOUS
10
141.2899249999999824
20
-45.7938899999999975
11
141.3851630000000057
21
-45.7938899999999975
0
LINE
8
F.Silkscreen
6
CONTINUOUS
10
141.3851630000000057
20
-45.7938899999999975
11
141.3876190000000008
21
-45.7943779999999947
0
LINE
8
F.Silkscreen
6
CONTINUOUS
10
141.2719229999999868
20
-46.194505999999997
11
141.2595890000000054
21
-46.2068399999999997
0
LINE
8
F.Silkscreen
6
CONTINUOUS
10
141.2595890000000054
20
-46.2068399999999997
11
141.244686999999999
21
-46.2366449999999958
0
LINE
8
F.Silkscreen
6
CONTINUOUS
10
141.244686999999999
20
-46.2366449999999958
11
141.244686999999999
21
-46.2368479999999948
0
LINE
8
F.Silkscreen
6
CONTINUOUS
10
141.244686999999999
20
-46.2368479999999948
11
141.2595890000000054
21
-46.266652999999998
0
LINE
8
F.Silkscreen
6
CONTINUOUS
10
141.2595890000000054
20
-46.266652999999998
11
141.2719229999999868
21
-46.2789870000000008
0
LINE
8
F.Silkscreen
6
CONTINUOUS
10
141.2719229999999868
20
-46.2789870000000008
11
141.3017279999999971
21
-46.2938899999999975
0
LINE
8
F.Silkscreen
6
CONTINUOUS
10
141.3017279999999971
20
-46.2938899999999975
11
141.373359999999991
21
-46.2938899999999975
0
LINE
8
F.Silkscreen
6
CONTINUOUS
10
141.373359999999991
20
-46.2938899999999975
11
141.4031630000000064
21
-46.2789870000000008
0
LINE
8
F.Silkscreen
6
CONTINUOUS
10
141.4031630000000064
20
-46.2789870000000008
11
141.4154979999999853
21
-46.2666539999999955
0
LINE
8
F.Silkscreen
6
CONTINUOUS
10
141.4154979999999853
20
-46.2666539999999955
11
141.4304009999999892
21
-46.2368479999999948
0
LINE
8
F.Silkscreen
6
CONTINUOUS
10
141.4304009999999892
20
-46.2368479999999948
11
141.4304009999999892
21
-46.2366449999999958
0
LINE
8
F.Silkscreen
6
CONTINUOUS
10
141.4304009999999892
20
-46.2366449999999958
11
141.4154979999999853
21
-46.2068389999999951
0
LINE
8
F.Silkscreen
6
CONTINUOUS
10
141.4154979999999853
20
-46.2068389999999951
11
141.4031630000000064
21
-46.194505999999997
0
LINE
8
F.Silkscreen
6
CONTINUOUS
10
141.4031630000000064
20
-46.194505999999997
11
141.373359999999991
21
-46.1796039999999977
0
LINE
8
F.Silkscreen
6
CONTINUOUS
10
141.373359999999991
20
-46.1796039999999977
11
141.3017279999999971
21
-46.1796039999999977
0
LINE
8
F.Silkscreen
6
CONTINUOUS
10
141.3017279999999971
20
-46.1796039999999977
11
141.2719229999999868
21
-46.194505999999997
0
LINE
8
F.Silkscreen
6
CONTINUOUS
10
141.2719229999999868
20
-45.9087919999999983
11
141.2595890000000054
21
-45.921126000000001
0
LINE
8
F.Silkscreen
6
CONTINUOUS
10
141.2595890000000054
20
-45.921126000000001
11
141.244686999999999
21
-45.9509309999999971
0
LINE
8
F.Silkscreen
6
CONTINUOUS
10
141.244686999999999
20
-45.9509309999999971
11
141.244686999999999
21
-46.0225620000000006
0
LINE
8
F.Silkscreen
6
CONTINUOUS
10
141.244686999999999
20
-46.0225620000000006
11
141.2595890000000054
21
-46.0523659999999992
0
LINE
8
F.Silkscreen
6
CONTINUOUS
10
141.2595890000000054
20
-46.0523659999999992
11
141.2719219999999893
21
-46.0647009999999995
0
LINE
8
F.Silkscreen
6
CONTINUOUS
10
141.2719219999999893
20
-46.0647009999999995
11
141.3017289999999946
21
-46.0796039999999962
0
LINE
8
F.Silkscreen
6
CONTINUOUS
10
141.3017289999999946
20
-46.0796039999999962
11
141.3733589999999936
21
-46.0796039999999962
0
LINE
8
F.Silkscreen
6
CONTINUOUS
10
141.3733589999999936
20
-46.0796039999999962
11
141.4031640000000039
21
-46.0647009999999995
0
LINE
8
F.Silkscreen
6
CONTINUOUS
10
141.4031640000000039
20
-46.0647009999999995
11
141.4154979999999853
21
-46.0523669999999967
0
LINE
8
F.Silkscreen
6
CONTINUOUS
10
141.4154979999999853
20
-46.0523669999999967
11
141.4304009999999892
21
-46.0225620000000006
0
LINE
8
F.Silkscreen
6
CONTINUOUS
10
141.4304009999999892
20
-46.0225620000000006
11
141.4304009999999892
21
-45.9509309999999971
0
LINE
8
F.Silkscreen
6
CONTINUOUS
10
141.4304009999999892
20
-45.9509309999999971
11
141.4154979999999853
21
-45.9211249999999964
0
LINE
8
F.Silkscreen
6
CONTINUOUS
10
141.4154979999999853
20
-45.9211249999999964
11
141.4031630000000064
21
-45.9087919999999983
0
LINE
8
F.Silkscreen
6
CONTINUOUS
10
141.4031630000000064
20
-45.9087919999999983
11
141.373359999999991
21
-45.893889999999999
0
LINE
8
F.Silkscreen
6
CONTINUOUS
10
141.373359999999991
20
-45.893889999999999
11
141.3017279999999971
21
-45.893889999999999
0
LINE
8
F.Silkscreen
6
CONTINUOUS
10
141.3017279999999971
20
-45.893889999999999
11
141.2719229999999868
21
-45.9087919999999983
0
LINE
8
F.Silkscreen
6
CONTINUOUS
10
141.9893509999999992
20
-45.8061170000000004
11
142.0064649999999915
21
-45.8403459999999967
0
LINE
8
F.Silkscreen
6
CONTINUOUS
10
142.0064649999999915
20
-45.8403459999999967
11
142.0040249999999844
21
-45.8597010000000012
0
LINE
8
F.Silkscreen
6
CONTINUOUS
10
142.0040249999999844
20
-45.8597010000000012
11
141.8373589999999922
21
-46.3597010000000012
0
LINE
8
F.Silkscreen
6
CONTINUOUS
10
141.8373589999999922
20
-46.3597010000000012
11
141.827697999999998
21
-46.3766499999999979
0
LINE
8
F.Silkscreen
6
CONTINUOUS
10
141.827697999999998
20
-46.3766499999999979
11
141.8243549999999971
21
-46.3783209999999997
0
LINE
8
F.Silkscreen
6
CONTINUOUS
10
141.8243549999999971
20
-46.3783209999999997
11
141.822685000000007
21
-46.3816619999999986
0
LINE
8
F.Silkscreen
6
CONTINUOUS
10
141.822685000000007
20
-46.3816619999999986
11
141.8076480000000004
21
-46.3866739999999993
0
LINE
8
F.Silkscreen
6
CONTINUOUS
10
141.8076480000000004
20
-46.3866739999999993
11
141.7934689999999875
21
-46.3937639999999973
0
LINE
8
F.Silkscreen
6
CONTINUOUS
10
141.7934689999999875
20
-46.3937639999999973
11
141.789923999999985
21
-46.3925819999999973
0
LINE
8
F.Silkscreen
6
CONTINUOUS
10
141.789923999999985
20
-46.3925819999999973
11
141.7863810000000058
21
-46.3937639999999973
0
LINE
8
F.Silkscreen
6
CONTINUOUS
10
141.7863810000000058
20
-46.3937639999999973
11
141.7722039999999879
21
-46.3866760000000014
0
LINE
8
F.Silkscreen
6
CONTINUOUS
10
141.7722039999999879
20
-46.3866760000000014
11
141.7571649999999863
21
-46.3816629999999961
0
LINE
8
F.Silkscreen
6
CONTINUOUS
10
141.7571649999999863
20
-46.3816629999999961
11
141.7554939999999988
21
-46.3783199999999951
0
LINE
8
F.Silkscreen
6
CONTINUOUS
10
141.7554939999999988
20
-46.3783199999999951
11
141.7521519999999953
21
-46.3766499999999979
0
LINE
8
F.Silkscreen
6
CONTINUOUS
10
141.7521519999999953
20
-46.3766499999999979
11
141.7424910000000011
21
-46.3597010000000012
0
LINE
8
F.Silkscreen
6
CONTINUOUS
10
141.7424910000000011
20
-46.3597010000000012
11
141.575823999999983
21
-45.8597010000000012
0
LINE
8
F.Silkscreen
6
CONTINUOUS
10
141.575823999999983
20
-45.8597010000000012
11
141.5733840000000043
21
-45.8403459999999967
0
LINE
8
F.Silkscreen
6
CONTINUOUS
10
141.5733840000000043
20
-45.8403459999999967
11
141.5904979999999966
21
-45.8061170000000004
0
LINE
8
F.Silkscreen
6
CONTINUOUS
10
141.5904979999999966
20
-45.8061170000000004
11
141.6268019999999979
21
-45.7940159999999992
0
LINE
8
F.Silkscreen
6
CONTINUOUS
10
141.6268019999999979
20
-45.7940159999999992
11
141.6610309999999799
21
-45.8111299999999986
0
LINE
8
F.Silkscreen
6
CONTINUOUS
10
141.6610309999999799
20
-45.8111299999999986
11
141.6706920000000025
21
-45.8280789999999953
0
LINE
8
F.Silkscreen
6
CONTINUOUS
10
141.6706920000000025
20
-45.8280789999999953
11
141.7069149999999809
21
-45.9367469999999969
0
LINE
8
F.Silkscreen
6
CONTINUOUS
10
141.7069149999999809
20
-45.9367469999999969
11
141.8729339999999866
21
-45.9367469999999969
0
LINE
8
F.Silkscreen
6
CONTINUOUS
10
141.8729339999999866
20
-45.9367469999999969
11
141.9091569999999933
21
-45.8280789999999953
0
LINE
8
F.Silkscreen
6
CONTINUOUS
10
141.9091569999999933
20
-45.8280789999999953
11
141.9188179999999875
21
-45.8111299999999986
0
LINE
8
F.Silkscreen
6
CONTINUOUS
10
141.9188179999999875
20
-45.8111299999999986
11
141.953046999999998
21
-45.7940159999999992
0
LINE
8
F.Silkscreen
6
CONTINUOUS
10
141.953046999999998
20
-45.7940159999999992
11
141.9893509999999992
21
-45.8061170000000004
0
LINE
8
F.Silkscreen
6
CONTINUOUS
10
141.789923999999985
20
-46.1857759999999971
11
141.8396009999999876
21
-46.0367469999999983
0
LINE
8
F.Silkscreen
6
CONTINUOUS
10
141.8396009999999876
20
-46.0367469999999983
11
141.7402479999999798
21
-46.0367469999999983
0
LINE
8
F.Silkscreen
6
CONTINUOUS
10
141.7402479999999798
20
-46.0367469999999983
11
141.789923999999985
21
-46.1857759999999971
0
LINE
8
F.Silkscreen
6
CONTINUOUS
10
148.4896839999999827
20
-45.3776960000000003
11
148.4896849999999802
21
-45.3776960000000003
0
LINE
8
F.Silkscreen
6
CONTINUOUS
10
148.4896849999999802
20
-45.3776960000000003
11
148.5167439999999885
21
-45.4047549999999944
0
LINE
8
F.Silkscreen
6
CONTINUOUS
10
148.5167439999999885
20
-45.4047549999999944
11
148.5167439999999885
21
-45.4430240000000012
0
LINE
8
F.Silkscreen
6
CONTINUOUS
10
148.5167439999999885
20
-45.4430240000000012
11
148.5059059999999818
21
-45.4592449999999957
0
LINE
8
F.Silkscreen
6
CONTINUOUS
10
148.5059059999999818
20
-45.4592449999999957
11
148.2285369999999887
21
-45.7366120000000009
0
LINE
8
F.Silkscreen
6
CONTINUOUS
10
148.2285369999999887
20
-45.7366120000000009
11
148.2110260000000039
21
-45.7891469999999998
0
LINE
8
F.Silkscreen
6
CONTINUOUS
10
148.2110260000000039
20
-45.7891469999999998
11
148.2110260000000039
21
-45.8168480000000002
0
LINE
8
F.Silkscreen
6
CONTINUOUS
10
148.2110260000000039
20
-45.8168480000000002
11
148.2259279999999819
21
-45.8466529999999963
0
LINE
8
F.Silkscreen
6
CONTINUOUS
10
148.2259279999999819
20
-45.8466529999999963
11
148.2382619999999918
21
-45.8589869999999991
0
LINE
8
F.Silkscreen
6
CONTINUOUS
10
148.2382619999999918
20
-45.8589869999999991
11
148.2680670000000021
21
-45.8738899999999958
0
LINE
8
F.Silkscreen
6
CONTINUOUS
10
148.2680670000000021
20
-45.8738899999999958
11
148.3635089999999934
21
-45.8738899999999958
0
LINE
8
F.Silkscreen
6
CONTINUOUS
10
148.3635089999999934
20
-45.8738899999999958
11
148.3933130000000062
21
-45.8589869999999991
0
LINE
8
F.Silkscreen
6
CONTINUOUS
10
148.3933130000000062
20
-45.8589869999999991
11
148.4113849999999957
21
-45.840916
0
LINE
8
F.Silkscreen
6
CONTINUOUS
10
148.4113849999999957
20
-45.840916
11
148.4276059999999973
21
-45.8300769999999957
0
LINE
8
F.Silkscreen
6
CONTINUOUS
10
148.4276059999999973
20
-45.8300769999999957
11
148.4658739999999852
21
-45.8300769999999957
0
LINE
8
F.Silkscreen
6
CONTINUOUS
10
148.4658739999999852
20
-45.8300769999999957
11
148.4929339999999911
21
-45.8571369999999945
0
LINE
8
F.Silkscreen
6
CONTINUOUS
10
148.4929339999999911
20
-45.8571369999999945
11
148.4929339999999911
21
-45.8954049999999967
0
LINE
8
F.Silkscreen
6
CONTINUOUS
10
148.4929339999999911
20
-45.8954049999999967
11
148.4820949999999868
21
-45.9116259999999983
0
LINE
8
F.Silkscreen
6
CONTINUOUS
10
148.4820949999999868
20
-45.9116259999999983
11
148.4582859999999869
21
-45.9354349999999982
0
LINE
8
F.Silkscreen
6
CONTINUOUS
10
148.4582859999999869
20
-45.9354349999999982
11
148.4516260000000045
21
-45.9398849999999968
0
LINE
8
F.Silkscreen
6
CONTINUOUS
10
148.4516260000000045
20
-45.9398849999999968
11
148.4452919999999949
21
-45.9448009999999982
0
LINE
8
F.Silkscreen
6
CONTINUOUS
10
148.4452919999999949
20
-45.9448009999999982
11
148.3976729999999975
21
-45.9686109999999957
0
LINE
8
F.Silkscreen
6
CONTINUOUS
10
148.3976729999999975
20
-45.9686109999999957
11
148.3952569999999866
21
-45.9692719999999966
0
LINE
8
F.Silkscreen
6
CONTINUOUS
10
148.3952569999999866
20
-45.9692719999999966
11
148.3944459999999879
21
-45.9700839999999999
0
LINE
8
F.Silkscreen
6
CONTINUOUS
10
148.3944459999999879
20
-45.9700839999999999
11
148.3865839999999992
21
-45.9716469999999973
0
LINE
8
F.Silkscreen
6
CONTINUOUS
10
148.3865839999999992
20
-45.9716469999999973
11
148.3788569999999822
21
-45.9737639999999956
0
LINE
8
F.Silkscreen
6
CONTINUOUS
10
148.3788569999999822
20
-45.9737639999999956
11
148.3777680000000032
21
-45.9734009999999955
0
LINE
8
F.Silkscreen
6
CONTINUOUS
10
148.3777680000000032
20
-45.9734009999999955
11
148.3753119999999797
21
-45.9738899999999973
0
LINE
8
F.Silkscreen
6
CONTINUOUS
10
148.3753119999999797
20
-45.9738899999999973
11
148.2562639999999874
21
-45.9738899999999973
0
LINE
8
F.Silkscreen
6
CONTINUOUS
10
148.2562639999999874
20
-45.9738899999999973
11
148.2538069999999948
21
-45.9734009999999955
0
LINE
8
F.Silkscreen
6
CONTINUOUS
10
148.2538069999999948
20
-45.9734009999999955
11
148.2527189999999848
21
-45.9737639999999956
0
LINE
8
F.Silkscreen
6
CONTINUOUS
10
148.2527189999999848
20
-45.9737639999999956
11
148.2449909999999988
21
-45.9716469999999973
0
LINE
8
F.Silkscreen
6
CONTINUOUS
10
148.2449909999999988
20
-45.9716469999999973
11
148.2371299999999792
21
-45.9700839999999999
0
LINE
8
F.Silkscreen
6
CONTINUOUS
10
148.2371299999999792
20
-45.9700839999999999
11
148.2363179999999829
21
-45.9692719999999966
0
LINE
8
F.Silkscreen
6
CONTINUOUS
10
148.2363179999999829
20
-45.9692719999999966
11
148.233902999999998
21
-45.9686109999999957
0
LINE
8
F.Silkscreen
6
CONTINUOUS
10
148.233902999999998
20
-45.9686109999999957
11
148.1862840000000006
21
-45.9448009999999982
0
LINE
8
F.Silkscreen
6
CONTINUOUS
10
148.1862840000000006
20
-45.9448009999999982
11
148.1799489999999935
21
-45.9398849999999968
0
LINE
8
F.Silkscreen
6
CONTINUOUS
10
148.1799489999999935
20
-45.9398849999999968
11
148.1732899999999802
21
-45.9354349999999982
0
LINE
8
F.Silkscreen
6
CONTINUOUS
10
148.1732899999999802
20
-45.9354349999999982
11
148.1494809999999802
21
-45.9116259999999983
0
LINE
8
F.Silkscreen
6
CONTINUOUS
10
148.1494809999999802
20
-45.9116259999999983
11
148.1450299999999913
21
-45.9049659999999946
0
LINE
8
F.Silkscreen
6
CONTINUOUS
10
148.1450299999999913
20
-45.9049659999999946
11
148.1401149999999802
21
-45.8986319999999992
0
LINE
8
F.Silkscreen
6
CONTINUOUS
10
148.1401149999999802
20
-45.8986319999999992
11
148.1163049999999828
21
-45.8510129999999947
0
LINE
8
F.Silkscreen
6
CONTINUOUS
10
148.1163049999999828
20
-45.8510129999999947
11
148.1156430000000057
21
-45.848596999999998
0
LINE
8
F.Silkscreen
6
CONTINUOUS
10
148.1156430000000057
20
-45.848596999999998
11
148.1148320000000069
21
-45.8477859999999993
0
LINE
8
F.Silkscreen
6
CONTINUOUS
10
148.1148320000000069
20
-45.8477859999999993
11
148.113268000000005
21
-45.8399239999999963
0
LINE
8
F.Silkscreen
6
CONTINUOUS
10
148.113268000000005
20
-45.8399239999999963
11
148.1111520000000041
21
-45.8321970000000007
0
LINE
8
F.Silkscreen
6
CONTINUOUS
10
148.1111520000000041
20
-45.8321970000000007
11
148.1115139999999997
21
-45.8311080000000004
0
LINE
8
F.Silkscreen
6
CONTINUOUS
10
148.1115139999999997
20
-45.8311080000000004
11
148.1110259999999812
21
-45.8286519999999982
0
LINE
8
F.Silkscreen
6
CONTINUOUS
10
148.1110259999999812
20
-45.8286519999999982
11
148.1110259999999812
21
-45.7810330000000008
0
LINE
8
F.Silkscreen
6
CONTINUOUS
10
148.1110259999999812
20
-45.7810330000000008
11
148.1125889999999856
21
-45.7731709999999978
0
LINE
8
F.Silkscreen
6
CONTINUOUS
10
148.1125889999999856
20
-45.7731709999999978
11
148.1135919999999828
21
-45.7652209999999968
0
LINE
8
F.Silkscreen
6
CONTINUOUS
10
148.1135919999999828
20
-45.7652209999999968
11
148.1374019999999803
21
-45.6937919999999949
0
LINE
8
F.Silkscreen
6
CONTINUOUS
10
148.1374019999999803
20
-45.6937919999999949
11
148.1386420000000044
21
-45.6916159999999962
0
LINE
8
F.Silkscreen
6
CONTINUOUS
10
148.1386420000000044
20
-45.6916159999999962
11
148.1386420000000044
21
-45.6904699999999977
0
LINE
8
F.Silkscreen
6
CONTINUOUS
10
148.1386420000000044
20
-45.6904699999999977
11
148.1430909999999983
21
-45.6838109999999986
0
LINE
8
F.Silkscreen
6
CONTINUOUS
10
148.1430909999999983
20
-45.6838109999999986
11
148.1470630000000028
21
-45.6768439999999956
0
LINE
8
F.Silkscreen
6
CONTINUOUS
10
148.1470630000000028
20
-45.6768439999999956
11
148.1480899999999963
21
-45.6763300000000001
0
LINE
8
F.Silkscreen
6
CONTINUOUS
10
148.1480899999999963
20
-45.6763300000000001
11
148.1494809999999802
21
-45.6742489999999961
0
LINE
8
F.Silkscreen
6
CONTINUOUS
10
148.1494809999999802
20
-45.6742489999999961
11
148.3498390000000029
21
-45.4738899999999973
0
LINE
8
F.Silkscreen
6
CONTINUOUS
10
148.3498390000000029
20
-45.4738899999999973
11
148.1610259999999926
21
-45.4738899999999973
0
LINE
8
F.Silkscreen
6
CONTINUOUS
10
148.1610259999999926
20
-45.4738899999999973
11
148.1418919999999844
21
-45.4700839999999999
0
LINE
8
F.Silkscreen
6
CONTINUOUS
10
148.1418919999999844
20
-45.4700839999999999
11
148.1148320000000069
21
-45.4430240000000012
0
LINE
8
F.Silkscreen
6
CONTINUOUS
10
148.1148320000000069
20
-45.4430240000000012
11
148.1148320000000069
21
-45.404755999999999
0
LINE
8
F.Silkscreen
6
CONTINUOUS
10
148.1148320000000069
20
-45.404755999999999
11
148.1418919999999844
21
-45.3776960000000003
0
LINE
8
F.Silkscreen
6
CONTINUOUS
10
148.1418919999999844
20
-45.3776960000000003
11
148.1610259999999926
21
-45.3738899999999958
0
LINE
8
F.Silkscreen
6
CONTINUOUS
10
148.1610259999999926
20
-45.3738899999999958
11
148.4705500000000029
21
-45.3738899999999958
0
LINE
8
F.Silkscreen
6
CONTINUOUS
10
148.4705500000000029
20
-45.3738899999999958
11
148.4896839999999827
21
-45.3776960000000003
0
LINE
8
F.Silkscreen
6
CONTINUOUS
10
148.9556900000000041
20
-45.3861169999999987
11
148.9728039999999964
21
-45.420345999999995
0
LINE
8
F.Silkscreen
6
CONTINUOUS
10
148.9728039999999964
20
-45.420345999999995
11
148.9703639999999893
21
-45.4397009999999995
0
LINE
8
F.Silkscreen
6
CONTINUOUS
10
148.9703639999999893
20
-45.4397009999999995
11
148.8036979999999971
21
-45.9397009999999995
0
LINE
8
F.Silkscreen
6
CONTINUOUS
10
148.8036979999999971
20
-45.9397009999999995
11
148.794037000000003
21
-45.9566499999999962
0
LINE
8
F.Silkscreen
6
CONTINUOUS
10
148.794037000000003
20
-45.9566499999999962
11
148.790694000000002
21
-45.958320999999998
0
LINE
8
F.Silkscreen
6
CONTINUOUS
10
148.790694000000002
20
-45.958320999999998
11
148.7890239999999835
21
-45.9616619999999969
0
LINE
8
F.Silkscreen
6
CONTINUOUS
10
148.7890239999999835
20
-45.9616619999999969
11
148.7739870000000053
21
-45.9666739999999976
0
LINE
8
F.Silkscreen
6
CONTINUOUS
10
148.7739870000000053
20
-45.9666739999999976
11
148.7598079999999925
21
-45.9737639999999956
0
LINE
8
F.Silkscreen
6
CONTINUOUS
10
148.7598079999999925
20
-45.9737639999999956
11
148.7562629999999899
21
-45.9725819999999956
0
LINE
8
F.Silkscreen
6
CONTINUOUS
10
148.7562629999999899
20
-45.9725819999999956
11
148.7527199999999823
21
-45.9737639999999956
0
LINE
8
F.Silkscreen
6
CONTINUOUS
10
148.7527199999999823
20
-45.9737639999999956
11
148.7385429999999928
21
-45.9666759999999996
0
LINE
8
F.Silkscreen
6
CONTINUOUS
10
148.7385429999999928
20
-45.9666759999999996
11
148.7235039999999913
21
-45.9616629999999944
0
LINE
8
F.Silkscreen
6
CONTINUOUS
10
148.7235039999999913
20
-45.9616629999999944
11
148.7218330000000037
21
-45.9583200000000005
0
LINE
8
F.Silkscreen
6
CONTINUOUS
10
148.7218330000000037
20
-45.9583200000000005
11
148.7184910000000002
21
-45.9566499999999962
0
LINE
8
F.Silkscreen
6
CONTINUOUS
10
148.7184910000000002
20
-45.9566499999999962
11
148.7088300000000061
21
-45.9397009999999995
0
LINE
8
F.Silkscreen
6
CONTINUOUS
10
148.7088300000000061
20
-45.9397009999999995
11
148.542162999999988
21
-45.4397009999999995
0
LINE
8
F.Silkscreen
6
CONTINUOUS
10
148.542162999999988
20
-45.4397009999999995
11
148.5397229999999809
21
-45.420345999999995
0
LINE
8
F.Silkscreen
6
CONTINUOUS
10
148.5397229999999809
20
-45.420345999999995
11
148.5568370000000016
21
-45.3861169999999987
0
LINE
8
F.Silkscreen
6
CONTINUOUS
10
148.5568370000000016
20
-45.3861169999999987
11
148.5931410000000028
21
-45.3740159999999975
0
LINE
8
F.Silkscreen
6
CONTINUOUS
10
148.5931410000000028
20
-45.3740159999999975
11
148.6273699999999849
21
-45.3911299999999969
0
LINE
8
F.Silkscreen
6
CONTINUOUS
10
148.6273699999999849
20
-45.3911299999999969
11
148.6370310000000075
21
-45.4080790000000007
0
LINE
8
F.Silkscreen
6
CONTINUOUS
10
148.6370310000000075
20
-45.4080790000000007
11
148.6732539999999858
21
-45.5167469999999952
0
LINE
8
F.Silkscreen
6
CONTINUOUS
10
148.6732539999999858
20
-45.5167469999999952
11
148.8392729999999915
21
-45.5167469999999952
0
LINE
8
F.Silkscreen
6
CONTINUOUS
10
148.8392729999999915
20
-45.5167469999999952
11
148.8754959999999983
21
-45.4080790000000007
0
LINE
8
F.Silkscreen
6
CONTINUOUS
10
148.8754959999999983
20
-45.4080790000000007
11
148.8851569999999924
21
-45.3911299999999969
0
LINE
8
F.Silkscreen
6
CONTINUOUS
10
148.8851569999999924
20
-45.3911299999999969
11
148.9193860000000029
21
-45.3740159999999975
0
LINE
8
F.Silkscreen
6
CONTINUOUS
10
148.9193860000000029
20
-45.3740159999999975
11
148.9556900000000041
21
-45.3861169999999987
0
LINE
8
F.Silkscreen
6
CONTINUOUS
10
148.7562629999999899
20
-45.7657759999999953
11
148.8059399999999926
21
-45.6167469999999966
0
LINE
8
F.Silkscreen
6
CONTINUOUS
10
148.8059399999999926
20
-45.6167469999999966
11
148.7065869999999848
21
-45.6167469999999966
0
LINE
8
F.Silkscreen
6
CONTINUOUS
10
148.7065869999999848
20
-45.6167469999999966
11
148.7562629999999899
21
-45.7657759999999953
0
LINE
8
F.Silkscreen
6
CONTINUOUS
10
140.6038099999999815
20
-44.9343779999999953
11
140.604898999999989
21
-44.9340159999999997
0
LINE
8
F.Silkscreen
6
CONTINUOUS
10
140.604898999999989
20
-44.9340159999999997
11
140.6126260000000059
21
-44.9361320000000006
0
LINE
8
F.Silkscreen
6
CONTINUOUS
10
140.6126260000000059
20
-44.9361320000000006
11
140.6204879999999946
21
-44.9376959999999954
0
LINE
8
F.Silkscreen
6
CONTINUOUS
10
140.6204879999999946
20
-44.9376959999999954
11
140.6212989999999934
21
-44.9385070000000013
0
LINE
8
F.Silkscreen
6
CONTINUOUS
10
140.6212989999999934
20
-44.9385070000000013
11
140.6237150000000042
21
-44.9391689999999997
0
LINE
8
F.Silkscreen
6
CONTINUOUS
10
140.6237150000000042
20
-44.9391689999999997
11
140.6713340000000017
21
-44.9629789999999971
0
LINE
8
F.Silkscreen
6
CONTINUOUS
10
140.6713340000000017
20
-44.9629789999999971
11
140.6776679999999828
21
-44.9678940000000011
0
LINE
8
F.Silkscreen
6
CONTINUOUS
10
140.6776679999999828
20
-44.9678940000000011
11
140.6843279999999936
21
-44.9723449999999971
0
LINE
8
F.Silkscreen
6
CONTINUOUS
10
140.6843279999999936
20
-44.9723449999999971
11
140.7081369999999936
21
-44.9961539999999971
0
LINE
8
F.Silkscreen
6
CONTINUOUS
10
140.7081369999999936
20
-44.9961539999999971
11
140.7189759999999978
21
-45.0123749999999987
0
LINE
8
F.Silkscreen
6
CONTINUOUS
10
140.7189759999999978
20
-45.0123749999999987
11
140.7189759999999978
21
-45.0506430000000009
0
LINE
8
F.Silkscreen
6
CONTINUOUS
10
140.7189759999999978
20
-45.0506430000000009
11
140.691915999999992
21
-45.0777029999999996
0
LINE
8
F.Silkscreen
6
CONTINUOUS
10
140.691915999999992
20
-45.0777029999999996
11
140.653648000000004
21
-45.0777029999999996
0
LINE
8
F.Silkscreen
6
CONTINUOUS
10
140.653648000000004
20
-45.0777029999999996
11
140.6374270000000024
21
-45.0668639999999954
0
LINE
8
F.Silkscreen
6
CONTINUOUS
10
140.6374270000000024
20
-45.0668639999999954
11
140.6193549999999846
21
-45.0487919999999988
0
LINE
8
F.Silkscreen
6
CONTINUOUS
10
140.6193549999999846
20
-45.0487919999999988
11
140.5895510000000002
21
-45.0338899999999995
0
LINE
8
F.Silkscreen
6
CONTINUOUS
10
140.5895510000000002
20
-45.0338899999999995
11
140.4941089999999804
21
-45.0338899999999995
0
LINE
8
F.Silkscreen
6
CONTINUOUS
10
140.4941089999999804
20
-45.0338899999999995
11
140.4643039999999985
21
-45.0487919999999988
0
LINE
8
F.Silkscreen
6
CONTINUOUS
10
140.4643039999999985
20
-45.0487919999999988
11
140.4519699999999887
21
-45.0611259999999945
0
LINE
8
F.Silkscreen
6
CONTINUOUS
10
140.4519699999999887
20
-45.0611259999999945
11
140.4370679999999822
21
-45.0909309999999977
0
LINE
8
F.Silkscreen
6
CONTINUOUS
10
140.4370679999999822
20
-45.0909309999999977
11
140.4370679999999822
21
-45.1863719999999986
0
LINE
8
F.Silkscreen
6
CONTINUOUS
10
140.4370679999999822
20
-45.1863719999999986
11
140.4519699999999887
21
-45.2161769999999947
0
LINE
8
F.Silkscreen
6
CONTINUOUS
10
140.4519699999999887
20
-45.2161769999999947
11
140.4643039999999985
21
-45.2285109999999975
0
LINE
8
F.Silkscreen
6
CONTINUOUS
10
140.4643039999999985
20
-45.2285109999999975
11
140.4941089999999804
21
-45.2434140000000014
0
LINE
8
F.Silkscreen
6
CONTINUOUS
10
140.4941089999999804
20
-45.2434140000000014
11
140.5895510000000002
21
-45.2434140000000014
0
LINE
8
F.Silkscreen
6
CONTINUOUS
10
140.5895510000000002
20
-45.2434140000000014
11
140.6193549999999846
21
-45.2285109999999975
0
LINE
8
F.Silkscreen
6
CONTINUOUS
10
140.6193549999999846
20
-45.2285109999999975
11
140.6374270000000024
21
-45.2104399999999984
0
LINE
8
F.Silkscreen
6
CONTINUOUS
10
140.6374270000000024
20
-45.2104399999999984
11
140.653648000000004
21
-45.1996010000000012
0
LINE
8
F.Silkscreen
6
CONTINUOUS
10
140.653648000000004
20
-45.1996010000000012
11
140.6562930000000051
21
-45.1996010000000012
0
LINE
8
F.Silkscreen
6
CONTINUOUS
10
140.6562930000000051
20
-45.1996010000000012
11
140.6583389999999838
21
-45.197927
0
LINE
8
F.Silkscreen
6
CONTINUOUS
10
140.6583389999999838
20
-45.197927
11
140.675077999999985
21
-45.1996010000000012
0
LINE
8
F.Silkscreen
6
CONTINUOUS
10
140.675077999999985
20
-45.1996010000000012
11
140.691915999999992
21
-45.1996010000000012
0
LINE
8
F.Silkscreen
6
CONTINUOUS
10
140.691915999999992
20
-45.1996010000000012
11
140.6937859999999887
21
-45.201470999999998
0
LINE
8
F.Silkscreen
6
CONTINUOUS
10
140.6937859999999887
20
-45.201470999999998
11
140.6964169999999967
21
-45.2017349999999993
0
LINE
8
F.Silkscreen
6
CONTINUOUS
10
140.6964169999999967
20
-45.2017349999999993
11
140.7070709999999849
21
-45.2147560000000013
0
LINE
8
F.Silkscreen
6
CONTINUOUS
10
140.7070709999999849
20
-45.2147560000000013
11
140.7189759999999978
21
-45.226661
0
LINE
8
F.Silkscreen
6
CONTINUOUS
10
140.7189759999999978
20
-45.226661
11
140.7189759999999978
21
-45.2293049999999965
0
LINE
8
F.Silkscreen
6
CONTINUOUS
10
140.7189759999999978
20
-45.2293049999999965
11
140.7206510000000037
21
-45.2313529999999986
0
LINE
8
F.Silkscreen
6
CONTINUOUS
10
140.7206510000000037
20
-45.2313529999999986
11
140.722533999999996
21
-45.2507710000000003
0
LINE
8
F.Silkscreen
6
CONTINUOUS
10
140.722533999999996
20
-45.2507710000000003
11
140.698724999999996
21
-45.488864999999997
0
LINE
8
F.Silkscreen
6
CONTINUOUS
10
140.698724999999996
20
-45.488864999999997
11
140.6951669999999979
21
-45.5005309999999952
0
LINE
8
F.Silkscreen
6
CONTINUOUS
10
140.6951669999999979
20
-45.5005309999999952
11
140.6951669999999979
21
-45.5030239999999964
0
LINE
8
F.Silkscreen
6
CONTINUOUS
10
140.6951669999999979
20
-45.5030239999999964
11
140.694073000000003
21
-45.5041170000000008
0
LINE
8
F.Silkscreen
6
CONTINUOUS
10
140.694073000000003
20
-45.5041170000000008
11
140.6930339999999831
21
-45.5075250000000011
0
LINE
8
F.Silkscreen
6
CONTINUOUS
10
140.6930339999999831
20
-45.5075250000000011
11
140.6800069999999891
21
-45.5181830000000005
0
LINE
8
F.Silkscreen
6
CONTINUOUS
10
140.6800069999999891
20
-45.5181830000000005
11
140.668106999999992
21
-45.5300839999999951
0
LINE
8
F.Silkscreen
6
CONTINUOUS
10
140.668106999999992
20
-45.5300839999999951
11
140.6646130000000028
21
-45.530777999999998
0
LINE
8
F.Silkscreen
6
CONTINUOUS
10
140.6646130000000028
20
-45.530777999999998
11
140.6634159999999838
21
-45.531759000000001
0
LINE
8
F.Silkscreen
6
CONTINUOUS
10
140.6634159999999838
20
-45.531759000000001
11
140.6609339999999975
21
-45.5315099999999973
0
LINE
8
F.Silkscreen
6
CONTINUOUS
10
140.6609339999999975
20
-45.5315099999999973
11
140.6489729999999838
21
-45.5338899999999995
0
LINE
8
F.Silkscreen
6
CONTINUOUS
10
140.6489729999999838
20
-45.5338899999999995
11
140.4108779999999967
21
-45.5338899999999995
0
LINE
8
F.Silkscreen
6
CONTINUOUS
10
140.4108779999999967
20
-45.5338899999999995
11
140.3917439999999885
21
-45.5300839999999951
0
LINE
8
F.Silkscreen
6
CONTINUOUS
10
140.3917439999999885
20
-45.5300839999999951
11
140.3646839999999827
21
-45.5030239999999964
0
LINE
8
F.Silkscreen
6
CONTINUOUS
10
140.3646839999999827
20
-45.5030239999999964
11
140.3646839999999827
21
-45.4647560000000013
0
LINE
8
F.Silkscreen
6
CONTINUOUS
10
140.3646839999999827
20
-45.4647560000000013
11
140.3917439999999885
21
-45.4376959999999954
0
LINE
8
F.Silkscreen
6
CONTINUOUS
10
140.3917439999999885
20
-45.4376959999999954
11
140.4108779999999967
21
-45.4338899999999981
0
LINE
8
F.Silkscreen
6
CONTINUOUS
10
140.4108779999999967
20
-45.4338899999999981
11
140.6037230000000022
21
-45.4338899999999981
0
LINE
8
F.Silkscreen
6
CONTINUOUS
10
140.6037230000000022
20
-45.4338899999999981
11
140.6130019999999945
21
-45.3410960000000003
0
LINE
8
F.Silkscreen
6
CONTINUOUS
10
140.6130019999999945
20
-45.3410960000000003
11
140.6126260000000059
21
-45.3411709999999957
0
LINE
8
F.Silkscreen
6
CONTINUOUS
10
140.6126260000000059
20
-45.3411709999999957
11
140.604898999999989
21
-45.3432880000000011
0
LINE
8
F.Silkscreen
6
CONTINUOUS
10
140.604898999999989
20
-45.3432880000000011
11
140.6038099999999815
21
-45.342925000000001
0
LINE
8
F.Silkscreen
6
CONTINUOUS
10
140.6038099999999815
20
-45.342925000000001
11
140.6013539999999864
21
-45.3434139999999957
0
LINE
8
F.Silkscreen
6
CONTINUOUS
10
140.6013539999999864
20
-45.3434139999999957
11
140.4823059999999941
21
-45.3434139999999957
0
LINE
8
F.Silkscreen
6
CONTINUOUS
10
140.4823059999999941
20
-45.3434139999999957
11
140.4798490000000015
21
-45.342925000000001
0
LINE
8
F.Silkscreen
6
CONTINUOUS
10
140.4798490000000015
20
-45.342925000000001
11
140.4787609999999916
21
-45.3432880000000011
0
LINE
8
F.Silkscreen
6
CONTINUOUS
10
140.4787609999999916
20
-45.3432880000000011
11
140.4710330000000056
21
-45.3411709999999957
0
LINE
8
F.Silkscreen
6
CONTINUOUS
10
140.4710330000000056
20
-45.3411709999999957
11
140.4631719999999859
21
-45.3396079999999984
0
LINE
8
F.Silkscreen
6
CONTINUOUS
10
140.4631719999999859
20
-45.3396079999999984
11
140.4623599999999897
21
-45.338795999999995
0
LINE
8
F.Silkscreen
6
CONTINUOUS
10
140.4623599999999897
20
-45.338795999999995
11
140.4599450000000047
21
-45.3381350000000012
0
LINE
8
F.Silkscreen
6
CONTINUOUS
10
140.4599450000000047
20
-45.3381350000000012
11
140.4123260000000073
21
-45.3143249999999966
0
LINE
8
F.Silkscreen
6
CONTINUOUS
10
140.4123260000000073
20
-45.3143249999999966
11
140.4059910000000002
21
-45.3094089999999952
0
LINE
8
F.Silkscreen
6
CONTINUOUS
10
140.4059910000000002
20
-45.3094089999999952
11
140.3993319999999869
21
-45.3049589999999966
0
LINE
8
F.Silkscreen
6
CONTINUOUS
10
140.3993319999999869
20
-45.3049589999999966
11
140.375522999999987
21
-45.2811499999999967
0
LINE
8
F.Silkscreen
6
CONTINUOUS
10
140.375522999999987
20
-45.2811499999999967
11
140.3710719999999981
21
-45.2744900000000001
0
LINE
8
F.Silkscreen
6
CONTINUOUS
10
140.3710719999999981
20
-45.2744900000000001
11
140.366156999999987
21
-45.2681559999999976
0
LINE
8
F.Silkscreen
6
CONTINUOUS
10
140.366156999999987
20
-45.2681559999999976
11
140.3423469999999895
21
-45.2205370000000002
0
LINE
8
F.Silkscreen
6
CONTINUOUS
10
140.3423469999999895
20
-45.2205370000000002
11
140.341684999999984
21
-45.2181209999999965
0
LINE
8
F.Silkscreen
6
CONTINUOUS
10
140.341684999999984
20
-45.2181209999999965
11
140.3408739999999852
21
-45.2173099999999977
0
LINE
8
F.Silkscreen
6
CONTINUOUS
10
140.3408739999999852
20
-45.2173099999999977
11
140.3393099999999833
21
-45.2094479999999947
0
LINE
8
F.Silkscreen
6
CONTINUOUS
10
140.3393099999999833
20
-45.2094479999999947
11
140.3371939999999825
21
-45.2017209999999992
0
LINE
8
F.Silkscreen
6
CONTINUOUS
10
140.3371939999999825
20
-45.2017209999999992
11
140.3375560000000064
21
-45.2006319999999988
0
LINE
8
F.Silkscreen
6
CONTINUOUS
10
140.3375560000000064
20
-45.2006319999999988
11
140.3370679999999879
21
-45.1981759999999966
0
LINE
8
F.Silkscreen
6
CONTINUOUS
10
140.3370679999999879
20
-45.1981759999999966
11
140.3370679999999879
21
-45.0791279999999972
0
LINE
8
F.Silkscreen
6
CONTINUOUS
10
140.3370679999999879
20
-45.0791279999999972
11
140.3375560000000064
21
-45.0766709999999975
0
LINE
8
F.Silkscreen
6
CONTINUOUS
10
140.3375560000000064
20
-45.0766709999999975
11
140.3371939999999825
21
-45.0755829999999946
0
LINE
8
F.Silkscreen
6
CONTINUOUS
10
140.3371939999999825
20
-45.0755829999999946
11
140.3393099999999833
21
-45.0678549999999944
0
LINE
8
F.Silkscreen
6
CONTINUOUS
10
140.3393099999999833
20
-45.0678549999999944
11
140.3408739999999852
21
-45.0599939999999961
0
LINE
8
F.Silkscreen
6
CONTINUOUS
10
140.3408739999999852
20
-45.0599939999999961
11
140.341684999999984
21
-45.0591819999999998
0
LINE
8
F.Silkscreen
6
CONTINUOUS
10
140.341684999999984
20
-45.0591819999999998
11
140.3423469999999895
21
-45.0567670000000007
0
LINE
8
F.Silkscreen
6
CONTINUOUS
10
140.3423469999999895
20
-45.0567670000000007
11
140.366156999999987
21
-45.0091479999999962
0
LINE
8
F.Silkscreen
6
CONTINUOUS
10
140.366156999999987
20
-45.0091479999999962
11
140.3710719999999981
21
-45.0028129999999962
0
LINE
8
F.Silkscreen
6
CONTINUOUS
10
140.3710719999999981
20
-45.0028129999999962
11
140.375522999999987
21
-44.9961539999999971
0
LINE
8
F.Silkscreen
6
CONTINUOUS
10
140.375522999999987
20
-44.9961539999999971
11
140.3993319999999869
21
-44.9723449999999971
0
LINE
8
F.Silkscreen
6
CONTINUOUS
10
140.3993319999999869
20
-44.9723449999999971
11
140.4059910000000002
21
-44.9678940000000011
0
LINE
8
F.Silkscreen
6
CONTINUOUS
10
140.4059910000000002
20
-44.9678940000000011
11
140.4123260000000073
21
-44.9629789999999971
0
LINE
8
F.Silkscreen
6
CONTINUOUS
10
140.4123260000000073
20
-44.9629789999999971
11
140.4599450000000047
21
-44.9391689999999997
0
LINE
8
F.Silkscreen
6
CONTINUOUS
10
140.4599450000000047
20
-44.9391689999999997
11
140.4623599999999897
21
-44.9385070000000013
0
LINE
8
F.Silkscreen
6
CONTINUOUS
10
140.4623599999999897
20
-44.9385070000000013
11
140.4631719999999859
21
-44.9376959999999954
0
LINE
8
F.Silkscreen
6
CONTINUOUS
10
140.4631719999999859
20
-44.9376959999999954
11
140.4710330000000056
21
-44.9361320000000006
0
LINE
8
F.Silkscreen
6
CONTINUOUS
10
140.4710330000000056
20
-44.9361320000000006
11
140.4787609999999916
21
-44.9340159999999997
0
LINE
8
F.Silkscreen
6
CONTINUOUS
10
140.4787609999999916
20
-44.9340159999999997
11
140.4798490000000015
21
-44.9343779999999953
0
LINE
8
F.Silkscreen
6
CONTINUOUS
10
140.4798490000000015
20
-44.9343779999999953
11
140.4823059999999941
21
-44.9338899999999981
0
LINE
8
F.Silkscreen
6
CONTINUOUS
10
140.4823059999999941
20
-44.9338899999999981
11
140.6013539999999864
21
-44.9338899999999981
0
LINE
8
F.Silkscreen
6
CONTINUOUS
10
140.6013539999999864
20
-44.9338899999999981
11
140.6038099999999815
21
-44.9343779999999953
0
LINE
8
F.Silkscreen
6
CONTINUOUS
10
141.6442969999999946
20
-44.9376959999999954
11
141.6713570000000004
21
-44.9647560000000013
0
LINE
8
F.Silkscreen
6
CONTINUOUS
10
141.6713570000000004
20
-44.9647560000000013
11
141.6751629999999977
21
-44.9838899999999953
0
LINE
8
F.Silkscreen
6
CONTINUOUS
10
141.6751629999999977
20
-44.9838899999999953
11
141.6751629999999977
21
-45.4838899999999953
0
LINE
8
F.Silkscreen
6
CONTINUOUS
10
141.6751629999999977
20
-45.4838899999999953
11
141.6713570000000004
21
-45.5030239999999964
0
LINE
8
F.Silkscreen
6
CONTINUOUS
10
141.6713570000000004
20
-45.5030239999999964
11
141.6442969999999946
21
-45.5300839999999951
0
LINE
8
F.Silkscreen
6
CONTINUOUS
10
141.6442969999999946
20
-45.5300839999999951
11
141.6251629999999864
21
-45.5338899999999995
0
LINE
8
F.Silkscreen
6
CONTINUOUS
10
141.6251629999999864
20
-45.5338899999999995
11
141.4584959999999967
21
-45.5338899999999995
0
LINE
8
F.Silkscreen
6
CONTINUOUS
10
141.4584959999999967
20
-45.5338899999999995
11
141.4560390000000041
21
-45.5334009999999978
0
LINE
8
F.Silkscreen
6
CONTINUOUS
10
141.4560390000000041
20
-45.5334009999999978
11
141.4549509999999941
21
-45.5337639999999979
0
LINE
8
F.Silkscreen
6
CONTINUOUS
10
141.4549509999999941
20
-45.5337639999999979
11
141.4472229999999797
21
-45.5316469999999995
0
LINE
8
F.Silkscreen
6
CONTINUOUS
10
141.4472229999999797
20
-45.5316469999999995
11
141.4393619999999885
21
-45.5300839999999951
0
LINE
8
F.Silkscreen
6
CONTINUOUS
10
141.4393619999999885
20
-45.5300839999999951
11
141.4385499999999922
21
-45.5292719999999989
0
LINE
8
F.Silkscreen
6
CONTINUOUS
10
141.4385499999999922
20
-45.5292719999999989
11
141.4361350000000073
21
-45.5286109999999979
0
LINE
8
F.Silkscreen
6
CONTINUOUS
10
141.4361350000000073
20
-45.5286109999999979
11
141.3885159999999814
21
-45.5048010000000005
0
LINE
8
F.Silkscreen
6
CONTINUOUS
10
141.3885159999999814
20
-45.5048010000000005
11
141.3821810000000028
21
-45.499884999999999
0
LINE
8
F.Silkscreen
6
CONTINUOUS
10
141.3821810000000028
20
-45.499884999999999
11
141.3755219999999895
21
-45.4954350000000005
0
LINE
8
F.Silkscreen
6
CONTINUOUS
10
141.3755219999999895
20
-45.4954350000000005
11
141.3517129999999895
21
-45.4716260000000005
0
LINE
8
F.Silkscreen
6
CONTINUOUS
10
141.3517129999999895
20
-45.4716260000000005
11
141.3472620000000006
21
-45.4649659999999969
0
LINE
8
F.Silkscreen
6
CONTINUOUS
10
141.3472620000000006
20
-45.4649659999999969
11
141.3423469999999895
21
-45.4586320000000015
0
LINE
8
F.Silkscreen
6
CONTINUOUS
10
141.3423469999999895
20
-45.4586320000000015
11
141.3185369999999921
21
-45.411012999999997
0
LINE
8
F.Silkscreen
6
CONTINUOUS
10
141.3185369999999921
20
-45.411012999999997
11
141.3178749999999866
21
-45.4085970000000003
0
LINE
8
F.Silkscreen
6
CONTINUOUS
10
141.3178749999999866
20
-45.4085970000000003
11
141.3170639999999878
21
-45.4077859999999944
0
LINE
8
F.Silkscreen
6
CONTINUOUS
10
141.3170639999999878
20
-45.4077859999999944
11
141.3154999999999859
21
-45.3999239999999986
0
LINE
8
F.Silkscreen
6
CONTINUOUS
10
141.3154999999999859
20
-45.3999239999999986
11
141.313383999999985
21
-45.3921969999999959
0
LINE
8
F.Silkscreen
6
CONTINUOUS
10
141.313383999999985
20
-45.3921969999999959
11
141.3137459999999805
21
-45.3911079999999956
0
LINE
8
F.Silkscreen
6
CONTINUOUS
10
141.3137459999999805
20
-45.3911079999999956
11
141.3132579999999905
21
-45.3886520000000004
0
LINE
8
F.Silkscreen
6
CONTINUOUS
10
141.3132579999999905
20
-45.3886520000000004
11
141.3132579999999905
21
-45.3410329999999959
0
LINE
8
F.Silkscreen
6
CONTINUOUS
10
141.3132579999999905
20
-45.3410329999999959
11
141.3137459999999805
21
-45.3385759999999962
0
LINE
8
F.Silkscreen
6
CONTINUOUS
10
141.3137459999999805
20
-45.3385759999999962
11
141.313383999999985
21
-45.3374880000000005
0
LINE
8
F.Silkscreen
6
CONTINUOUS
10
141.313383999999985
20
-45.3374880000000005
11
141.3154999999999859
21
-45.3297600000000003
0
LINE
8
F.Silkscreen
6
CONTINUOUS
10
141.3154999999999859
20
-45.3297600000000003
11
141.3170639999999878
21
-45.3218989999999948
0
LINE
8
F.Silkscreen
6
CONTINUOUS
10
141.3170639999999878
20
-45.3218989999999948
11
141.3178749999999866
21
-45.3210869999999986
0
LINE
8
F.Silkscreen
6
CONTINUOUS
10
141.3178749999999866
20
-45.3210869999999986
11
141.3185369999999921
21
-45.3186719999999994
0
LINE
8
F.Silkscreen
6
CONTINUOUS
10
141.3185369999999921
20
-45.3186719999999994
11
141.3423469999999895
21
-45.2710529999999949
0
LINE
8
F.Silkscreen
6
CONTINUOUS
10
141.3423469999999895
20
-45.2710529999999949
11
141.3472600000000057
21
-45.2647209999999944
0
LINE
8
F.Silkscreen
6
CONTINUOUS
10
141.3472600000000057
20
-45.2647209999999944
11
141.351711999999992
21
-45.2580589999999958
0
LINE
8
F.Silkscreen
6
CONTINUOUS
10
141.351711999999992
20
-45.2580589999999958
11
141.3521429999999839
21
-45.2576269999999994
0
LINE
8
F.Silkscreen
6
CONTINUOUS
10
141.3521429999999839
20
-45.2576269999999994
11
141.351713999999987
21
-45.2573409999999967
0
LINE
8
F.Silkscreen
6
CONTINUOUS
10
141.351713999999987
20
-45.2573409999999967
11
141.3279029999999921
21
-45.2335319999999967
0
LINE
8
F.Silkscreen
6
CONTINUOUS
10
141.3279029999999921
20
-45.2335319999999967
11
141.3234520000000032
21
-45.2268699999999981
0
LINE
8
F.Silkscreen
6
CONTINUOUS
10
141.3234520000000032
20
-45.2268699999999981
11
141.3185359999999946
21
-45.2205359999999956
0
LINE
8
F.Silkscreen
6
CONTINUOUS
10
141.3185359999999946
20
-45.2205359999999956
11
141.2947269999999946
21
-45.1729169999999982
0
LINE
8
F.Silkscreen
6
CONTINUOUS
10
141.2947269999999946
20
-45.1729169999999982
11
141.2940649999999891
21
-45.1705009999999945
0
LINE
8
F.Silkscreen
6
CONTINUOUS
10
141.2940649999999891
20
-45.1705009999999945
11
141.2932549999999878
21
-45.1696910000000003
0
LINE
8
F.Silkscreen
6
CONTINUOUS
10
141.2932549999999878
20
-45.1696910000000003
11
141.2916909999999859
21
-45.1618299999999948
0
LINE
8
F.Silkscreen
6
CONTINUOUS
10
141.2916909999999859
20
-45.1618299999999948
11
141.289574999999985
21
-45.1541009999999972
0
LINE
8
F.Silkscreen
6
CONTINUOUS
10
141.289574999999985
20
-45.1541009999999972
11
141.2899369999999806
21
-45.1530130000000014
0
LINE
8
F.Silkscreen
6
CONTINUOUS
10
141.2899369999999806
20
-45.1530130000000014
11
141.2894489999999905
21
-45.1505569999999992
0
LINE
8
F.Silkscreen
6
CONTINUOUS
10
141.2894489999999905
20
-45.1505569999999992
11
141.2894489999999905
21
-45.0791279999999972
0
LINE
8
F.Silkscreen
6
CONTINUOUS
10
141.2894489999999905
20
-45.0791279999999972
11
141.2899369999999806
21
-45.0766709999999975
0
LINE
8
F.Silkscreen
6
CONTINUOUS
10
141.2899369999999806
20
-45.0766709999999975
11
141.289574999999985
21
-45.0755839999999992
0
LINE
8
F.Silkscreen
6
CONTINUOUS
10
141.289574999999985
20
-45.0755839999999992
11
141.2916909999999859
21
-45.067853999999997
0
LINE
8
F.Silkscreen
6
CONTINUOUS
10
141.2916909999999859
20
-45.067853999999997
11
141.2932549999999878
21
-45.0599939999999961
0
LINE
8
F.Silkscreen
6
CONTINUOUS
10
141.2932549999999878
20
-45.0599939999999961
11
141.2940649999999891
21
-45.0591829999999973
0
LINE
8
F.Silkscreen
6
CONTINUOUS
10
141.2940649999999891
20
-45.0591829999999973
11
141.2947269999999946
21
-45.0567679999999982
0
LINE
8
F.Silkscreen
6
CONTINUOUS
10
141.2947269999999946
20
-45.0567679999999982
11
141.3185359999999946
21
-45.0091490000000007
0
LINE
8
F.Silkscreen
6
CONTINUOUS
10
141.3185359999999946
20
-45.0091490000000007
11
141.3234520000000032
21
-45.0028140000000008
0
LINE
8
F.Silkscreen
6
CONTINUOUS
10
141.3234520000000032
20
-45.0028140000000008
11
141.3279029999999921
21
-44.9961529999999996
0
LINE
8
F.Silkscreen
6
CONTINUOUS
10
141.3279029999999921
20
-44.9961529999999996
11
141.351713999999987
21
-44.9723439999999997
0
LINE
8
F.Silkscreen
6
CONTINUOUS
10
141.351713999999987
20
-44.9723439999999997
11
141.3583720000000028
21
-44.9678949999999986
0
LINE
8
F.Silkscreen
6
CONTINUOUS
10
141.3583720000000028
20
-44.9678949999999986
11
141.3647069999999815
21
-44.9629789999999971
0
LINE
8
F.Silkscreen
6
CONTINUOUS
10
141.3647069999999815
20
-44.9629789999999971
11
141.4123260000000073
21
-44.9391689999999997
0
LINE
8
F.Silkscreen
6
CONTINUOUS
10
141.4123260000000073
20
-44.9391689999999997
11
141.4147409999999923
21
-44.9385070000000013
0
LINE
8
F.Silkscreen
6
CONTINUOUS
10
141.4147409999999923
20
-44.9385070000000013
11
141.4155529999999885
21
-44.9376959999999954
0
LINE
8
F.Silkscreen
6
CONTINUOUS
10
141.4155529999999885
20
-44.9376959999999954
11
141.4234139999999798
21
-44.9361320000000006
0
LINE
8
F.Silkscreen
6
CONTINUOUS
10
141.4234139999999798
20
-44.9361320000000006
11
141.4311419999999941
21
-44.9340159999999997
0
LINE
8
F.Silkscreen
6
CONTINUOUS
10
141.4311419999999941
20
-44.9340159999999997
11
141.4322300000000041
21
-44.9343779999999953
0
LINE
8
F.Silkscreen
6
CONTINUOUS
10
141.4322300000000041
20
-44.9343779999999953
11
141.4346869999999967
21
-44.9338899999999981
0
LINE
8
F.Silkscreen
6
CONTINUOUS
10
141.4346869999999967
20
-44.9338899999999981
11
141.6251629999999864
21
-44.9338899999999981
0
LINE
8
F.Silkscreen
6
CONTINUOUS
10
141.6251629999999864
20
-44.9338899999999981
11
141.6442969999999946
21
-44.9376959999999954
0
LINE
8
F.Silkscreen
6
CONTINUOUS
10
141.4404930000000036
20
-45.3106969999999976
11
141.4281599999999912
21
-45.3230319999999978
0
LINE
8
F.Silkscreen
6
CONTINUOUS
10
141.4281599999999912
20
-45.3230319999999978
11
141.4132579999999848
21
-45.3528359999999964
0
LINE
8
F.Silkscreen
6
CONTINUOUS
10
141.4132579999999848
20
-45.3528359999999964
11
141.4132579999999848
21
-45.3768479999999954
0
LINE
8
F.Silkscreen
6
CONTINUOUS
10
141.4132579999999848
20
-45.3768479999999954
11
141.4281599999999912
21
-45.4066529999999986
0
LINE
8
F.Silkscreen
6
CONTINUOUS
10
141.4281599999999912
20
-45.4066529999999986
11
141.4404940000000011
21
-45.4189870000000013
0
LINE
8
F.Silkscreen
6
CONTINUOUS
10
141.4404940000000011
20
-45.4189870000000013
11
141.4702989999999829
21
-45.4338899999999981
0
LINE
8
F.Silkscreen
6
CONTINUOUS
10
141.4702989999999829
20
-45.4338899999999981
11
141.5751630000000034
21
-45.4338899999999981
0
LINE
8
F.Silkscreen
6
CONTINUOUS
10
141.5751630000000034
20
-45.4338899999999981
11
141.5751630000000034
21
-45.2957949999999983
0
LINE
8
F.Silkscreen
6
CONTINUOUS
10
141.5751630000000034
20
-45.2957949999999983
11
141.4702999999999804
21
-45.2957949999999983
0
LINE
8
F.Silkscreen
6
CONTINUOUS
10
141.4702999999999804
20
-45.2957949999999983
11
141.4404930000000036
21
-45.3106969999999976
0
LINE
8
F.Silkscreen
6
CONTINUOUS
10
141.4166859999999986
20
-45.0487919999999988
11
141.4043499999999938
21
-45.0611279999999965
0
LINE
8
F.Silkscreen
6
CONTINUOUS
10
141.4043499999999938
20
-45.0611279999999965
11
141.3894489999999848
21
-45.0909309999999977
0
LINE
8
F.Silkscreen
6
CONTINUOUS
10
141.3894489999999848
20
-45.0909309999999977
11
141.3894489999999848
21
-45.1387530000000012
0
LINE
8
F.Silkscreen
6
CONTINUOUS
10
141.3894489999999848
20
-45.1387530000000012
11
141.4043499999999938
21
-45.1685559999999953
0
LINE
8
F.Silkscreen
6
CONTINUOUS
10
141.4043499999999938
20
-45.1685559999999953
11
141.4140769999999918
21
-45.1782830000000004
0
LINE
8
F.Silkscreen
6
CONTINUOUS
10
141.4140769999999918
20
-45.1782830000000004
11
141.4666100000000029
21
-45.1957949999999968
0
LINE
8
F.Silkscreen
6
CONTINUOUS
10
141.4666100000000029
20
-45.1957949999999968
11
141.5751630000000034
21
-45.1957949999999968
0
LINE
8
F.Silkscreen
6
CONTINUOUS
10
141.5751630000000034
20
-45.1957949999999968
11
141.5751630000000034
21
-45.0338899999999995
0
LINE
8
F.Silkscreen
6
CONTINUOUS
10
141.5751630000000034
20
-45.0338899999999995
11
141.446489999999983
21
-45.0338899999999995
0
LINE
8
F.Silkscreen
6
CONTINUOUS
10
141.446489999999983
20
-45.0338899999999995
11
141.4166859999999986
21
-45.0487919999999988
0
LINE
8
F.Silkscreen
6
CONTINUOUS
10
141.1681059999999945
20
-44.9376959999999954
11
141.1951660000000004
21
-44.9647560000000013
0
LINE
8
F.Silkscreen
6
CONTINUOUS
10
141.1951660000000004
20
-44.9647560000000013
11
141.1951660000000004
21
-45.0030239999999964
0
LINE
8
F.Silkscreen
6
CONTINUOUS
10
141.1951660000000004
20
-45.0030239999999964
11
141.1681059999999945
21
-45.0300839999999951
0
LINE
8
F.Silkscreen
6
CONTINUOUS
10
141.1681059999999945
20
-45.0300839999999951
11
141.1489719999999863
21
-45.0338899999999995
0
LINE
8
F.Silkscreen
6
CONTINUOUS
10
141.1489719999999863
20
-45.0338899999999995
11
141.0561150000000055
21
-45.0338899999999995
0
LINE
8
F.Silkscreen
6
CONTINUOUS
10
141.0561150000000055
20
-45.0338899999999995
11
141.0561150000000055
21
-45.3393689999999978
0
LINE
8
F.Silkscreen
6
CONTINUOUS
10
141.0561150000000055
20
-45.3393689999999978
11
141.0659969999999817
21
-45.3294870000000003
0
LINE
8
F.Silkscreen
6
CONTINUOUS
10
141.0659969999999817
20
-45.3294870000000003
11
141.0726609999999823
21
-45.3250329999999977
0
LINE
8
F.Silkscreen
6
CONTINUOUS
10
141.0726609999999823
20
-45.3250329999999977
11
141.078992999999997
21
-45.3201199999999957
0
LINE
8
F.Silkscreen
6
CONTINUOUS
10
141.078992999999997
20
-45.3201199999999957
11
141.1266109999999969
21
-45.2963120000000004
0
LINE
8
F.Silkscreen
6
CONTINUOUS
10
141.1266109999999969
20
-45.2963120000000004
11
141.1454269999999838
21
-45.2911590000000004
0
LINE
8
F.Silkscreen
6
CONTINUOUS
10
141.1454269999999838
20
-45.2911590000000004
11
141.1817319999999825
21
-45.3032609999999991
0
LINE
8
F.Silkscreen
6
CONTINUOUS
10
141.1817319999999825
20
-45.3032609999999991
11
141.1988460000000032
21
-45.3374889999999979
0
LINE
8
F.Silkscreen
6
CONTINUOUS
10
141.1988460000000032
20
-45.3374889999999979
11
141.1867440000000045
21
-45.3737939999999966
0
LINE
8
F.Silkscreen
6
CONTINUOUS
10
141.1867440000000045
20
-45.3737939999999966
11
141.1713320000000067
21
-45.3857549999999961
0
LINE
8
F.Silkscreen
6
CONTINUOUS
10
141.1713320000000067
20
-45.3857549999999961
11
141.1309699999999907
21
-45.4059349999999995
0
LINE
8
F.Silkscreen
6
CONTINUOUS
10
141.1309699999999907
20
-45.4059349999999995
11
141.0925919999999962
21
-45.4443119999999965
0
LINE
8
F.Silkscreen
6
CONTINUOUS
10
141.0925919999999962
20
-45.4443119999999965
11
141.0477180000000033
21
-45.5116249999999951
0
LINE
8
F.Silkscreen
6
CONTINUOUS
10
141.0477180000000033
20
-45.5116249999999951
11
141.0339369999999803
21
-45.5254339999999971
0
LINE
8
F.Silkscreen
6
CONTINUOUS
10
141.0339369999999803
20
-45.5254339999999971
11
141.0288889999999924
21
-45.5264430000000004
0
LINE
8
F.Silkscreen
6
CONTINUOUS
10
141.0288889999999924
20
-45.5264430000000004
11
141.0252490000000023
21
-45.5300839999999951
0
LINE
8
F.Silkscreen
6
CONTINUOUS
10
141.0252490000000023
20
-45.5300839999999951
11
141.0106869999999901
21
-45.5300839999999951
0
LINE
8
F.Silkscreen
6
CONTINUOUS
10
141.0106869999999901
20
-45.5300839999999951
11
140.9964119999999923
21
-45.5329389999999989
0
LINE
8
F.Silkscreen
6
CONTINUOUS
10
140.9964119999999923
20
-45.5329389999999989
11
140.9921290000000056
21
-45.5300839999999951
0
LINE
8
F.Silkscreen
6
CONTINUOUS
10
140.9921290000000056
20
-45.5300839999999951
11
140.9869809999999859
21
-45.5300839999999951
0
LINE
8
F.Silkscreen
6
CONTINUOUS
10
140.9869809999999859
20
-45.5300839999999951
11
140.9766840000000059
21
-45.5197870000000009
0
LINE
8
F.Silkscreen
6
CONTINUOUS
10
140.9766840000000059
20
-45.5197870000000009
11
140.9645710000000065
21
-45.5117119999999957
0
LINE
8
F.Silkscreen
6
CONTINUOUS
10
140.9645710000000065
20
-45.5117119999999957
11
140.9635609999999986
21
-45.5066640000000007
0
LINE
8
F.Silkscreen
6
CONTINUOUS
10
140.9635609999999986
20
-45.5066640000000007
11
140.95992099999998
21
-45.5030239999999964
0
LINE
8
F.Silkscreen
6
CONTINUOUS
10
140.95992099999998
20
-45.5030239999999964
11
140.9561149999999827
21
-45.4838899999999953
0
LINE
8
F.Silkscreen
6
CONTINUOUS
10
140.9561149999999827
20
-45.4838899999999953
11
140.9561149999999827
21
-45.0338899999999995
0
LINE
8
F.Silkscreen
6
CONTINUOUS
10
140.9561149999999827
20
-45.0338899999999995
11
140.8632580000000019
21
-45.0338899999999995
0
LINE
8
F.Silkscreen
6
CONTINUOUS
10
140.8632580000000019
20
-45.0338899999999995
11
140.8441239999999937
21
-45.0300839999999951
0
LINE
8
F.Silkscreen
6
CONTINUOUS
10
140.8441239999999937
20
-45.0300839999999951
11
140.8170639999999878
21
-45.0030239999999964
0
LINE
8
F.Silkscreen
6
CONTINUOUS
10
140.8170639999999878
20
-45.0030239999999964
11
140.8170639999999878
21
-44.9647560000000013
0
LINE
8
F.Silkscreen
6
CONTINUOUS
10
140.8170639999999878
20
-44.9647560000000013
11
140.8441239999999937
21
-44.9376959999999954
0
LINE
8
F.Silkscreen
6
CONTINUOUS
10
140.8441239999999937
20
-44.9376959999999954
11
140.8632580000000019
21
-44.9338899999999981
0
LINE
8
F.Silkscreen
6
CONTINUOUS
10
140.8632580000000019
20
-44.9338899999999981
11
141.1489719999999863
21
-44.9338899999999981
0
LINE
8
F.Silkscreen
6
CONTINUOUS
10
141.1489719999999863
20
-44.9338899999999981
11
141.1681059999999945
21
-44.9376959999999954
0
LINE
8
F.Silkscreen
6
CONTINUOUS
10
149.267721999999992
20
-44.7236049999999992
11
149.2827589999999987
21
-44.7286179999999973
0
LINE
8
F.Silkscreen
6
CONTINUOUS
10
149.2827589999999987
20
-44.7286179999999973
11
149.2844289999999887
21
-44.7319579999999988
0
LINE
8
F.Silkscreen
6
CONTINUOUS
10
149.2844289999999887
20
-44.7319579999999988
11
149.2877719999999897
21
-44.733629999999998
0
LINE
8
F.Silkscreen
6
CONTINUOUS
10
149.2877719999999897
20
-44.733629999999998
11
149.2974329999999838
21
-44.7505789999999948
0
LINE
8
F.Silkscreen
6
CONTINUOUS
10
149.2974329999999838
20
-44.7505789999999948
11
149.4640990000000045
21
-45.2505789999999948
0
LINE
8
F.Silkscreen
6
CONTINUOUS
10
149.4640990000000045
20
-45.2505789999999948
11
149.4665389999999832
21
-45.2699339999999992
0
LINE
8
F.Silkscreen
6
CONTINUOUS
10
149.4665389999999832
20
-45.2699339999999992
11
149.4494249999999909
21
-45.3041629999999955
0
LINE
8
F.Silkscreen
6
CONTINUOUS
10
149.4494249999999909
20
-45.3041629999999955
11
149.4131209999999896
21
-45.3162639999999968
0
LINE
8
F.Silkscreen
6
CONTINUOUS
10
149.4131209999999896
20
-45.3162639999999968
11
149.3788919999999791
21
-45.2991499999999974
0
LINE
8
F.Silkscreen
6
CONTINUOUS
10
149.3788919999999791
20
-45.2991499999999974
11
149.369230999999985
21
-45.2822010000000006
0
LINE
8
F.Silkscreen
6
CONTINUOUS
10
149.369230999999985
20
-45.2822010000000006
11
149.249998000000005
21
-44.9245030000000014
0
LINE
8
F.Silkscreen
6
CONTINUOUS
10
149.249998000000005
20
-44.9245030000000014
11
149.1307659999999942
21
-45.2822010000000006
0
LINE
8
F.Silkscreen
6
CONTINUOUS
10
149.1307659999999942
20
-45.2822010000000006
11
149.121105
21
-45.2991499999999974
0
LINE
8
F.Silkscreen
6
CONTINUOUS
10
149.121105
20
-45.2991499999999974
11
149.0868759999999895
21
-45.3162639999999968
0
LINE
8
F.Silkscreen
6
CONTINUOUS
10
149.0868759999999895
20
-45.3162639999999968
11
149.0505719999999883
21
-45.3041629999999955
0
LINE
8
F.Silkscreen
6
CONTINUOUS
10
149.0505719999999883
20
-45.3041629999999955
11
149.033457999999996
21
-45.2699339999999992
0
LINE
8
F.Silkscreen
6
CONTINUOUS
10
149.033457999999996
20
-45.2699339999999992
11
149.0358980000000031
21
-45.2505789999999948
0
LINE
8
F.Silkscreen
6
CONTINUOUS
10
149.0358980000000031
20
-45.2505789999999948
11
149.2025649999999928
21
-44.7505789999999948
0
LINE
8
F.Silkscreen
6
CONTINUOUS
10
149.2025649999999928
20
-44.7505789999999948
11
149.2122259999999869
21
-44.733629999999998
0
LINE
8
F.Silkscreen
6
CONTINUOUS
10
149.2122259999999869
20
-44.733629999999998
11
149.2155679999999904
21
-44.7319589999999963
0
LINE
8
F.Silkscreen
6
CONTINUOUS
10
149.2155679999999904
20
-44.7319589999999963
11
149.2172390000000064
21
-44.7286169999999998
0
LINE
8
F.Silkscreen
6
CONTINUOUS
10
149.2172390000000064
20
-44.7286169999999998
11
149.2322779999999796
21
-44.7236029999999971
0
LINE
8
F.Silkscreen
6
CONTINUOUS
10
149.2322779999999796
20
-44.7236029999999971
11
149.2464549999999974
21
-44.7165159999999986
0
LINE
8
F.Silkscreen
6
CONTINUOUS
10
149.2464549999999974
20
-44.7165159999999986
11
149.249998000000005
21
-44.7176970000000011
0
LINE
8
F.Silkscreen
6
CONTINUOUS
10
149.249998000000005
20
-44.7176970000000011
11
149.2535429999999792
21
-44.7165159999999986
0
LINE
8
F.Silkscreen
6
CONTINUOUS
10
149.2535429999999792
20
-44.7165159999999986
11
149.267721999999992
21
-44.7236049999999992
0
LINE
8
F.Silkscreen
6
CONTINUOUS
10
148.2815769999999986
20
-44.4743780000000015
11
148.2826660000000061
21
-44.4740159999999989
0
LINE
8
F.Silkscreen
6
CONTINUOUS
10
148.2826660000000061
20
-44.4740159999999989
11
148.2903929999999946
21
-44.4761319999999998
0
LINE
8
F.Silkscreen
6
CONTINUOUS
10
148.2903929999999946
20
-44.4761319999999998
11
148.2982549999999833
21
-44.4776959999999946
0
LINE
8
F.Silkscreen
6
CONTINUOUS
10
148.2982549999999833
20
-44.4776959999999946
11
148.2990659999999821
21
-44.4785070000000005
0
LINE
8
F.Silkscreen
6
CONTINUOUS
10
148.2990659999999821
20
-44.4785070000000005
11
148.3014819999999929
21
-44.4791689999999988
0
LINE
8
F.Silkscreen
6
CONTINUOUS
10
148.3014819999999929
20
-44.4791689999999988
11
148.3491009999999903
21
-44.5029789999999963
0
LINE
8
F.Silkscreen
6
CONTINUOUS
10
148.3491009999999903
20
-44.5029789999999963
11
148.3554319999999791
21
-44.5078919999999982
0
LINE
8
F.Silkscreen
6
CONTINUOUS
10
148.3554319999999791
20
-44.5078919999999982
11
148.3620949999999823
21
-44.5123439999999988
0
LINE
8
F.Silkscreen
6
CONTINUOUS
10
148.3620949999999823
20
-44.5123439999999988
11
148.3859049999999797
21
-44.5361529999999988
0
LINE
8
F.Silkscreen
6
CONTINUOUS
10
148.3859049999999797
20
-44.5361529999999988
11
148.396743999999984
21
-44.5523740000000004
0
LINE
8
F.Silkscreen
6
CONTINUOUS
10
148.396743999999984
20
-44.5523740000000004
11
148.396743999999984
21
-44.590643
0
LINE
8
F.Silkscreen
6
CONTINUOUS
10
148.396743999999984
20
-44.590643
11
148.369685000000004
21
-44.6177029999999988
0
LINE
8
F.Silkscreen
6
CONTINUOUS
10
148.369685000000004
20
-44.6177029999999988
11
148.3314169999999876
21
-44.6177029999999988
0
LINE
8
F.Silkscreen
6
CONTINUOUS
10
148.3314169999999876
20
-44.6177029999999988
11
148.315195999999986
21
-44.6068649999999991
0
LINE
8
F.Silkscreen
6
CONTINUOUS
10
148.315195999999986
20
-44.6068649999999991
11
148.2971210000000042
21
-44.588791999999998
0
LINE
8
F.Silkscreen
6
CONTINUOUS
10
148.2971210000000042
20
-44.588791999999998
11
148.2673179999999888
21
-44.5738899999999987
0
LINE
8
F.Silkscreen
6
CONTINUOUS
10
148.2673179999999888
20
-44.5738899999999987
11
148.1480669999999975
21
-44.5738899999999987
0
LINE
8
F.Silkscreen
6
CONTINUOUS
10
148.1480669999999975
20
-44.5738899999999987
11
148.1182619999999872
21
-44.588791999999998
0
LINE
8
F.Silkscreen
6
CONTINUOUS
10
148.1182619999999872
20
-44.588791999999998
11
148.1059280000000058
21
-44.6011260000000007
0
LINE
8
F.Silkscreen
6
CONTINUOUS
10
148.1059280000000058
20
-44.6011260000000007
11
148.0910259999999994
21
-44.6309309999999968
0
LINE
8
F.Silkscreen
6
CONTINUOUS
10
148.0910259999999994
20
-44.6309309999999968
11
148.0910259999999994
21
-44.7263719999999978
0
LINE
8
F.Silkscreen
6
CONTINUOUS
10
148.0910259999999994
20
-44.7263719999999978
11
148.1059280000000058
21
-44.756177000000001
0
LINE
8
F.Silkscreen
6
CONTINUOUS
10
148.1059280000000058
20
-44.756177000000001
11
148.1182619999999872
21
-44.7685109999999966
0
LINE
8
F.Silkscreen
6
CONTINUOUS
10
148.1182619999999872
20
-44.7685109999999966
11
148.1480669999999975
21
-44.7834140000000005
0
LINE
8
F.Silkscreen
6
CONTINUOUS
10
148.1480669999999975
20
-44.7834140000000005
11
148.2076930000000061
21
-44.7834140000000005
0
LINE
8
F.Silkscreen
6
CONTINUOUS
10
148.2076930000000061
20
-44.7834140000000005
11
148.2216389999999819
21
-44.7861879999999957
0
LINE
8
F.Silkscreen
6
CONTINUOUS
10
148.2216389999999819
20
-44.7861879999999957
11
148.2237120000000061
21
-44.7860499999999959
0
LINE
8
F.Silkscreen
6
CONTINUOUS
10
148.2237120000000061
20
-44.7860499999999959
11
148.2245259999999973
21
-44.786761999999996
0
LINE
8
F.Silkscreen
6
CONTINUOUS
10
148.2245259999999973
20
-44.786761999999996
11
148.2268269999999859
21
-44.7872199999999978
0
LINE
8
F.Silkscreen
6
CONTINUOUS
10
148.2268269999999859
20
-44.7872199999999978
11
148.2392669999999839
21
-44.7996599999999958
0
LINE
8
F.Silkscreen
6
CONTINUOUS
10
148.2392669999999839
20
-44.7996599999999958
11
148.2525119999999959
21
-44.8112489999999966
0
LINE
8
F.Silkscreen
6
CONTINUOUS
10
148.2525119999999959
20
-44.8112489999999966
11
148.2526299999999821
21
-44.8130230000000012
0
LINE
8
F.Silkscreen
6
CONTINUOUS
10
148.2526299999999821
20
-44.8130230000000012
11
148.2538869999999918
21
-44.8142799999999966
0
LINE
8
F.Silkscreen
6
CONTINUOUS
10
148.2538869999999918
20
-44.8142799999999966
11
148.2538869999999918
21
-44.8318779999999961
0
LINE
8
F.Silkscreen
6
CONTINUOUS
10
148.2538869999999918
20
-44.8318779999999961
11
148.2550569999999936
21
-44.8494329999999977
0
LINE
8
F.Silkscreen
6
CONTINUOUS
10
148.2550569999999936
20
-44.8494329999999977
11
148.2538869999999918
21
-44.851464
0
LINE
8
F.Silkscreen
6
CONTINUOUS
10
148.2538869999999918
20
-44.851464
11
148.2538869999999918
21
-44.8525479999999988
0
LINE
8
F.Silkscreen
6
CONTINUOUS
10
148.2538869999999918
20
-44.8525479999999988
11
148.2524159999999824
21
-44.8540179999999964
0
LINE
8
F.Silkscreen
6
CONTINUOUS
10
148.2524159999999824
20
-44.8540179999999964
11
148.2453219999999874
21
-44.8663389999999964
0
LINE
8
F.Silkscreen
6
CONTINUOUS
10
148.2453219999999874
20
-44.8663389999999964
11
148.1512149999999792
21
-44.9738899999999973
0
LINE
8
F.Silkscreen
6
CONTINUOUS
10
148.1512149999999792
20
-44.9738899999999973
11
148.3505499999999984
21
-44.9738899999999973
0
LINE
8
F.Silkscreen
6
CONTINUOUS
10
148.3505499999999984
20
-44.9738899999999973
11
148.3696840000000066
21
-44.9776959999999946
0
LINE
8
F.Silkscreen
6
CONTINUOUS
10
148.3696840000000066
20
-44.9776959999999946
11
148.396743999999984
21
-45.0047560000000004
0
LINE
8
F.Silkscreen
6
CONTINUOUS
10
148.396743999999984
20
-45.0047560000000004
11
148.396743999999984
21
-45.0430239999999955
0
LINE
8
F.Silkscreen
6
CONTINUOUS
10
148.396743999999984
20
-45.0430239999999955
11
148.3696840000000066
21
-45.0700840000000014
0
LINE
8
F.Silkscreen
6
CONTINUOUS
10
148.3696840000000066
20
-45.0700840000000014
11
148.3505499999999984
21
-45.0738899999999987
0
LINE
8
F.Silkscreen
6
CONTINUOUS
10
148.3505499999999984
20
-45.0738899999999987
11
148.041025999999988
21
-45.0738899999999987
0
LINE
8
F.Silkscreen
6
CONTINUOUS
10
148.041025999999988
20
-45.0738899999999987
11
148.0270789999999863
21
-45.0711149999999989
0
LINE
8
F.Silkscreen
6
CONTINUOUS
10
148.0270789999999863
20
-45.0711149999999989
11
148.025006999999988
21
-45.0712539999999962
0
LINE
8
F.Silkscreen
6
CONTINUOUS
10
148.025006999999988
20
-45.0712539999999962
11
148.0241919999999993
21
-45.0705409999999986
0
LINE
8
F.Silkscreen
6
CONTINUOUS
10
148.0241919999999993
20
-45.0705409999999986
11
148.0218919999999798
21
-45.0700840000000014
0
LINE
8
F.Silkscreen
6
CONTINUOUS
10
148.0218919999999798
20
-45.0700840000000014
11
148.0094509999999843
21
-45.0576429999999988
0
LINE
8
F.Silkscreen
6
CONTINUOUS
10
148.0094509999999843
20
-45.0576429999999988
11
147.9962069999999983
21
-45.0460549999999955
0
LINE
8
F.Silkscreen
6
CONTINUOUS
10
147.9962069999999983
20
-45.0460549999999955
11
147.9960879999999861
21
-45.0442800000000005
0
LINE
8
F.Silkscreen
6
CONTINUOUS
10
147.9960879999999861
20
-45.0442800000000005
11
147.9948320000000024
21
-45.0430239999999955
0
LINE
8
F.Silkscreen
6
CONTINUOUS
10
147.9948320000000024
20
-45.0430239999999955
11
147.9948320000000024
21
-45.0254249999999985
0
LINE
8
F.Silkscreen
6
CONTINUOUS
10
147.9948320000000024
20
-45.0254249999999985
11
147.9936620000000005
21
-45.0078710000000015
0
LINE
8
F.Silkscreen
6
CONTINUOUS
10
147.9936620000000005
20
-45.0078710000000015
11
147.9948320000000024
21
-45.0058389999999946
0
LINE
8
F.Silkscreen
6
CONTINUOUS
10
147.9948320000000024
20
-45.0058389999999946
11
147.9948320000000024
21
-45.0047560000000004
0
LINE
8
F.Silkscreen
6
CONTINUOUS
10
147.9948320000000024
20
-45.0047560000000004
11
147.9963019999999858
21
-45.0032849999999982
0
LINE
8
F.Silkscreen
6
CONTINUOUS
10
147.9963019999999858
20
-45.0032849999999982
11
148.0033970000000068
21
-44.9909649999999957
0
LINE
8
F.Silkscreen
6
CONTINUOUS
10
148.0033970000000068
20
-44.9909649999999957
11
148.1057079999999928
21
-44.8740370000000013
0
LINE
8
F.Silkscreen
6
CONTINUOUS
10
148.1057079999999928
20
-44.8740370000000013
11
148.066283999999996
21
-44.8543249999999958
0
LINE
8
F.Silkscreen
6
CONTINUOUS
10
148.066283999999996
20
-44.8543249999999958
11
148.0599489999999889
21
-44.8494090000000014
0
LINE
8
F.Silkscreen
6
CONTINUOUS
10
148.0599489999999889
20
-44.8494090000000014
11
148.0532900000000041
21
-44.8449589999999958
0
LINE
8
F.Silkscreen
6
CONTINUOUS
10
148.0532900000000041
20
-44.8449589999999958
11
148.0294810000000041
21
-44.8211499999999958
0
LINE
8
F.Silkscreen
6
CONTINUOUS
10
148.0294810000000041
20
-44.8211499999999958
11
148.0250299999999868
21
-44.8144899999999993
0
LINE
8
F.Silkscreen
6
CONTINUOUS
10
148.0250299999999868
20
-44.8144899999999993
11
148.0201150000000041
21
-44.8081559999999968
0
LINE
8
F.Silkscreen
6
CONTINUOUS
10
148.0201150000000041
20
-44.8081559999999968
11
147.9963050000000067
21
-44.7605369999999994
0
LINE
8
F.Silkscreen
6
CONTINUOUS
10
147.9963050000000067
20
-44.7605369999999994
11
147.9956430000000012
21
-44.7581209999999956
0
LINE
8
F.Silkscreen
6
CONTINUOUS
10
147.9956430000000012
20
-44.7581209999999956
11
147.9948320000000024
21
-44.7573099999999968
0
LINE
8
F.Silkscreen
6
CONTINUOUS
10
147.9948320000000024
20
-44.7573099999999968
11
147.9932680000000005
21
-44.749448000000001
0
LINE
8
F.Silkscreen
6
CONTINUOUS
10
147.9932680000000005
20
-44.749448000000001
11
147.9911519999999996
21
-44.7417209999999983
0
LINE
8
F.Silkscreen
6
CONTINUOUS
10
147.9911519999999996
20
-44.7417209999999983
11
147.9915139999999951
21
-44.740631999999998
0
LINE
8
F.Silkscreen
6
CONTINUOUS
10
147.9915139999999951
20
-44.740631999999998
11
147.9910260000000051
21
-44.7381759999999957
0
LINE
8
F.Silkscreen
6
CONTINUOUS
10
147.9910260000000051
20
-44.7381759999999957
11
147.9910260000000051
21
-44.6191279999999963
0
LINE
8
F.Silkscreen
6
CONTINUOUS
10
147.9910260000000051
20
-44.6191279999999963
11
147.9915139999999951
21
-44.6166709999999966
0
LINE
8
F.Silkscreen
6
CONTINUOUS
10
147.9915139999999951
20
-44.6166709999999966
11
147.9911519999999996
21
-44.6155830000000009
0
LINE
8
F.Silkscreen
6
CONTINUOUS
10
147.9911519999999996
20
-44.6155830000000009
11
147.9932680000000005
21
-44.6078550000000007
0
LINE
8
F.Silkscreen
6
CONTINUOUS
10
147.9932680000000005
20
-44.6078550000000007
11
147.9948320000000024
21
-44.5999939999999953
0
LINE
8
F.Silkscreen
6
CONTINUOUS
10
147.9948320000000024
20
-44.5999939999999953
11
147.9956430000000012
21
-44.599181999999999
0
LINE
8
F.Silkscreen
6
CONTINUOUS
10
147.9956430000000012
20
-44.599181999999999
11
147.9963050000000067
21
-44.5967669999999998
0
LINE
8
F.Silkscreen
6
CONTINUOUS
10
147.9963050000000067
20
-44.5967669999999998
11
148.0201150000000041
21
-44.5491479999999953
0
LINE
8
F.Silkscreen
6
CONTINUOUS
10
148.0201150000000041
20
-44.5491479999999953
11
148.0250299999999868
21
-44.5428129999999953
0
LINE
8
F.Silkscreen
6
CONTINUOUS
10
148.0250299999999868
20
-44.5428129999999953
11
148.0294810000000041
21
-44.5361539999999962
0
LINE
8
F.Silkscreen
6
CONTINUOUS
10
148.0294810000000041
20
-44.5361539999999962
11
148.0532900000000041
21
-44.5123449999999963
0
LINE
8
F.Silkscreen
6
CONTINUOUS
10
148.0532900000000041
20
-44.5123449999999963
11
148.0599489999999889
21
-44.5078940000000003
0
LINE
8
F.Silkscreen
6
CONTINUOUS
10
148.0599489999999889
20
-44.5078940000000003
11
148.066283999999996
21
-44.5029789999999963
0
LINE
8
F.Silkscreen
6
CONTINUOUS
10
148.066283999999996
20
-44.5029789999999963
11
148.1139029999999934
21
-44.4791689999999988
0
LINE
8
F.Silkscreen
6
CONTINUOUS
10
148.1139029999999934
20
-44.4791689999999988
11
148.1163180000000068
21
-44.4785070000000005
0
LINE
8
F.Silkscreen
6
CONTINUOUS
10
148.1163180000000068
20
-44.4785070000000005
11
148.1171300000000031
21
-44.4776959999999946
0
LINE
8
F.Silkscreen
6
CONTINUOUS
10
148.1171300000000031
20
-44.4776959999999946
11
148.1249909999999943
21
-44.4761319999999998
0
LINE
8
F.Silkscreen
6
CONTINUOUS
10
148.1249909999999943
20
-44.4761319999999998
11
148.1327189999999803
21
-44.4740159999999989
0
LINE
8
F.Silkscreen
6
CONTINUOUS
10
148.1327189999999803
20
-44.4740159999999989
11
148.1338069999999902
21
-44.4743780000000015
0
LINE
8
F.Silkscreen
6
CONTINUOUS
10
148.1338069999999902
20
-44.4743780000000015
11
148.1362639999999828
21
-44.4738899999999973
0
LINE
8
F.Silkscreen
6
CONTINUOUS
10
148.1362639999999828
20
-44.4738899999999973
11
148.2791210000000035
21
-44.4738899999999973
0
LINE
8
F.Silkscreen
6
CONTINUOUS
10
148.2791210000000035
20
-44.4738899999999973
11
148.2815769999999986
21
-44.4743780000000015
0
LINE
8
F.Silkscreen
6
CONTINUOUS
10
148.8356899999999996
20
-44.4861170000000001
11
148.8528039999999919
21
-44.5203459999999964
0
LINE
8
F.Silkscreen
6
CONTINUOUS
10
148.8528039999999919
20
-44.5203459999999964
11
148.8503639999999848
21
-44.5397010000000009
0
LINE
8
F.Silkscreen
6
CONTINUOUS
10
148.8503639999999848
20
-44.5397010000000009
11
148.6836979999999926
21
-45.0397010000000009
0
LINE
8
F.Silkscreen
6
CONTINUOUS
10
148.6836979999999926
20
-45.0397010000000009
11
148.6740369999999984
21
-45.0566499999999976
0
LINE
8
F.Silkscreen
6
CONTINUOUS
10
148.6740369999999984
20
-45.0566499999999976
11
148.6706939999999975
21
-45.0583209999999994
0
LINE
8
F.Silkscreen
6
CONTINUOUS
10
148.6706939999999975
20
-45.0583209999999994
11
148.6690240000000074
21
-45.0616619999999983
0
LINE
8
F.Silkscreen
6
CONTINUOUS
10
148.6690240000000074
20
-45.0616619999999983
11
148.6539870000000008
21
-45.066673999999999
0
LINE
8
F.Silkscreen
6
CONTINUOUS
10
148.6539870000000008
20
-45.066673999999999
11
148.6398079999999879
21
-45.0737639999999971
0
LINE
8
F.Silkscreen
6
CONTINUOUS
10
148.6398079999999879
20
-45.0737639999999971
11
148.6362629999999854
21
-45.072581999999997
0
LINE
8
F.Silkscreen
6
CONTINUOUS
10
148.6362629999999854
20
-45.072581999999997
11
148.6327200000000062
21
-45.0737639999999971
0
LINE
8
F.Silkscreen
6
CONTINUOUS
10
148.6327200000000062
20
-45.0737639999999971
11
148.6185429999999883
21
-45.0666760000000011
0
LINE
8
F.Silkscreen
6
CONTINUOUS
10
148.6185429999999883
20
-45.0666760000000011
11
148.6035039999999867
21
-45.0616629999999958
0
LINE
8
F.Silkscreen
6
CONTINUOUS
10
148.6035039999999867
20
-45.0616629999999958
11
148.6018329999999992
21
-45.0583199999999948
0
LINE
8
F.Silkscreen
6
CONTINUOUS
10
148.6018329999999992
20
-45.0583199999999948
11
148.5984909999999957
21
-45.0566499999999976
0
LINE
8
F.Silkscreen
6
CONTINUOUS
10
148.5984909999999957
20
-45.0566499999999976
11
148.5888300000000015
21
-45.0397010000000009
0
LINE
8
F.Silkscreen
6
CONTINUOUS
10
148.5888300000000015
20
-45.0397010000000009
11
148.4221629999999834
21
-44.5397010000000009
0
LINE
8
F.Silkscreen
6
CONTINUOUS
10
148.4221629999999834
20
-44.5397010000000009
11
148.4197230000000047
21
-44.5203459999999964
0
LINE
8
F.Silkscreen
6
CONTINUOUS
10
148.4197230000000047
20
-44.5203459999999964
11
148.436836999999997
21
-44.4861170000000001
0
LINE
8
F.Silkscreen
6
CONTINUOUS
10
148.436836999999997
20
-44.4861170000000001
11
148.4731409999999983
21
-44.4740159999999989
0
LINE
8
F.Silkscreen
6
CONTINUOUS
10
148.4731409999999983
20
-44.4740159999999989
11
148.5073699999999803
21
-44.4911299999999983
0
LINE
8
F.Silkscreen
6
CONTINUOUS
10
148.5073699999999803
20
-44.4911299999999983
11
148.5170310000000029
21
-44.5080789999999951
0
LINE
8
F.Silkscreen
6
CONTINUOUS
10
148.5170310000000029
20
-44.5080789999999951
11
148.5532539999999813
21
-44.6167469999999966
0
LINE
8
F.Silkscreen
6
CONTINUOUS
10
148.5532539999999813
20
-44.6167469999999966
11
148.719272999999987
21
-44.6167469999999966
0
LINE
8
F.Silkscreen
6
CONTINUOUS
10
148.719272999999987
20
-44.6167469999999966
11
148.7554959999999937
21
-44.5080789999999951
0
LINE
8
F.Silkscreen
6
CONTINUOUS
10
148.7554959999999937
20
-44.5080789999999951
11
148.7651569999999879
21
-44.4911299999999983
0
LINE
8
F.Silkscreen
6
CONTINUOUS
10
148.7651569999999879
20
-44.4911299999999983
11
148.7993859999999984
21
-44.4740159999999989
0
LINE
8
F.Silkscreen
6
CONTINUOUS
10
148.7993859999999984
20
-44.4740159999999989
11
148.8356899999999996
21
-44.4861170000000001
0
LINE
8
F.Silkscreen
6
CONTINUOUS
10
148.6362629999999854
20
-44.8657759999999968
11
148.685939999999988
21
-44.716746999999998
0
LINE
8
F.Silkscreen
6
CONTINUOUS
10
148.685939999999988
20
-44.716746999999998
11
148.5865869999999802
21
-44.716746999999998
0
LINE
8
F.Silkscreen
6
CONTINUOUS
10
148.5865869999999802
20
-44.716746999999998
11
148.6362629999999854
21
-44.8657759999999968
0
LINE
8
F.Silkscreen
6
CONTINUOUS
10
140.8208809999999858
20
-44.2047559999999962
11
140.8246869999999831
21
-44.2238899999999973
0
LINE
8
F.Silkscreen
6
CONTINUOUS
10
140.8246869999999831
20
-44.2238899999999973
11
140.8246869999999831
21
-44.3405569999999969
0
LINE
8
F.Silkscreen
6
CONTINUOUS
10
140.8246869999999831
20
-44.3405569999999969
11
141.0127819999999872
21
-44.3405569999999969
0
LINE
8
F.Silkscreen
6
CONTINUOUS
10
141.0127819999999872
20
-44.3405569999999969
11
141.0319159999999954
21
-44.3443630000000013
0
LINE
8
F.Silkscreen
6
CONTINUOUS
10
141.0319159999999954
20
-44.3443630000000013
11
141.0377340000000004
21
-44.3501809999999992
0
LINE
8
F.Silkscreen
6
CONTINUOUS
10
141.0377340000000004
20
-44.3501809999999992
11
141.0455419999999833
21
-44.3527839999999998
0
LINE
8
F.Silkscreen
6
CONTINUOUS
10
141.0455419999999833
20
-44.3527839999999998
11
141.0507470000000012
21
-44.363194
0
LINE
8
F.Silkscreen
6
CONTINUOUS
10
141.0507470000000012
20
-44.363194
11
141.0589760000000012
21
-44.3714230000000001
0
LINE
8
F.Silkscreen
6
CONTINUOUS
10
141.0589760000000012
20
-44.3714230000000001
11
141.0589760000000012
21
-44.3796520000000001
0
LINE
8
F.Silkscreen
6
CONTINUOUS
10
141.0589760000000012
20
-44.3796520000000001
11
141.062656000000004
21
-44.3870119999999986
0
LINE
8
F.Silkscreen
6
CONTINUOUS
10
141.062656000000004
20
-44.3870119999999986
11
141.0602159999999969
21
-44.4063680000000005
0
LINE
8
F.Silkscreen
6
CONTINUOUS
10
141.0602159999999969
20
-44.4063680000000005
11
140.9411690000000021
21
-44.7635110000000012
0
LINE
8
F.Silkscreen
6
CONTINUOUS
10
140.9411690000000021
20
-44.7635110000000012
11
140.9315079999999796
21
-44.7804599999999979
0
LINE
8
F.Silkscreen
6
CONTINUOUS
10
140.9315079999999796
20
-44.7804599999999979
11
140.8972789999999975
21
-44.7975739999999973
0
LINE
8
F.Silkscreen
6
CONTINUOUS
10
140.8972789999999975
20
-44.7975739999999973
11
140.8609749999999963
21
-44.7854729999999961
0
LINE
8
F.Silkscreen
6
CONTINUOUS
10
140.8609749999999963
20
-44.7854729999999961
11
140.843861000000004
21
-44.7512439999999998
0
LINE
8
F.Silkscreen
6
CONTINUOUS
10
140.843861000000004
20
-44.7512439999999998
11
140.8463009999999827
21
-44.7318889999999953
0
LINE
8
F.Silkscreen
6
CONTINUOUS
10
140.8463009999999827
20
-44.7318889999999953
11
140.9434109999999976
21
-44.4405569999999983
0
LINE
8
F.Silkscreen
6
CONTINUOUS
10
140.9434109999999976
20
-44.4405569999999983
11
140.8246869999999831
21
-44.4405569999999983
0
LINE
8
F.Silkscreen
6
CONTINUOUS
10
140.8246869999999831
20
-44.4405569999999983
11
140.8246869999999831
21
-44.5572230000000005
0
LINE
8
F.Silkscreen
6
CONTINUOUS
10
140.8246869999999831
20
-44.5572230000000005
11
140.8208809999999858
21
-44.5763569999999945
0
LINE
8
F.Silkscreen
6
CONTINUOUS
10
140.8208809999999858
20
-44.5763569999999945
11
140.7938209999999799
21
-44.6034170000000003
0
LINE
8
F.Silkscreen
6
CONTINUOUS
10
140.7938209999999799
20
-44.6034170000000003
11
140.7555529999999919
21
-44.6034170000000003
0
LINE
8
F.Silkscreen
6
CONTINUOUS
10
140.7555529999999919
20
-44.6034170000000003
11
140.7284929999999861
21
-44.5763569999999945
0
LINE
8
F.Silkscreen
6
CONTINUOUS
10
140.7284929999999861
20
-44.5763569999999945
11
140.7246869999999888
21
-44.5572230000000005
0
LINE
8
F.Silkscreen
6
CONTINUOUS
10
140.7246869999999888
20
-44.5572230000000005
11
140.7246869999999888
21
-44.4405569999999983
0
LINE
8
F.Silkscreen
6
CONTINUOUS
10
140.7246869999999888
20
-44.4405569999999983
11
140.7032590000000027
21
-44.4405569999999983
0
LINE
8
F.Silkscreen
6
CONTINUOUS
10
140.7032590000000027
20
-44.4405569999999983
11
140.6841249999999945
21
-44.436751000000001
0
LINE
8
F.Silkscreen
6
CONTINUOUS
10
140.6841249999999945
20
-44.436751000000001
11
140.6570649999999887
21
-44.4096909999999951
0
LINE
8
F.Silkscreen
6
CONTINUOUS
10
140.6570649999999887
20
-44.4096909999999951
11
140.6570649999999887
21
-44.3714230000000001
0
LINE
8
F.Silkscreen
6
CONTINUOUS
10
140.6570649999999887
20
-44.3714230000000001
11
140.6841249999999945
21
-44.3443630000000013
0
LINE
8
F.Silkscreen
6
CONTINUOUS
10
140.6841249999999945
20
-44.3443630000000013
11
140.7032590000000027
21
-44.3405569999999969
0
LINE
8
F.Silkscreen
6
CONTINUOUS
10
140.7032590000000027
20
-44.3405569999999969
11
140.7246869999999888
21
-44.3405569999999969
0
LINE
8
F.Silkscreen
6
CONTINUOUS
10
140.7246869999999888
20
-44.3405569999999969
11
140.7246869999999888
21
-44.2238899999999973
0
LINE
8
F.Silkscreen
6
CONTINUOUS
10
140.7246869999999888
20
-44.2238899999999973
11
140.7284929999999861
21
-44.2047559999999962
0
LINE
8
F.Silkscreen
6
CONTINUOUS
10
140.7284929999999861
20
-44.2047559999999962
11
140.7555529999999919
21
-44.1776959999999974
0
LINE
8
F.Silkscreen
6
CONTINUOUS
10
140.7555529999999919
20
-44.1776959999999974
11
140.7938209999999799
21
-44.1776959999999974
0
LINE
8
F.Silkscreen
6
CONTINUOUS
10
140.7938209999999799
20
-44.1776959999999974
11
140.8208809999999858
21
-44.2047559999999962
0
LINE
8
F.Silkscreen
6
CONTINUOUS
10
141.984296999999998
20
-44.1776959999999974
11
142.0113570000000038
21
-44.2047559999999962
0
LINE
8
F.Silkscreen
6
CONTINUOUS
10
142.0113570000000038
20
-44.2047559999999962
11
142.0151630000000011
21
-44.2238899999999973
0
LINE
8
F.Silkscreen
6
CONTINUOUS
10
142.0151630000000011
20
-44.2238899999999973
11
142.0151630000000011
21
-44.7238899999999973
0
LINE
8
F.Silkscreen
6
CONTINUOUS
10
142.0151630000000011
20
-44.7238899999999973
11
142.0113570000000038
21
-44.7430239999999984
0
LINE
8
F.Silkscreen
6
CONTINUOUS
10
142.0113570000000038
20
-44.7430239999999984
11
141.984296999999998
21
-44.7700839999999971
0
LINE
8
F.Silkscreen
6
CONTINUOUS
10
141.984296999999998
20
-44.7700839999999971
11
141.9651629999999898
21
-44.7738900000000015
0
LINE
8
F.Silkscreen
6
CONTINUOUS
10
141.9651629999999898
20
-44.7738900000000015
11
141.7984960000000001
21
-44.7738900000000015
0
LINE
8
F.Silkscreen
6
CONTINUOUS
10
141.7984960000000001
20
-44.7738900000000015
11
141.7960390000000075
21
-44.7734009999999998
0
LINE
8
F.Silkscreen
6
CONTINUOUS
10
141.7960390000000075
20
-44.7734009999999998
11
141.7949509999999975
21
-44.7737639999999999
0
LINE
8
F.Silkscreen
6
CONTINUOUS
10
141.7949509999999975
20
-44.7737639999999999
11
141.7872229999999831
21
-44.7716470000000015
0
LINE
8
F.Silkscreen
6
CONTINUOUS
10
141.7872229999999831
20
-44.7716470000000015
11
141.7793619999999919
21
-44.7700839999999971
0
LINE
8
F.Silkscreen
6
CONTINUOUS
10
141.7793619999999919
20
-44.7700839999999971
11
141.7785499999999956
21
-44.7692720000000008
0
LINE
8
F.Silkscreen
6
CONTINUOUS
10
141.7785499999999956
20
-44.7692720000000008
11
141.7761349999999823
21
-44.7686109999999999
0
LINE
8
F.Silkscreen
6
CONTINUOUS
10
141.7761349999999823
20
-44.7686109999999999
11
141.7285159999999848
21
-44.7448009999999954
0
LINE
8
F.Silkscreen
6
CONTINUOUS
10
141.7285159999999848
20
-44.7448009999999954
11
141.7221810000000062
21
-44.739885000000001
0
LINE
8
F.Silkscreen
6
CONTINUOUS
10
141.7221810000000062
20
-44.739885000000001
11
141.7155219999999929
21
-44.7354349999999954
0
LINE
8
F.Silkscreen
6
CONTINUOUS
10
141.7155219999999929
20
-44.7354349999999954
11
141.6917129999999929
21
-44.7116259999999954
0
LINE
8
F.Silkscreen
6
CONTINUOUS
10
141.6917129999999929
20
-44.7116259999999954
11
141.687262000000004
21
-44.7049659999999989
0
LINE
8
F.Silkscreen
6
CONTINUOUS
10
141.687262000000004
20
-44.7049659999999989
11
141.6823469999999929
21
-44.6986319999999964
0
LINE
8
F.Silkscreen
6
CONTINUOUS
10
141.6823469999999929
20
-44.6986319999999964
11
141.6585369999999955
21
-44.651012999999999
0
LINE
8
F.Silkscreen
6
CONTINUOUS
10
141.6585369999999955
20
-44.651012999999999
11
141.65787499999999
21
-44.6485969999999952
0
LINE
8
F.Silkscreen
6
CONTINUOUS
10
141.65787499999999
20
-44.6485969999999952
11
141.6570639999999912
21
-44.6477859999999964
0
LINE
8
F.Silkscreen
6
CONTINUOUS
10
141.6570639999999912
20
-44.6477859999999964
11
141.6554999999999893
21
-44.6399240000000006
0
LINE
8
F.Silkscreen
6
CONTINUOUS
10
141.6554999999999893
20
-44.6399240000000006
11
141.6533839999999884
21
-44.6321969999999979
0
LINE
8
F.Silkscreen
6
CONTINUOUS
10
141.6533839999999884
20
-44.6321969999999979
11
141.653745999999984
21
-44.6311079999999976
0
LINE
8
F.Silkscreen
6
CONTINUOUS
10
141.653745999999984
20
-44.6311079999999976
11
141.6532579999999939
21
-44.6286519999999953
0
LINE
8
F.Silkscreen
6
CONTINUOUS
10
141.6532579999999939
20
-44.6286519999999953
11
141.6532579999999939
21
-44.5810329999999979
0
LINE
8
F.Silkscreen
6
CONTINUOUS
10
141.6532579999999939
20
-44.5810329999999979
11
141.653745999999984
21
-44.5785759999999982
0
LINE
8
F.Silkscreen
6
CONTINUOUS
10
141.653745999999984
20
-44.5785759999999982
11
141.6533839999999884
21
-44.5774879999999953
0
LINE
8
F.Silkscreen
6
CONTINUOUS
10
141.6533839999999884
20
-44.5774879999999953
11
141.6554999999999893
21
-44.5697599999999952
0
LINE
8
F.Silkscreen
6
CONTINUOUS
10
141.6554999999999893
20
-44.5697599999999952
11
141.6570639999999912
21
-44.5618989999999968
0
LINE
8
F.Silkscreen
6
CONTINUOUS
10
141.6570639999999912
20
-44.5618989999999968
11
141.65787499999999
21
-44.5610870000000006
0
LINE
8
F.Silkscreen
6
CONTINUOUS
10
141.65787499999999
20
-44.5610870000000006
11
141.6585369999999955
21
-44.5586720000000014
0
LINE
8
F.Silkscreen
6
CONTINUOUS
10
141.6585369999999955
20
-44.5586720000000014
11
141.6823469999999929
21
-44.5110529999999969
0
LINE
8
F.Silkscreen
6
CONTINUOUS
10
141.6823469999999929
20
-44.5110529999999969
11
141.6872599999999807
21
-44.5047209999999964
0
LINE
8
F.Silkscreen
6
CONTINUOUS
10
141.6872599999999807
20
-44.5047209999999964
11
141.6917119999999954
21
-44.4980589999999978
0
LINE
8
F.Silkscreen
6
CONTINUOUS
10
141.6917119999999954
20
-44.4980589999999978
11
141.6921429999999873
21
-44.4976270000000014
0
LINE
8
F.Silkscreen
6
CONTINUOUS
10
141.6921429999999873
20
-44.4976270000000014
11
141.6917139999999904
21
-44.4973409999999987
0
LINE
8
F.Silkscreen
6
CONTINUOUS
10
141.6917139999999904
20
-44.4973409999999987
11
141.6679029999999955
21
-44.4735319999999987
0
LINE
8
F.Silkscreen
6
CONTINUOUS
10
141.6679029999999955
20
-44.4735319999999987
11
141.6634520000000066
21
-44.4668700000000001
0
LINE
8
F.Silkscreen
6
CONTINUOUS
10
141.6634520000000066
20
-44.4668700000000001
11
141.658535999999998
21
-44.4605359999999976
0
LINE
8
F.Silkscreen
6
CONTINUOUS
10
141.658535999999998
20
-44.4605359999999976
11
141.634726999999998
21
-44.4129170000000002
0
LINE
8
F.Silkscreen
6
CONTINUOUS
10
141.634726999999998
20
-44.4129170000000002
11
141.6340649999999926
21
-44.4105009999999965
0
LINE
8
F.Silkscreen
6
CONTINUOUS
10
141.6340649999999926
20
-44.4105009999999965
11
141.6332549999999912
21
-44.4096909999999951
0
LINE
8
F.Silkscreen
6
CONTINUOUS
10
141.6332549999999912
20
-44.4096909999999951
11
141.6316909999999893
21
-44.4018299999999968
0
LINE
8
F.Silkscreen
6
CONTINUOUS
10
141.6316909999999893
20
-44.4018299999999968
11
141.6295749999999884
21
-44.3941009999999991
0
LINE
8
F.Silkscreen
6
CONTINUOUS
10
141.6295749999999884
20
-44.3941009999999991
11
141.629936999999984
21
-44.3930129999999963
0
LINE
8
F.Silkscreen
6
CONTINUOUS
10
141.629936999999984
20
-44.3930129999999963
11
141.6294489999999939
21
-44.3905570000000012
0
LINE
8
F.Silkscreen
6
CONTINUOUS
10
141.6294489999999939
20
-44.3905570000000012
11
141.6294489999999939
21
-44.3191279999999992
0
LINE
8
F.Silkscreen
6
CONTINUOUS
10
141.6294489999999939
20
-44.3191279999999992
11
141.629936999999984
21
-44.3166709999999995
0
LINE
8
F.Silkscreen
6
CONTINUOUS
10
141.629936999999984
20
-44.3166709999999995
11
141.6295749999999884
21
-44.3155840000000012
0
LINE
8
F.Silkscreen
6
CONTINUOUS
10
141.6295749999999884
20
-44.3155840000000012
11
141.6316909999999893
21
-44.307853999999999
0
LINE
8
F.Silkscreen
6
CONTINUOUS
10
141.6316909999999893
20
-44.307853999999999
11
141.6332549999999912
21
-44.2999939999999981
0
LINE
8
F.Silkscreen
6
CONTINUOUS
10
141.6332549999999912
20
-44.2999939999999981
11
141.6340649999999926
21
-44.2991829999999993
0
LINE
8
F.Silkscreen
6
CONTINUOUS
10
141.6340649999999926
20
-44.2991829999999993
11
141.634726999999998
21
-44.2967680000000001
0
LINE
8
F.Silkscreen
6
CONTINUOUS
10
141.634726999999998
20
-44.2967680000000001
11
141.658535999999998
21
-44.2491489999999956
0
LINE
8
F.Silkscreen
6
CONTINUOUS
10
141.658535999999998
20
-44.2491489999999956
11
141.6634520000000066
21
-44.2428139999999956
0
LINE
8
F.Silkscreen
6
CONTINUOUS
10
141.6634520000000066
20
-44.2428139999999956
11
141.6679029999999955
21
-44.2361529999999945
0
LINE
8
F.Silkscreen
6
CONTINUOUS
10
141.6679029999999955
20
-44.2361529999999945
11
141.6917139999999904
21
-44.2123439999999945
0
LINE
8
F.Silkscreen
6
CONTINUOUS
10
141.6917139999999904
20
-44.2123439999999945
11
141.6983720000000062
21
-44.2078950000000006
0
LINE
8
F.Silkscreen
6
CONTINUOUS
10
141.6983720000000062
20
-44.2078950000000006
11
141.7047069999999849
21
-44.2029789999999991
0
LINE
8
F.Silkscreen
6
CONTINUOUS
10
141.7047069999999849
20
-44.2029789999999991
11
141.7523259999999823
21
-44.1791689999999946
0
LINE
8
F.Silkscreen
6
CONTINUOUS
10
141.7523259999999823
20
-44.1791689999999946
11
141.7547409999999957
21
-44.1785069999999962
0
LINE
8
F.Silkscreen
6
CONTINUOUS
10
141.7547409999999957
20
-44.1785069999999962
11
141.7555529999999919
21
-44.1776959999999974
0
LINE
8
F.Silkscreen
6
CONTINUOUS
10
141.7555529999999919
20
-44.1776959999999974
11
141.7634139999999832
21
-44.1761319999999955
0
LINE
8
F.Silkscreen
6
CONTINUOUS
10
141.7634139999999832
20
-44.1761319999999955
11
141.7711419999999976
21
-44.1740159999999946
0
LINE
8
F.Silkscreen
6
CONTINUOUS
10
141.7711419999999976
20
-44.1740159999999946
11
141.7722300000000075
21
-44.1743779999999973
0
LINE
8
F.Silkscreen
6
CONTINUOUS
10
141.7722300000000075
20
-44.1743779999999973
11
141.7746870000000001
21
-44.1738900000000001
0
LINE
8
F.Silkscreen
6
CONTINUOUS
10
141.7746870000000001
20
-44.1738900000000001
11
141.9651629999999898
21
-44.1738900000000001
0
LINE
8
F.Silkscreen
6
CONTINUOUS
10
141.9651629999999898
20
-44.1738900000000001
11
141.984296999999998
21
-44.1776959999999974
0
LINE
8
F.Silkscreen
6
CONTINUOUS
10
141.780493000000007
20
-44.5506969999999995
11
141.7681599999999946
21
-44.5630319999999998
0
LINE
8
F.Silkscreen
6
CONTINUOUS
10
141.7681599999999946
20
-44.5630319999999998
11
141.7532579999999882
21
-44.5928359999999984
0
LINE
8
F.Silkscreen
6
CONTINUOUS
10
141.7532579999999882
20
-44.5928359999999984
11
141.7532579999999882
21
-44.6168479999999974
0
LINE
8
F.Silkscreen
6
CONTINUOUS
10
141.7532579999999882
20
-44.6168479999999974
11
141.7681599999999946
21
-44.6466530000000006
0
LINE
8
F.Silkscreen
6
CONTINUOUS
10
141.7681599999999946
20
-44.6466530000000006
11
141.7804940000000045
21
-44.6589869999999962
0
LINE
8
F.Silkscreen
6
CONTINUOUS
10
141.7804940000000045
20
-44.6589869999999962
11
141.8102989999999863
21
-44.6738900000000001
0
LINE
8
F.Silkscreen
6
CONTINUOUS
10
141.8102989999999863
20
-44.6738900000000001
11
141.9151630000000068
21
-44.6738900000000001
0
LINE
8
F.Silkscreen
6
CONTINUOUS
10
141.9151630000000068
20
-44.6738900000000001
11
141.9151630000000068
21
-44.5357950000000002
0
LINE
8
F.Silkscreen
6
CONTINUOUS
10
141.9151630000000068
20
-44.5357950000000002
11
141.8102999999999838
21
-44.5357950000000002
0
LINE
8
F.Silkscreen
6
CONTINUOUS
10
141.8102999999999838
20
-44.5357950000000002
11
141.780493000000007
21
-44.5506969999999995
0
LINE
8
F.Silkscreen
6
CONTINUOUS
10
141.756686000000002
20
-44.2887920000000008
11
141.7443499999999972
21
-44.3011279999999985
0
LINE
8
F.Silkscreen
6
CONTINUOUS
10
141.7443499999999972
20
-44.3011279999999985
11
141.7294489999999882
21
-44.3309309999999996
0
LINE
8
F.Silkscreen
6
CONTINUOUS
10
141.7294489999999882
20
-44.3309309999999996
11
141.7294489999999882
21
-44.3787529999999961
0
LINE
8
F.Silkscreen
6
CONTINUOUS
10
141.7294489999999882
20
-44.3787529999999961
11
141.7443499999999972
21
-44.4085559999999973
0
LINE
8
F.Silkscreen
6
CONTINUOUS
10
141.7443499999999972
20
-44.4085559999999973
11
141.7540769999999952
21
-44.4182829999999953
0
LINE
8
F.Silkscreen
6
CONTINUOUS
10
141.7540769999999952
20
-44.4182829999999953
11
141.8066100000000063
21
-44.4357949999999988
0
LINE
8
F.Silkscreen
6
CONTINUOUS
10
141.8066100000000063
20
-44.4357949999999988
11
141.9151630000000068
21
-44.4357949999999988
0
LINE
8
F.Silkscreen
6
CONTINUOUS
10
141.9151630000000068
20
-44.4357949999999988
11
141.9151630000000068
21
-44.2738900000000015
0
LINE
8
F.Silkscreen
6
CONTINUOUS
10
141.9151630000000068
20
-44.2738900000000015
11
141.7864899999999864
21
-44.2738900000000015
0
LINE
8
F.Silkscreen
6
CONTINUOUS
10
141.7864899999999864
20
-44.2738900000000015
11
141.756686000000002
21
-44.2887920000000008
0
LINE
8
F.Silkscreen
6
CONTINUOUS
10
141.5081059999999979
20
-44.1776959999999974
11
141.5351660000000038
21
-44.2047559999999962
0
LINE
8
F.Silkscreen
6
CONTINUOUS
10
141.5351660000000038
20
-44.2047559999999962
11
141.5351660000000038
21
-44.2430239999999984
0
LINE
8
F.Silkscreen
6
CONTINUOUS
10
141.5351660000000038
20
-44.2430239999999984
11
141.5081059999999979
21
-44.2700839999999971
0
LINE
8
F.Silkscreen
6
CONTINUOUS
10
141.5081059999999979
20
-44.2700839999999971
11
141.4889719999999897
21
-44.2738900000000015
0
LINE
8
F.Silkscreen
6
CONTINUOUS
10
141.4889719999999897
20
-44.2738900000000015
11
141.3961149999999805
21
-44.2738900000000015
0
LINE
8
F.Silkscreen
6
CONTINUOUS
10
141.3961149999999805
20
-44.2738900000000015
11
141.3961149999999805
21
-44.5793689999999998
0
LINE
8
F.Silkscreen
6
CONTINUOUS
10
141.3961149999999805
20
-44.5793689999999998
11
141.4059969999999851
21
-44.5694869999999952
0
LINE
8
F.Silkscreen
6
CONTINUOUS
10
141.4059969999999851
20
-44.5694869999999952
11
141.4126609999999857
21
-44.5650329999999997
0
LINE
8
F.Silkscreen
6
CONTINUOUS
10
141.4126609999999857
20
-44.5650329999999997
11
141.4189930000000004
21
-44.5601199999999977
0
LINE
8
F.Silkscreen
6
CONTINUOUS
10
141.4189930000000004
20
-44.5601199999999977
11
141.4666110000000003
21
-44.5363119999999952
0
LINE
8
F.Silkscreen
6
CONTINUOUS
10
141.4666110000000003
20
-44.5363119999999952
11
141.4854269999999872
21
-44.5311589999999953
0
LINE
8
F.Silkscreen
6
CONTINUOUS
10
141.4854269999999872
20
-44.5311589999999953
11
141.5217319999999859
21
-44.5432610000000011
0
LINE
8
F.Silkscreen
6
CONTINUOUS
10
141.5217319999999859
20
-44.5432610000000011
11
141.5388460000000066
21
-44.5774889999999999
0
LINE
8
F.Silkscreen
6
CONTINUOUS
10
141.5388460000000066
20
-44.5774889999999999
11
141.5267439999999795
21
-44.6137939999999986
0
LINE
8
F.Silkscreen
6
CONTINUOUS
10
141.5267439999999795
20
-44.6137939999999986
11
141.5113319999999817
21
-44.6257549999999981
0
LINE
8
F.Silkscreen
6
CONTINUOUS
10
141.5113319999999817
20
-44.6257549999999981
11
141.4709699999999941
21
-44.6459350000000015
0
LINE
8
F.Silkscreen
6
CONTINUOUS
10
141.4709699999999941
20
-44.6459350000000015
11
141.4325919999999996
21
-44.6843119999999985
0
LINE
8
F.Silkscreen
6
CONTINUOUS
10
141.4325919999999996
20
-44.6843119999999985
11
141.3877180000000067
21
-44.7516249999999971
0
LINE
8
F.Silkscreen
6
CONTINUOUS
10
141.3877180000000067
20
-44.7516249999999971
11
141.3739369999999838
21
-44.7654339999999991
0
LINE
8
F.Silkscreen
6
CONTINUOUS
10
141.3739369999999838
20
-44.7654339999999991
11
141.3688889999999958
21
-44.7664429999999953
0
LINE
8
F.Silkscreen
6
CONTINUOUS
10
141.3688889999999958
20
-44.7664429999999953
11
141.3652490000000057
21
-44.7700839999999971
0
LINE
8
F.Silkscreen
6
CONTINUOUS
10
141.3652490000000057
20
-44.7700839999999971
11
141.3506869999999935
21
-44.7700839999999971
0
LINE
8
F.Silkscreen
6
CONTINUOUS
10
141.3506869999999935
20
-44.7700839999999971
11
141.3364119999999957
21
-44.7729390000000009
0
LINE
8
F.Silkscreen
6
CONTINUOUS
10
141.3364119999999957
20
-44.7729390000000009
11
141.3321289999999806
21
-44.7700839999999971
0
LINE
8
F.Silkscreen
6
CONTINUOUS
10
141.3321289999999806
20
-44.7700839999999971
11
141.3269809999999893
21
-44.7700839999999971
0
LINE
8
F.Silkscreen
6
CONTINUOUS
10
141.3269809999999893
20
-44.7700839999999971
11
141.3166839999999809
21
-44.7597869999999958
0
LINE
8
F.Silkscreen
6
CONTINUOUS
10
141.3166839999999809
20
-44.7597869999999958
11
141.3045709999999815
21
-44.7517119999999977
0
LINE
8
F.Silkscreen
6
CONTINUOUS
10
141.3045709999999815
20
-44.7517119999999977
11
141.303561000000002
21
-44.7466639999999956
0
LINE
8
F.Silkscreen
6
CONTINUOUS
10
141.303561000000002
20
-44.7466639999999956
11
141.2999209999999835
21
-44.7430239999999984
0
LINE
8
F.Silkscreen
6
CONTINUOUS
10
141.2999209999999835
20
-44.7430239999999984
11
141.2961149999999861
21
-44.7238899999999973
0
LINE
8
F.Silkscreen
6
CONTINUOUS
10
141.2961149999999861
20
-44.7238899999999973
11
141.2961149999999861
21
-44.2738900000000015
0
LINE
8
F.Silkscreen
6
CONTINUOUS
10
141.2961149999999861
20
-44.2738900000000015
11
141.2032580000000053
21
-44.2738900000000015
0
LINE
8
F.Silkscreen
6
CONTINUOUS
10
141.2032580000000053
20
-44.2738900000000015
11
141.1841239999999971
21
-44.2700839999999971
0
LINE
8
F.Silkscreen
6
CONTINUOUS
10
141.1841239999999971
20
-44.2700839999999971
11
141.1570639999999912
21
-44.2430239999999984
0
LINE
8
F.Silkscreen
6
CONTINUOUS
10
141.1570639999999912
20
-44.2430239999999984
11
141.1570639999999912
21
-44.2047559999999962
0
LINE
8
F.Silkscreen
6
CONTINUOUS
10
141.1570639999999912
20
-44.2047559999999962
11
141.1841239999999971
21
-44.1776959999999974
0
LINE
8
F.Silkscreen
6
CONTINUOUS
10
141.1841239999999971
20
-44.1776959999999974
11
141.2032580000000053
21
-44.1738900000000001
0
LINE
8
F.Silkscreen
6
CONTINUOUS
10
141.2032580000000053
20
-44.1738900000000001
11
141.4889719999999897
21
-44.1738900000000001
0
LINE
8
F.Silkscreen
6
CONTINUOUS
10
141.4889719999999897
20
-44.1738900000000001
11
141.5081059999999979
21
-44.1776959999999974
0
LINE
8
F.Silkscreen
6
CONTINUOUS
10
143.8529609999999934
20
-43.999566999999999
11
143.8854330000000061
21
-44.0320389999999975
0
LINE
8
F.Silkscreen
6
CONTINUOUS
10
143.8854330000000061
20
-44.0320389999999975
11
143.8854330000000061
21
-44.0779609999999948
0
LINE
8
F.Silkscreen
6
CONTINUOUS
10
143.8854330000000061
20
-44.0779609999999948
11
143.8529609999999934
21
-44.1104330000000004
0
LINE
8
F.Silkscreen
6
CONTINUOUS
10
143.8529609999999934
20
-44.1104330000000004
11
143.8299999999999841
21
-44.1149999999999949
0
LINE
8
F.Silkscreen
6
CONTINUOUS
10
143.8299999999999841
20
-44.1149999999999949
11
143.4399999999999977
21
-44.1149999999999949
0
LINE
8
F.Silkscreen
6
CONTINUOUS
10
143.4399999999999977
20
-44.1149999999999949
11
143.4399999999999977
21
-44.5049999999999955
0
LINE
8
F.Silkscreen
6
CONTINUOUS
10
143.4399999999999977
20
-44.5049999999999955
11
143.4354329999999891
21
-44.5279609999999977
0
LINE
8
F.Silkscreen
6
CONTINUOUS
10
143.4354329999999891
20
-44.5279609999999977
11
143.4029610000000048
21
-44.5604329999999962
0
LINE
8
F.Silkscreen
6
CONTINUOUS
10
143.4029610000000048
20
-44.5604329999999962
11
143.3570389999999861
21
-44.5604329999999962
0
LINE
8
F.Silkscreen
6
CONTINUOUS
10
143.3570389999999861
20
-44.5604329999999962
11
143.3245670000000018
21
-44.5279609999999977
0
LINE
8
F.Silkscreen
6
CONTINUOUS
10
143.3245670000000018
20
-44.5279609999999977
11
143.3199999999999932
21
-44.5049999999999955
0
LINE
8
F.Silkscreen
6
CONTINUOUS
10
143.3199999999999932
20
-44.5049999999999955
11
143.3199999999999932
21
-44.0549999999999997
0
LINE
8
F.Silkscreen
6
CONTINUOUS
10
143.3199999999999932
20
-44.0549999999999997
11
143.3245670000000018
21
-44.0320389999999975
0
LINE
8
F.Silkscreen
6
CONTINUOUS
10
143.3245670000000018
20
-44.0320389999999975
11
143.3570389999999861
21
-43.999566999999999
0
LINE
8
F.Silkscreen
6
CONTINUOUS
10
143.3570389999999861
20
-43.999566999999999
11
143.3799999999999955
21
-43.9949999999999974
0
LINE
8
F.Silkscreen
6
CONTINUOUS
10
143.3799999999999955
20
-43.9949999999999974
11
143.8299999999999841
21
-43.9949999999999974
0
LINE
8
F.Silkscreen
6
CONTINUOUS
10
143.8299999999999841
20
-43.9949999999999974
11
143.8529609999999934
21
-43.999566999999999
0
LINE
8
F.Silkscreen
6
CONTINUOUS
10
146.6229610000000037
20
-43.999566999999999
11
146.6554329999999879
21
-44.0320389999999975
0
LINE
8
F.Silkscreen
6
CONTINUOUS
10
146.6554329999999879
20
-44.0320389999999975
11
146.6599999999999966
21
-44.0549999999999997
0
LINE
8
F.Silkscreen
6
CONTINUOUS
10
146.6599999999999966
20
-44.0549999999999997
11
146.6599999999999966
21
-44.5049999999999955
0
LINE
8
F.Silkscreen
6
CONTINUOUS
10
146.6599999999999966
20
-44.5049999999999955
11
146.6554329999999879
21
-44.5279609999999977
0
LINE
8
F.Silkscreen
6
CONTINUOUS
10
146.6554329999999879
20
-44.5279609999999977
11
146.6229610000000037
21
-44.5604329999999962
0
LINE
8
F.Silkscreen
6
CONTINUOUS
10
146.6229610000000037
20
-44.5604329999999962
11
146.577038999999985
21
-44.5604329999999962
0
LINE
8
F.Silkscreen
6
CONTINUOUS
10
146.577038999999985
20
-44.5604329999999962
11
146.5445670000000007
21
-44.5279609999999977
0
LINE
8
F.Silkscreen
6
CONTINUOUS
10
146.5445670000000007
20
-44.5279609999999977
11
146.539999999999992
21
-44.5049999999999955
0
LINE
8
F.Silkscreen
6
CONTINUOUS
10
146.539999999999992
20
-44.5049999999999955
11
146.539999999999992
21
-44.1149999999999949
0
LINE
8
F.Silkscreen
6
CONTINUOUS
10
146.539999999999992
20
-44.1149999999999949
11
146.1500000000000057
21
-44.1149999999999949
0
LINE
8
F.Silkscreen
6
CONTINUOUS
10
146.1500000000000057
20
-44.1149999999999949
11
146.1270389999999963
21
-44.1104330000000004
0
LINE
8
F.Silkscreen
6
CONTINUOUS
10
146.1270389999999963
20
-44.1104330000000004
11
146.0945669999999836
21
-44.0779609999999948
0
LINE
8
F.Silkscreen
6
CONTINUOUS
10
146.0945669999999836
20
-44.0779609999999948
11
146.0945669999999836
21
-44.0320389999999975
0
LINE
8
F.Silkscreen
6
CONTINUOUS
10
146.0945669999999836
20
-44.0320389999999975
11
146.1270389999999963
21
-43.999566999999999
0
LINE
8
F.Silkscreen
6
CONTINUOUS
10
146.1270389999999963
20
-43.999566999999999
11
146.1500000000000057
21
-43.9949999999999974
0
LINE
8
F.Silkscreen
6
CONTINUOUS
10
146.1500000000000057
20
-43.9949999999999974
11
146.5999999999999943
21
-43.9949999999999974
0
LINE
8
F.Silkscreen
6
CONTINUOUS
10
146.5999999999999943
20
-43.9949999999999974
11
146.6229610000000037
21
-43.999566999999999
0
LINE
8
F.Silkscreen
6
CONTINUOUS
10
142.0766019999999799
20
-43.874566999999999
11
142.1090739999999926
21
-43.9070389999999975
0
LINE
8
F.Silkscreen
6
CONTINUOUS
10
142.1090739999999926
20
-43.9070389999999975
11
142.1090739999999926
21
-43.9529609999999948
0
LINE
8
F.Silkscreen
6
CONTINUOUS
10
142.1090739999999926
20
-43.9529609999999948
11
142.0766019999999799
21
-43.9854330000000004
0
LINE
8
F.Silkscreen
6
CONTINUOUS
10
142.0766019999999799
20
-43.9854330000000004
11
142.0536409999999989
21
-43.9899999999999949
0
LINE
8
F.Silkscreen
6
CONTINUOUS
10
142.0536409999999989
20
-43.9899999999999949
11
141.746358999999984
21
-43.9899999999999949
0
LINE
8
F.Silkscreen
6
CONTINUOUS
10
141.746358999999984
20
-43.9899999999999949
11
141.7233980000000031
21
-43.9854330000000004
0
LINE
8
F.Silkscreen
6
CONTINUOUS
10
141.7233980000000031
20
-43.9854330000000004
11
141.6909259999999904
21
-43.9529609999999948
0
LINE
8
F.Silkscreen
6
CONTINUOUS
10
141.6909259999999904
20
-43.9529609999999948
11
141.6909259999999904
21
-43.9070389999999975
0
LINE
8
F.Silkscreen
6
CONTINUOUS
10
141.6909259999999904
20
-43.9070389999999975
11
141.7233980000000031
21
-43.874566999999999
0
LINE
8
F.Silkscreen
6
CONTINUOUS
10
141.7233980000000031
20
-43.874566999999999
11
141.746358999999984
21
-43.8699999999999974
0
LINE
8
F.Silkscreen
6
CONTINUOUS
10
141.746358999999984
20
-43.8699999999999974
11
142.0536409999999989
21
-43.8699999999999974
0
LINE
8
F.Silkscreen
6
CONTINUOUS
10
142.0536409999999989
20
-43.8699999999999974
11
142.0766019999999799
21
-43.874566999999999
0
LINE
8
F.Silkscreen
6
CONTINUOUS
10
148.2766019999999969
20
-43.874566999999999
11
148.3090739999999812
21
-43.9070389999999975
0
LINE
8
F.Silkscreen
6
CONTINUOUS
10
148.3090739999999812
20
-43.9070389999999975
11
148.3090739999999812
21
-43.9529609999999948
0
LINE
8
F.Silkscreen
6
CONTINUOUS
10
148.3090739999999812
20
-43.9529609999999948
11
148.2766019999999969
21
-43.9854330000000004
0
LINE
8
F.Silkscreen
6
CONTINUOUS
10
148.2766019999999969
20
-43.9854330000000004
11
148.2536409999999876
21
-43.9899999999999949
0
LINE
8
F.Silkscreen
6
CONTINUOUS
10
148.2536409999999876
20
-43.9899999999999949
11
147.9463590000000011
21
-43.9899999999999949
0
LINE
8
F.Silkscreen
6
CONTINUOUS
10
147.9463590000000011
20
-43.9899999999999949
11
147.9233979999999917
21
-43.9854330000000004
0
LINE
8
F.Silkscreen
6
CONTINUOUS
10
147.9233979999999917
20
-43.9854330000000004
11
147.8909260000000074
21
-43.9529609999999948
0
LINE
8
F.Silkscreen
6
CONTINUOUS
10
147.8909260000000074
20
-43.9529609999999948
11
147.8909260000000074
21
-43.9070389999999975
0
LINE
8
F.Silkscreen
6
CONTINUOUS
10
147.8909260000000074
20
-43.9070389999999975
11
147.9233979999999917
21
-43.874566999999999
0
LINE
8
F.Silkscreen
6
CONTINUOUS
10
147.9233979999999917
20
-43.874566999999999
11
147.9463590000000011
21
-43.8699999999999974
0
LINE
8
F.Silkscreen
6
CONTINUOUS
10
147.9463590000000011
20
-43.8699999999999974
11
148.2536409999999876
21
-43.8699999999999974
0
LINE
8
F.Silkscreen
6
CONTINUOUS
10
148.2536409999999876
20
-43.8699999999999974
11
148.2766019999999969
21
-43.874566999999999
0
LINE
8
F.Silkscreen
6
CONTINUOUS
10
142.0766019999999799
20
-43.114567000000001
11
142.1090739999999926
21
-43.1470389999999995
0
LINE
8
F.Silkscreen
6
CONTINUOUS
10
142.1090739999999926
20
-43.1470389999999995
11
142.1090739999999926
21
-43.1929609999999968
0
LINE
8
F.Silkscreen
6
CONTINUOUS
10
142.1090739999999926
20
-43.1929609999999968
11
142.0766019999999799
21
-43.2254329999999953
0
LINE
8
F.Silkscreen
6
CONTINUOUS
10
142.0766019999999799
20
-43.2254329999999953
11
142.0536409999999989
21
-43.2299999999999969
0
LINE
8
F.Silkscreen
6
CONTINUOUS
10
142.0536409999999989
20
-43.2299999999999969
11
141.746358999999984
21
-43.2299999999999969
0
LINE
8
F.Silkscreen
6
CONTINUOUS
10
141.746358999999984
20
-43.2299999999999969
11
141.7233980000000031
21
-43.2254329999999953
0
LINE
8
F.Silkscreen
6
CONTINUOUS
10
141.7233980000000031
20
-43.2254329999999953
11
141.6909259999999904
21
-43.1929609999999968
0
LINE
8
F.Silkscreen
6
CONTINUOUS
10
141.6909259999999904
20
-43.1929609999999968
11
141.6909259999999904
21
-43.1470389999999995
0
LINE
8
F.Silkscreen
6
CONTINUOUS
10
141.6909259999999904
20
-43.1470389999999995
11
141.7233980000000031
21
-43.114567000000001
0
LINE
8
F.Silkscreen
6
CONTINUOUS
10
141.7233980000000031
20
-43.114567000000001
11
141.746358999999984
21
-43.1099999999999994
0
LINE
8
F.Silkscreen
6
CONTINUOUS
10
141.746358999999984
20
-43.1099999999999994
11
142.0536409999999989
21
-43.1099999999999994
0
LINE
8
F.Silkscreen
6
CONTINUOUS
10
142.0536409999999989
20
-43.1099999999999994
11
142.0766019999999799
21
-43.114567000000001
0
LINE
8
F.Silkscreen
6
CONTINUOUS
10
148.2766019999999969
20
-43.114567000000001
11
148.3090739999999812
21
-43.1470389999999995
0
LINE
8
F.Silkscreen
6
CONTINUOUS
10
148.3090739999999812
20
-43.1470389999999995
11
148.3090739999999812
21
-43.1929609999999968
0
LINE
8
F.Silkscreen
6
CONTINUOUS
10
148.3090739999999812
20
-43.1929609999999968
11
148.2766019999999969
21
-43.2254329999999953
0
LINE
8
F.Silkscreen
6
CONTINUOUS
10
148.2766019999999969
20
-43.2254329999999953
11
148.2536409999999876
21
-43.2299999999999969
0
LINE
8
F.Silkscreen
6
CONTINUOUS
10
148.2536409999999876
20
-43.2299999999999969
11
147.9463590000000011
21
-43.2299999999999969
0
LINE
8
F.Silkscreen
6
CONTINUOUS
10
147.9463590000000011
20
-43.2299999999999969
11
147.9233979999999917
21
-43.2254329999999953
0
LINE
8
F.Silkscreen
6
CONTINUOUS
10
147.9233979999999917
20
-43.2254329999999953
11
147.8909260000000074
21
-43.1929609999999968
0
LINE
8
F.Silkscreen
6
CONTINUOUS
10
147.8909260000000074
20
-43.1929609999999968
11
147.8909260000000074
21
-43.1470389999999995
0
LINE
8
F.Silkscreen
6
CONTINUOUS
10
147.8909260000000074
20
-43.1470389999999995
11
147.9233979999999917
21
-43.114567000000001
0
LINE
8
F.Silkscreen
6
CONTINUOUS
10
147.9233979999999917
20
-43.114567000000001
11
147.9463590000000011
21
-43.1099999999999994
0
LINE
8
F.Silkscreen
6
CONTINUOUS
10
147.9463590000000011
20
-43.1099999999999994
11
148.2536409999999876
21
-43.1099999999999994
0
LINE
8
F.Silkscreen
6
CONTINUOUS
10
148.2536409999999876
20
-43.1099999999999994
11
148.2766019999999969
21
-43.114567000000001
0
LINE
8
F.Silkscreen
6
CONTINUOUS
10
143.0455570000000023
20
-42.5168529999999976
11
143.0731470000000058
21
-42.5444430000000011
0
LINE
8
F.Silkscreen
6
CONTINUOUS
10
143.0731470000000058
20
-42.5444430000000011
11
143.0880789999999934
21
-42.580490999999995
0
LINE
8
F.Silkscreen
6
CONTINUOUS
10
143.0880789999999934
20
-42.580490999999995
11
143.0880789999999934
21
-42.6195090000000008
0
LINE
8
F.Silkscreen
6
CONTINUOUS
10
143.0880789999999934
20
-42.6195090000000008
11
143.0731470000000058
21
-42.6555569999999946
0
LINE
8
F.Silkscreen
6
CONTINUOUS
10
143.0731470000000058
20
-42.6555569999999946
11
143.0455570000000023
21
-42.6831469999999982
0
LINE
8
F.Silkscreen
6
CONTINUOUS
10
143.0455570000000023
20
-42.6831469999999982
11
143.00950899999998
21
-42.6980789999999999
0
LINE
8
F.Silkscreen
6
CONTINUOUS
10
143.00950899999998
20
-42.6980789999999999
11
142.9704909999999813
21
-42.6980789999999999
0
LINE
8
F.Silkscreen
6
CONTINUOUS
10
142.9704909999999813
20
-42.6980789999999999
11
142.9344429999999875
21
-42.6831469999999982
0
LINE
8
F.Silkscreen
6
CONTINUOUS
10
142.9344429999999875
20
-42.6831469999999982
11
142.9068529999999839
21
-42.6555569999999946
0
LINE
8
F.Silkscreen
6
CONTINUOUS
10
142.9068529999999839
20
-42.6555569999999946
11
142.8919209999999964
21
-42.6195090000000008
0
LINE
8
F.Silkscreen
6
CONTINUOUS
10
142.8919209999999964
20
-42.6195090000000008
11
142.8919209999999964
21
-42.580490999999995
0
LINE
8
F.Silkscreen
6
CONTINUOUS
10
142.8919209999999964
20
-42.580490999999995
11
142.9068529999999839
21
-42.5444430000000011
0
LINE
8
F.Silkscreen
6
CONTINUOUS
10
142.9068529999999839
20
-42.5444430000000011
11
142.9344429999999875
21
-42.5168529999999976
0
LINE
8
F.Silkscreen
6
CONTINUOUS
10
142.9344429999999875
20
-42.5168529999999976
11
142.9704909999999813
21
-42.5019209999999958
0
LINE
8
F.Silkscreen
6
CONTINUOUS
10
142.9704909999999813
20
-42.5019209999999958
11
143.00950899999998
21
-42.5019209999999958
0
LINE
8
F.Silkscreen
6
CONTINUOUS
10
143.00950899999998
20
-42.5019209999999958
11
143.0455570000000023
21
-42.5168529999999976
0
LINE
8
F.Silkscreen
6
CONTINUOUS
10
147.0655569999999841
20
-42.5168529999999976
11
147.0931469999999877
21
-42.5444430000000011
0
LINE
8
F.Silkscreen
6
CONTINUOUS
10
147.0931469999999877
20
-42.5444430000000011
11
147.1080790000000036
21
-42.580490999999995
0
LINE
8
F.Silkscreen
6
CONTINUOUS
10
147.1080790000000036
20
-42.580490999999995
11
147.1080790000000036
21
-42.6195090000000008
0
LINE
8
F.Silkscreen
6
CONTINUOUS
10
147.1080790000000036
20
-42.6195090000000008
11
147.0931469999999877
21
-42.6555569999999946
0
LINE
8
F.Silkscreen
6
CONTINUOUS
10
147.0931469999999877
20
-42.6555569999999946
11
147.0655569999999841
21
-42.6831469999999982
0
LINE
8
F.Silkscreen
6
CONTINUOUS
10
147.0655569999999841
20
-42.6831469999999982
11
147.0295089999999902
21
-42.6980789999999999
0
LINE
8
F.Silkscreen
6
CONTINUOUS
10
147.0295089999999902
20
-42.6980789999999999
11
146.9904909999999916
21
-42.6980789999999999
0
LINE
8
F.Silkscreen
6
CONTINUOUS
10
146.9904909999999916
20
-42.6980789999999999
11
146.9544429999999977
21
-42.6831469999999982
0
LINE
8
F.Silkscreen
6
CONTINUOUS
10
146.9544429999999977
20
-42.6831469999999982
11
146.9268529999999942
21
-42.6555569999999946
0
LINE
8
F.Silkscreen
6
CONTINUOUS
10
146.9268529999999942
20
-42.6555569999999946
11
146.9119210000000066
21
-42.6195090000000008
0
LINE
8
F.Silkscreen
6
CONTINUOUS
10
146.9119210000000066
20
-42.6195090000000008
11
146.9119210000000066
21
-42.580490999999995
0
LINE
8
F.Silkscreen
6
CONTINUOUS
10
146.9119210000000066
20
-42.580490999999995
11
146.9268529999999942
21
-42.5444430000000011
0
LINE
8
F.Silkscreen
6
CONTINUOUS
10
146.9268529999999942
20
-42.5444430000000011
11
146.9544429999999977
21
-42.5168529999999976
0
LINE
8
F.Silkscreen
6
CONTINUOUS
10
146.9544429999999977
20
-42.5168529999999976
11
146.9904909999999916
21
-42.5019209999999958
0
LINE
8
F.Silkscreen
6
CONTINUOUS
10
146.9904909999999916
20
-42.5019209999999958
11
147.0295089999999902
21
-42.5019209999999958
0
LINE
8
F.Silkscreen
6
CONTINUOUS
10
147.0295089999999902
20
-42.5019209999999958
11
147.0655569999999841
21
-42.5168529999999976
  0
ENDSEC
  0
EOF
